<svg class="main-svg" xmlns="http://www.w3.org/2000/svg" xmlns:xlink="http://www.w3.org/1999/xlink" width="1000" height="600" style="" viewBox="0 0 1000 600"><rect x="0" y="0" width="1000" height="600" style="fill: rgb(255, 255, 255); fill-opacity: 1;"/><defs id="defs-e17e2b"><g class="clips"><clipPath id="clipe17e2bxyplot" class="plotclip"><rect width="422.55" height="147"/></clipPath><clipPath id="clipe17e2bx2y2plot" class="plotclip"><rect width="422.54999999999995" height="147"/></clipPath><clipPath id="clipe17e2bx3y3plot" class="plotclip"><rect width="422.55" height="147"/></clipPath><clipPath id="clipe17e2bx4y4plot" class="plotclip"><rect width="422.54999999999995" height="147"/></clipPath><clipPath class="axesclip" id="clipe17e2bx"><rect x="61" y="0" width="422.55" height="600"/></clipPath><clipPath class="axesclip" id="clipe17e2by"><rect x="0" y="100.00000000000004" width="1000" height="147"/></clipPath><clipPath class="axesclip" id="clipe17e2bxy"><rect x="61" y="100.00000000000004" width="422.55" height="147"/></clipPath><clipPath class="axesclip" id="clipe17e2by2"><rect x="0" y="100.00000000000004" width="1000" height="147"/></clipPath><clipPath class="axesclip" id="clipe17e2bxy2"><rect x="61" y="100.00000000000004" width="422.55" height="147"/></clipPath><clipPath class="axesclip" id="clipe17e2by3"><rect x="0" y="373" width="1000" height="147"/></clipPath><clipPath class="axesclip" id="clipe17e2bxy3"><rect x="61" y="373" width="422.55" height="147"/></clipPath><clipPath class="axesclip" id="clipe17e2by4"><rect x="0" y="373" width="1000" height="147"/></clipPath><clipPath class="axesclip" id="clipe17e2bxy4"><rect x="61" y="373" width="422.55" height="147"/></clipPath><clipPath class="axesclip" id="clipe17e2bx2"><rect x="577.45" y="0" width="422.54999999999995" height="600"/></clipPath><clipPath class="axesclip" id="clipe17e2bx2y"><rect x="577.45" y="100.00000000000004" width="422.54999999999995" height="147"/></clipPath><clipPath class="axesclip" id="clipe17e2bx2y2"><rect x="577.45" y="100.00000000000004" width="422.54999999999995" height="147"/></clipPath><clipPath class="axesclip" id="clipe17e2bx2y3"><rect x="577.45" y="373" width="422.54999999999995" height="147"/></clipPath><clipPath class="axesclip" id="clipe17e2bx2y4"><rect x="577.45" y="373" width="422.54999999999995" height="147"/></clipPath><clipPath class="axesclip" id="clipe17e2bx3"><rect x="61" y="0" width="422.55" height="600"/></clipPath><clipPath class="axesclip" id="clipe17e2bx3y"><rect x="61" y="100.00000000000004" width="422.55" height="147"/></clipPath><clipPath class="axesclip" id="clipe17e2bx3y2"><rect x="61" y="100.00000000000004" width="422.55" height="147"/></clipPath><clipPath class="axesclip" id="clipe17e2bx3y3"><rect x="61" y="373" width="422.55" height="147"/></clipPath><clipPath class="axesclip" id="clipe17e2bx3y4"><rect x="61" y="373" width="422.55" height="147"/></clipPath><clipPath class="axesclip" id="clipe17e2bx4"><rect x="577.45" y="0" width="422.54999999999995" height="600"/></clipPath><clipPath class="axesclip" id="clipe17e2bx4y"><rect x="577.45" y="100.00000000000004" width="422.54999999999995" height="147"/></clipPath><clipPath class="axesclip" id="clipe17e2bx4y2"><rect x="577.45" y="100.00000000000004" width="422.54999999999995" height="147"/></clipPath><clipPath class="axesclip" id="clipe17e2bx4y3"><rect x="577.45" y="373" width="422.54999999999995" height="147"/></clipPath><clipPath class="axesclip" id="clipe17e2bx4y4"><rect x="577.45" y="373" width="422.54999999999995" height="147"/></clipPath></g><g class="gradients"/><g class="patterns"/></defs><g class="bglayer"/><g class="layer-below"><g class="imagelayer"/><g class="shapelayer"/></g><g class="cartesianlayer"><g class="subplot xy"><g class="layer-subplot"><g class="shapelayer"/><g class="imagelayer"/></g><g class="minor-gridlayer"><g class="x"/><g class="y"/></g><g class="gridlayer"><g class="x"/><g class="y"><path class="ygrid crisp" transform="translate(0,223.42000000000004)" d="M61,0h422.55" style="stroke: rgb(230, 234, 241); stroke-opacity: 1; stroke-width: 1px;"/><path class="ygrid crisp" transform="translate(0,210.94000000000005)" d="M61,0h422.55" style="stroke: rgb(230, 234, 241); stroke-opacity: 1; stroke-width: 1px;"/><path class="ygrid crisp" transform="translate(0,198.46000000000004)" d="M61,0h422.55" style="stroke: rgb(230, 234, 241); stroke-opacity: 1; stroke-width: 1px;"/><path class="ygrid crisp" transform="translate(0,185.98000000000005)" d="M61,0h422.55" style="stroke: rgb(230, 234, 241); stroke-opacity: 1; stroke-width: 1px;"/><path class="ygrid crisp" transform="translate(0,173.50000000000006)" d="M61,0h422.55" style="stroke: rgb(230, 234, 241); stroke-opacity: 1; stroke-width: 1px;"/><path class="ygrid crisp" transform="translate(0,161.02000000000004)" d="M61,0h422.55" style="stroke: rgb(230, 234, 241); stroke-opacity: 1; stroke-width: 1px;"/><path class="ygrid crisp" transform="translate(0,148.54000000000005)" d="M61,0h422.55" style="stroke: rgb(230, 234, 241); stroke-opacity: 1; stroke-width: 1px;"/><path class="ygrid crisp" transform="translate(0,136.06000000000006)" d="M61,0h422.55" style="stroke: rgb(230, 234, 241); stroke-opacity: 1; stroke-width: 1px;"/><path class="ygrid crisp" transform="translate(0,123.58000000000004)" d="M61,0h422.55" style="stroke: rgb(230, 234, 241); stroke-opacity: 1; stroke-width: 1px;"/><path class="ygrid crisp" transform="translate(0,111.10000000000004)" d="M61,0h422.55" style="stroke: rgb(230, 234, 241); stroke-opacity: 1; stroke-width: 1px;"/></g></g><g class="zerolinelayer"><path class="yzl zl crisp" transform="translate(0,235.90000000000003)" d="M61,0h422.55" style="stroke: rgb(230, 234, 241); stroke-opacity: 1; stroke-width: 1px;"/></g><g class="layer-between"><g class="shapelayer"/><g class="imagelayer"/></g><path class="xlines-below"/><path class="ylines-below"/><g class="overlines-below"/><g class="xaxislayer-below"/><g class="yaxislayer-below"/><g class="overaxes-below"/><g class="overplot"><g class="xy" transform="translate(61,100.00000000000004)" clip-path="url(#clipe17e2bxyplot)"><g class="scatterlayer mlayer"><g class="trace scatter tracef0adf3" style="stroke-miterlimit: 2; opacity: 1;"><g class="fills"/><g class="errorbars"/><g class="lines"><path class="js-line" d="M24.88,135.9Q45.58,134.02 55.94,133.4C66.29,132.78 76.81,134.16 87.01,132.16C97.53,130.1 107.76,124.86 118.08,120.92C128.47,116.96 138.69,112 149.14,108.44C159.4,104.95 170.18,104.22 180.21,99.71C190.94,94.88 200.79,85.84 211.28,79.74C221.5,73.8 231.94,68.74 242.34,63.52C252.65,58.34 263.31,54.56 273.41,48.54C284.05,42.19 293.7,31.78 304.47,26.08C314.47,20.79 325.03,17.12 335.54,14.84C345.75,12.63 356.25,12.97 366.61,12.35Q376.96,11.73 397.67,11.1" style="vector-effect: none; fill: none; stroke: rgb(0, 0, 255); stroke-opacity: 1; stroke-width: 3px; opacity: 1;"/></g><g class="points"><path class="point" transform="translate(24.88,135.9)" d="M3,0A3,3 0 1,1 0,-3A3,3 0 0,1 3,0Z" style="opacity: 1; stroke-width: 0px; fill: rgb(0, 0, 255); fill-opacity: 1;"/><path class="point" transform="translate(55.94,133.4)" d="M3,0A3,3 0 1,1 0,-3A3,3 0 0,1 3,0Z" style="opacity: 1; stroke-width: 0px; fill: rgb(0, 0, 255); fill-opacity: 1;"/><path class="point" transform="translate(87.01,132.16)" d="M3,0A3,3 0 1,1 0,-3A3,3 0 0,1 3,0Z" style="opacity: 1; stroke-width: 0px; fill: rgb(0, 0, 255); fill-opacity: 1;"/><path class="point" transform="translate(118.08,120.92)" d="M3,0A3,3 0 1,1 0,-3A3,3 0 0,1 3,0Z" style="opacity: 1; stroke-width: 0px; fill: rgb(0, 0, 255); fill-opacity: 1;"/><path class="point" transform="translate(149.14,108.44)" d="M3,0A3,3 0 1,1 0,-3A3,3 0 0,1 3,0Z" style="opacity: 1; stroke-width: 0px; fill: rgb(0, 0, 255); fill-opacity: 1;"/><path class="point" transform="translate(180.21,99.71)" d="M3,0A3,3 0 1,1 0,-3A3,3 0 0,1 3,0Z" style="opacity: 1; stroke-width: 0px; fill: rgb(0, 0, 255); fill-opacity: 1;"/><path class="point" transform="translate(211.28,79.74)" d="M3,0A3,3 0 1,1 0,-3A3,3 0 0,1 3,0Z" style="opacity: 1; stroke-width: 0px; fill: rgb(0, 0, 255); fill-opacity: 1;"/><path class="point" transform="translate(242.34,63.52)" d="M3,0A3,3 0 1,1 0,-3A3,3 0 0,1 3,0Z" style="opacity: 1; stroke-width: 0px; fill: rgb(0, 0, 255); fill-opacity: 1;"/><path class="point" transform="translate(273.41,48.54)" d="M3,0A3,3 0 1,1 0,-3A3,3 0 0,1 3,0Z" style="opacity: 1; stroke-width: 0px; fill: rgb(0, 0, 255); fill-opacity: 1;"/><path class="point" transform="translate(304.47,26.08)" d="M3,0A3,3 0 1,1 0,-3A3,3 0 0,1 3,0Z" style="opacity: 1; stroke-width: 0px; fill: rgb(0, 0, 255); fill-opacity: 1;"/><path class="point" transform="translate(335.54,14.84)" d="M3,0A3,3 0 1,1 0,-3A3,3 0 0,1 3,0Z" style="opacity: 1; stroke-width: 0px; fill: rgb(0, 0, 255); fill-opacity: 1;"/><path class="point" transform="translate(366.61,12.35)" d="M3,0A3,3 0 1,1 0,-3A3,3 0 0,1 3,0Z" style="opacity: 1; stroke-width: 0px; fill: rgb(0, 0, 255); fill-opacity: 1;"/><path class="point" transform="translate(397.67,11.1)" d="M3,0A3,3 0 1,1 0,-3A3,3 0 0,1 3,0Z" style="opacity: 1; stroke-width: 0px; fill: rgb(0, 0, 255); fill-opacity: 1;"/></g><g class="text"/></g></g></g></g><path class="xlines-above crisp" d="M0,0" style="fill: none;"/><path class="ylines-above crisp" d="M0,0" style="fill: none;"/><g class="overlines-above"/><g class="xaxislayer-above"><g class="xtick"><text text-anchor="middle" x="0" y="268.00000000000006" transform="translate(85.88,0)" style="font-family: 'Source Sans', sans-serif; font-size: 12px; fill: rgb(128, 132, 149); fill-opacity: 1; white-space: pre; opacity: 1;">0</text></g><g class="xtick"><text text-anchor="middle" x="0" y="268.00000000000006" style="font-family: 'Source Sans', sans-serif; font-size: 12px; fill: rgb(128, 132, 149); fill-opacity: 1; white-space: pre; opacity: 1;" transform="translate(116.94,0)">1</text></g><g class="xtick"><text text-anchor="middle" x="0" y="268.00000000000006" style="font-family: 'Source Sans', sans-serif; font-size: 12px; fill: rgb(128, 132, 149); fill-opacity: 1; white-space: pre; opacity: 1;" transform="translate(148.01,0)">2</text></g><g class="xtick"><text text-anchor="middle" x="0" y="268.00000000000006" style="font-family: 'Source Sans', sans-serif; font-size: 12px; fill: rgb(128, 132, 149); fill-opacity: 1; white-space: pre; opacity: 1;" transform="translate(179.07999999999998,0)">3</text></g><g class="xtick"><text text-anchor="middle" x="0" y="268.00000000000006" style="font-family: 'Source Sans', sans-serif; font-size: 12px; fill: rgb(128, 132, 149); fill-opacity: 1; white-space: pre; opacity: 1;" transform="translate(210.14,0)">4</text></g><g class="xtick"><text text-anchor="middle" x="0" y="268.00000000000006" style="font-family: 'Source Sans', sans-serif; font-size: 12px; fill: rgb(128, 132, 149); fill-opacity: 1; white-space: pre; opacity: 1;" transform="translate(241.21,0)">5</text></g><g class="xtick"><text text-anchor="middle" x="0" y="268.00000000000006" style="font-family: 'Source Sans', sans-serif; font-size: 12px; fill: rgb(128, 132, 149); fill-opacity: 1; white-space: pre; opacity: 1;" transform="translate(272.28,0)">6</text></g><g class="xtick"><text text-anchor="middle" x="0" y="268.00000000000006" style="font-family: 'Source Sans', sans-serif; font-size: 12px; fill: rgb(128, 132, 149); fill-opacity: 1; white-space: pre; opacity: 1;" transform="translate(303.34000000000003,0)">7</text></g><g class="xtick"><text text-anchor="middle" x="0" y="268.00000000000006" style="font-family: 'Source Sans', sans-serif; font-size: 12px; fill: rgb(128, 132, 149); fill-opacity: 1; white-space: pre; opacity: 1;" transform="translate(334.41,0)">8</text></g><g class="xtick"><text text-anchor="middle" x="0" y="268.00000000000006" style="font-family: 'Source Sans', sans-serif; font-size: 12px; fill: rgb(128, 132, 149); fill-opacity: 1; white-space: pre; opacity: 1;" transform="translate(365.47,0)">9</text></g><g class="xtick"><text text-anchor="middle" x="0" y="268.00000000000006" style="font-family: 'Source Sans', sans-serif; font-size: 12px; fill: rgb(128, 132, 149); fill-opacity: 1; white-space: pre; opacity: 1;" transform="translate(396.54,0)">10</text></g><g class="xtick"><text text-anchor="middle" x="0" y="268.00000000000006" style="font-family: 'Source Sans', sans-serif; font-size: 12px; fill: rgb(128, 132, 149); fill-opacity: 1; white-space: pre; opacity: 1;" transform="translate(427.61,0)">11</text></g><g class="xtick"><text text-anchor="middle" x="0" y="268.00000000000006" style="font-family: 'Source Sans', sans-serif; font-size: 12px; fill: rgb(128, 132, 149); fill-opacity: 1; white-space: pre; opacity: 1;" transform="translate(458.67,0)">12</text></g></g><g class="yaxislayer-above"><g class="ytick"><text text-anchor="end" x="52" y="4.199999999999999" transform="translate(0,235.90000000000003)" style="font-family: 'Source Sans', sans-serif; font-size: 12px; fill: rgb(128, 132, 149); fill-opacity: 1; white-space: pre; opacity: 1;">0</text></g><g class="ytick"><text text-anchor="end" x="52" y="4.199999999999999" style="font-family: 'Source Sans', sans-serif; font-size: 12px; fill: rgb(128, 132, 149); fill-opacity: 1; white-space: pre; opacity: 1;" transform="translate(0,223.42000000000004)">10</text></g><g class="ytick"><text text-anchor="end" x="52" y="4.199999999999999" style="font-family: 'Source Sans', sans-serif; font-size: 12px; fill: rgb(128, 132, 149); fill-opacity: 1; white-space: pre; opacity: 1;" transform="translate(0,210.94000000000005)">20</text></g><g class="ytick"><text text-anchor="end" x="52" y="4.199999999999999" style="font-family: 'Source Sans', sans-serif; font-size: 12px; fill: rgb(128, 132, 149); fill-opacity: 1; white-space: pre; opacity: 1;" transform="translate(0,198.46000000000004)">30</text></g><g class="ytick"><text text-anchor="end" x="52" y="4.199999999999999" style="font-family: 'Source Sans', sans-serif; font-size: 12px; fill: rgb(128, 132, 149); fill-opacity: 1; white-space: pre; opacity: 1;" transform="translate(0,185.98000000000005)">40</text></g><g class="ytick"><text text-anchor="end" x="52" y="4.199999999999999" style="font-family: 'Source Sans', sans-serif; font-size: 12px; fill: rgb(128, 132, 149); fill-opacity: 1; white-space: pre; opacity: 1;" transform="translate(0,173.50000000000006)">50</text></g><g class="ytick"><text text-anchor="end" x="52" y="4.199999999999999" style="font-family: 'Source Sans', sans-serif; font-size: 12px; fill: rgb(128, 132, 149); fill-opacity: 1; white-space: pre; opacity: 1;" transform="translate(0,161.02000000000004)">60</text></g><g class="ytick"><text text-anchor="end" x="52" y="4.199999999999999" style="font-family: 'Source Sans', sans-serif; font-size: 12px; fill: rgb(128, 132, 149); fill-opacity: 1; white-space: pre; opacity: 1;" transform="translate(0,148.54000000000005)">70</text></g><g class="ytick"><text text-anchor="end" x="52" y="4.199999999999999" style="font-family: 'Source Sans', sans-serif; font-size: 12px; fill: rgb(128, 132, 149); fill-opacity: 1; white-space: pre; opacity: 1;" transform="translate(0,136.06000000000006)">80</text></g><g class="ytick"><text text-anchor="end" x="52" y="4.199999999999999" style="font-family: 'Source Sans', sans-serif; font-size: 12px; fill: rgb(128, 132, 149); fill-opacity: 1; white-space: pre; opacity: 1;" transform="translate(0,123.58000000000004)">90</text></g><g class="ytick"><text text-anchor="end" x="52" y="4.199999999999999" style="font-family: 'Source Sans', sans-serif; font-size: 12px; fill: rgb(128, 132, 149); fill-opacity: 1; white-space: pre; opacity: 1;" transform="translate(0,111.10000000000004)">100</text></g></g><g class="overaxes-above"/></g><g class="subplot x2y2"><g class="layer-subplot"><g class="shapelayer"/><g class="imagelayer"/></g><g class="minor-gridlayer"><g class="x2"/><g class="y2"/></g><g class="gridlayer"><g class="x2"/><g class="y2"><path class="y2grid crisp" transform="translate(0,233.04000000000002)" d="M577.45,0h422.54999999999995" style="stroke: rgb(230, 234, 241); stroke-opacity: 1; stroke-width: 1px;"/><path class="y2grid crisp" transform="translate(0,219.07000000000005)" d="M577.45,0h422.54999999999995" style="stroke: rgb(230, 234, 241); stroke-opacity: 1; stroke-width: 1px;"/><path class="y2grid crisp" transform="translate(0,205.11000000000004)" d="M577.45,0h422.54999999999995" style="stroke: rgb(230, 234, 241); stroke-opacity: 1; stroke-width: 1px;"/><path class="y2grid crisp" transform="translate(0,191.14000000000004)" d="M577.45,0h422.54999999999995" style="stroke: rgb(230, 234, 241); stroke-opacity: 1; stroke-width: 1px;"/><path class="y2grid crisp" transform="translate(0,177.18000000000006)" d="M577.45,0h422.54999999999995" style="stroke: rgb(230, 234, 241); stroke-opacity: 1; stroke-width: 1px;"/><path class="y2grid crisp" transform="translate(0,163.21000000000004)" d="M577.45,0h422.54999999999995" style="stroke: rgb(230, 234, 241); stroke-opacity: 1; stroke-width: 1px;"/><path class="y2grid crisp" transform="translate(0,149.25000000000006)" d="M577.45,0h422.54999999999995" style="stroke: rgb(230, 234, 241); stroke-opacity: 1; stroke-width: 1px;"/><path class="y2grid crisp" transform="translate(0,135.28000000000003)" d="M577.45,0h422.54999999999995" style="stroke: rgb(230, 234, 241); stroke-opacity: 1; stroke-width: 1px;"/><path class="y2grid crisp" transform="translate(0,121.32000000000005)" d="M577.45,0h422.54999999999995" style="stroke: rgb(230, 234, 241); stroke-opacity: 1; stroke-width: 1px;"/><path class="y2grid crisp" transform="translate(0,107.35000000000004)" d="M577.45,0h422.54999999999995" style="stroke: rgb(230, 234, 241); stroke-opacity: 1; stroke-width: 1px;"/></g></g><g class="zerolinelayer"><path class="y2zl zl crisp" transform="translate(0,247.00000000000006)" d="M577.45,0h422.54999999999995" style="stroke: rgb(230, 234, 241); stroke-opacity: 1; stroke-width: 1px;"/></g><g class="layer-between"><g class="shapelayer"/><g class="imagelayer"/></g><path class="xlines-below"/><path class="ylines-below"/><g class="overlines-below"/><g class="xaxislayer-below"/><g class="yaxislayer-below"/><g class="overaxes-below"/><g class="overplot"><g class="x2y2" transform="translate(577.45,100.00000000000004)" clip-path="url(#clipe17e2bx2y2plot)"><g class="barlayer mlayer"><g class="trace bars" style="opacity: 1;"><g class="points"><g class="point"><path d="M0,0Z" style="vector-effect: none; opacity: 1; stroke-width: 0px; fill: rgb(135, 206, 235); fill-opacity: 1;"/></g><g class="point"><path d="M35.75,147V144.21H61.76V147Z" style="vector-effect: none; opacity: 1; stroke-width: 0px; fill: rgb(135, 206, 235); fill-opacity: 1;"/></g><g class="point"><path d="M68.26,147V142.81H94.26V147Z" style="vector-effect: none; opacity: 1; stroke-width: 0px; fill: rgb(135, 206, 235); fill-opacity: 1;"/></g><g class="point"><path d="M100.76,147V130.24H126.76V147Z" style="vector-effect: none; opacity: 1; stroke-width: 0px; fill: rgb(135, 206, 235); fill-opacity: 1;"/></g><g class="point"><path d="M133.27,147V116.28H159.27V147Z" style="vector-effect: none; opacity: 1; stroke-width: 0px; fill: rgb(135, 206, 235); fill-opacity: 1;"/></g><g class="point"><path d="M165.77,147V106.5H191.77V147Z" style="vector-effect: none; opacity: 1; stroke-width: 0px; fill: rgb(135, 206, 235); fill-opacity: 1;"/></g><g class="point"><path d="M198.27,147V84.16H224.28V147Z" style="vector-effect: none; opacity: 1; stroke-width: 0px; fill: rgb(135, 206, 235); fill-opacity: 1;"/></g><g class="point"><path d="M230.78,147V66H256.78V147Z" style="vector-effect: none; opacity: 1; stroke-width: 0px; fill: rgb(135, 206, 235); fill-opacity: 1;"/></g><g class="point"><path d="M263.28,147V49.25H289.28V147Z" style="vector-effect: none; opacity: 1; stroke-width: 0px; fill: rgb(135, 206, 235); fill-opacity: 1;"/></g><g class="point"><path d="M295.78,147V24.11H321.79V147Z" style="vector-effect: none; opacity: 1; stroke-width: 0px; fill: rgb(135, 206, 235); fill-opacity: 1;"/></g><g class="point"><path d="M328.29,147V11.54H354.29V147Z" style="vector-effect: none; opacity: 1; stroke-width: 0px; fill: rgb(135, 206, 235); fill-opacity: 1;"/></g><g class="point"><path d="M360.79,147V8.75H386.8V147Z" style="vector-effect: none; opacity: 1; stroke-width: 0px; fill: rgb(135, 206, 235); fill-opacity: 1;"/></g><g class="point"><path d="M393.3,147V7.35H419.3V147Z" style="vector-effect: none; opacity: 1; stroke-width: 0px; fill: rgb(135, 206, 235); fill-opacity: 1;"/></g></g></g></g></g></g><path class="xlines-above crisp" d="M0,0" style="fill: none;"/><path class="ylines-above crisp" d="M0,0" style="fill: none;"/><g class="overlines-above"/><g class="xaxislayer-above"><g class="x2tick"><text text-anchor="middle" x="0" y="268.00000000000006" transform="translate(593.7,0)" style="font-family: 'Source Sans', sans-serif; font-size: 12px; fill: rgb(128, 132, 149); fill-opacity: 1; white-space: pre; opacity: 1;">0</text></g><g class="x2tick"><text text-anchor="middle" x="0" y="268.00000000000006" style="font-family: 'Source Sans', sans-serif; font-size: 12px; fill: rgb(128, 132, 149); fill-opacity: 1; white-space: pre; opacity: 1;" transform="translate(626.21,0)">1</text></g><g class="x2tick"><text text-anchor="middle" x="0" y="268.00000000000006" style="font-family: 'Source Sans', sans-serif; font-size: 12px; fill: rgb(128, 132, 149); fill-opacity: 1; white-space: pre; opacity: 1;" transform="translate(658.71,0)">2</text></g><g class="x2tick"><text text-anchor="middle" x="0" y="268.00000000000006" style="font-family: 'Source Sans', sans-serif; font-size: 12px; fill: rgb(128, 132, 149); fill-opacity: 1; white-space: pre; opacity: 1;" transform="translate(691.21,0)">3</text></g><g class="x2tick"><text text-anchor="middle" x="0" y="268.00000000000006" style="font-family: 'Source Sans', sans-serif; font-size: 12px; fill: rgb(128, 132, 149); fill-opacity: 1; white-space: pre; opacity: 1;" transform="translate(723.72,0)">4</text></g><g class="x2tick"><text text-anchor="middle" x="0" y="268.00000000000006" style="font-family: 'Source Sans', sans-serif; font-size: 12px; fill: rgb(128, 132, 149); fill-opacity: 1; white-space: pre; opacity: 1;" transform="translate(756.22,0)">5</text></g><g class="x2tick"><text text-anchor="middle" x="0" y="268.00000000000006" style="font-family: 'Source Sans', sans-serif; font-size: 12px; fill: rgb(128, 132, 149); fill-opacity: 1; white-space: pre; opacity: 1;" transform="translate(788.72,0)">6</text></g><g class="x2tick"><text text-anchor="middle" x="0" y="268.00000000000006" style="font-family: 'Source Sans', sans-serif; font-size: 12px; fill: rgb(128, 132, 149); fill-opacity: 1; white-space: pre; opacity: 1;" transform="translate(821.23,0)">7</text></g><g class="x2tick"><text text-anchor="middle" x="0" y="268.00000000000006" style="font-family: 'Source Sans', sans-serif; font-size: 12px; fill: rgb(128, 132, 149); fill-opacity: 1; white-space: pre; opacity: 1;" transform="translate(853.73,0)">8</text></g><g class="x2tick"><text text-anchor="middle" x="0" y="268.00000000000006" style="font-family: 'Source Sans', sans-serif; font-size: 12px; fill: rgb(128, 132, 149); fill-opacity: 1; white-space: pre; opacity: 1;" transform="translate(886.24,0)">9</text></g><g class="x2tick"><text text-anchor="middle" x="0" y="268.00000000000006" style="font-family: 'Source Sans', sans-serif; font-size: 12px; fill: rgb(128, 132, 149); fill-opacity: 1; white-space: pre; opacity: 1;" transform="translate(918.74,0)">10</text></g><g class="x2tick"><text text-anchor="middle" x="0" y="268.00000000000006" style="font-family: 'Source Sans', sans-serif; font-size: 12px; fill: rgb(128, 132, 149); fill-opacity: 1; white-space: pre; opacity: 1;" transform="translate(951.24,0)">11</text></g><g class="x2tick"><text text-anchor="middle" x="0" y="268.00000000000006" style="font-family: 'Source Sans', sans-serif; font-size: 12px; fill: rgb(128, 132, 149); fill-opacity: 1; white-space: pre; opacity: 1;" transform="translate(983.75,0)">12</text></g></g><g class="yaxislayer-above"><g class="y2tick"><text text-anchor="end" x="568.45" y="4.199999999999999" transform="translate(0,247.00000000000006)" style="font-family: 'Source Sans', sans-serif; font-size: 12px; fill: rgb(128, 132, 149); fill-opacity: 1; white-space: pre; opacity: 1;">0</text></g><g class="y2tick"><text text-anchor="end" x="568.45" y="4.199999999999999" style="font-family: 'Source Sans', sans-serif; font-size: 12px; fill: rgb(128, 132, 149); fill-opacity: 1; white-space: pre; opacity: 1;" transform="translate(0,233.04000000000002)">10</text></g><g class="y2tick"><text text-anchor="end" x="568.45" y="4.199999999999999" style="font-family: 'Source Sans', sans-serif; font-size: 12px; fill: rgb(128, 132, 149); fill-opacity: 1; white-space: pre; opacity: 1;" transform="translate(0,219.07000000000005)">20</text></g><g class="y2tick"><text text-anchor="end" x="568.45" y="4.199999999999999" style="font-family: 'Source Sans', sans-serif; font-size: 12px; fill: rgb(128, 132, 149); fill-opacity: 1; white-space: pre; opacity: 1;" transform="translate(0,205.11000000000004)">30</text></g><g class="y2tick"><text text-anchor="end" x="568.45" y="4.199999999999999" style="font-family: 'Source Sans', sans-serif; font-size: 12px; fill: rgb(128, 132, 149); fill-opacity: 1; white-space: pre; opacity: 1;" transform="translate(0,191.14000000000004)">40</text></g><g class="y2tick"><text text-anchor="end" x="568.45" y="4.199999999999999" style="font-family: 'Source Sans', sans-serif; font-size: 12px; fill: rgb(128, 132, 149); fill-opacity: 1; white-space: pre; opacity: 1;" transform="translate(0,177.18000000000006)">50</text></g><g class="y2tick"><text text-anchor="end" x="568.45" y="4.199999999999999" style="font-family: 'Source Sans', sans-serif; font-size: 12px; fill: rgb(128, 132, 149); fill-opacity: 1; white-space: pre; opacity: 1;" transform="translate(0,163.21000000000004)">60</text></g><g class="y2tick"><text text-anchor="end" x="568.45" y="4.199999999999999" style="font-family: 'Source Sans', sans-serif; font-size: 12px; fill: rgb(128, 132, 149); fill-opacity: 1; white-space: pre; opacity: 1;" transform="translate(0,149.25000000000006)">70</text></g><g class="y2tick"><text text-anchor="end" x="568.45" y="4.199999999999999" style="font-family: 'Source Sans', sans-serif; font-size: 12px; fill: rgb(128, 132, 149); fill-opacity: 1; white-space: pre; opacity: 1;" transform="translate(0,135.28000000000003)">80</text></g><g class="y2tick"><text text-anchor="end" x="568.45" y="4.199999999999999" style="font-family: 'Source Sans', sans-serif; font-size: 12px; fill: rgb(128, 132, 149); fill-opacity: 1; white-space: pre; opacity: 1;" transform="translate(0,121.32000000000005)">90</text></g><g class="y2tick"><text text-anchor="end" x="568.45" y="4.199999999999999" style="font-family: 'Source Sans', sans-serif; font-size: 12px; fill: rgb(128, 132, 149); fill-opacity: 1; white-space: pre; opacity: 1;" transform="translate(0,107.35000000000004)">100</text></g></g><g class="overaxes-above"/></g><g class="subplot x3y3"><g class="layer-subplot"><g class="shapelayer"/><g class="imagelayer"/></g><g class="minor-gridlayer"><g class="x3"/><g class="y3"/></g><g class="gridlayer"><g class="x3"/><g class="y3"><path class="y3grid crisp" transform="translate(0,474.23)" d="M61,0h422.55" style="stroke: rgb(230, 234, 241); stroke-opacity: 1; stroke-width: 1px;"/><path class="y3grid crisp" transform="translate(0,439.57)" d="M61,0h422.55" style="stroke: rgb(230, 234, 241); stroke-opacity: 1; stroke-width: 1px;"/><path class="y3grid crisp" transform="translate(0,404.9)" d="M61,0h422.55" style="stroke: rgb(230, 234, 241); stroke-opacity: 1; stroke-width: 1px;"/></g></g><g class="zerolinelayer"><path class="y3zl zl crisp" transform="translate(0,508.9)" d="M61,0h422.55" style="stroke: rgb(230, 234, 241); stroke-opacity: 1; stroke-width: 1px;"/></g><g class="layer-between"><g class="shapelayer"/><g class="imagelayer"/></g><path class="xlines-below"/><path class="ylines-below"/><g class="overlines-below"/><g class="xaxislayer-below"/><g class="yaxislayer-below"/><g class="overaxes-below"/><g class="overplot"><g class="x3y3" transform="translate(61,373)" clip-path="url(#clipe17e2bx3y3plot)"><g class="scatterlayer mlayer"><g class="trace scatter tracecd6948" style="stroke-miterlimit: 2; opacity: 1;"><g class="fills"/><g class="errorbars"/><g class="lines"><path class="js-line" d="M24.88,135.9Q45.41,123.09 55.94,122.03C66.13,121.01 77.91,133.04 87.01,128.97C99.87,123.22 105.22,83.07 118.08,73.5C127.18,66.73 139.17,64.7 149.14,66.57C159.95,68.59 171.03,89.81 180.21,87.37C192.75,84.04 198.74,28.3 211.28,24.97C220.46,22.53 231.53,41.14 242.34,45.77C252.31,50.04 264.04,56.17 273.41,52.7C285.37,48.26 294.77,10.23 304.47,11.1C315.71,12.11 324.64,54.28 335.54,73.5C345.45,90.98 354.2,113.35 366.61,122.03Q375.83,128.48 397.67,128.97" style="vector-effect: none; fill: none; stroke: rgb(0, 0, 255); stroke-opacity: 1; stroke-width: 3px; opacity: 1;"/></g><g class="points"><path class="point" transform="translate(24.88,135.9)" d="M3,0A3,3 0 1,1 0,-3A3,3 0 0,1 3,0Z" style="opacity: 1; stroke-width: 0px; fill: rgb(0, 0, 255); fill-opacity: 1;"/><path class="point" transform="translate(55.94,122.03)" d="M3,0A3,3 0 1,1 0,-3A3,3 0 0,1 3,0Z" style="opacity: 1; stroke-width: 0px; fill: rgb(0, 0, 255); fill-opacity: 1;"/><path class="point" transform="translate(87.01,128.97)" d="M3,0A3,3 0 1,1 0,-3A3,3 0 0,1 3,0Z" style="opacity: 1; stroke-width: 0px; fill: rgb(0, 0, 255); fill-opacity: 1;"/><path class="point" transform="translate(118.08,73.5)" d="M3,0A3,3 0 1,1 0,-3A3,3 0 0,1 3,0Z" style="opacity: 1; stroke-width: 0px; fill: rgb(0, 0, 255); fill-opacity: 1;"/><path class="point" transform="translate(149.14,66.57)" d="M3,0A3,3 0 1,1 0,-3A3,3 0 0,1 3,0Z" style="opacity: 1; stroke-width: 0px; fill: rgb(0, 0, 255); fill-opacity: 1;"/><path class="point" transform="translate(180.21,87.37)" d="M3,0A3,3 0 1,1 0,-3A3,3 0 0,1 3,0Z" style="opacity: 1; stroke-width: 0px; fill: rgb(0, 0, 255); fill-opacity: 1;"/><path class="point" transform="translate(211.28,24.97)" d="M3,0A3,3 0 1,1 0,-3A3,3 0 0,1 3,0Z" style="opacity: 1; stroke-width: 0px; fill: rgb(0, 0, 255); fill-opacity: 1;"/><path class="point" transform="translate(242.34,45.77)" d="M3,0A3,3 0 1,1 0,-3A3,3 0 0,1 3,0Z" style="opacity: 1; stroke-width: 0px; fill: rgb(0, 0, 255); fill-opacity: 1;"/><path class="point" transform="translate(273.41,52.7)" d="M3,0A3,3 0 1,1 0,-3A3,3 0 0,1 3,0Z" style="opacity: 1; stroke-width: 0px; fill: rgb(0, 0, 255); fill-opacity: 1;"/><path class="point" transform="translate(304.47,11.1)" d="M3,0A3,3 0 1,1 0,-3A3,3 0 0,1 3,0Z" style="opacity: 1; stroke-width: 0px; fill: rgb(0, 0, 255); fill-opacity: 1;"/><path class="point" transform="translate(335.54,73.5)" d="M3,0A3,3 0 1,1 0,-3A3,3 0 0,1 3,0Z" style="opacity: 1; stroke-width: 0px; fill: rgb(0, 0, 255); fill-opacity: 1;"/><path class="point" transform="translate(366.61,122.03)" d="M3,0A3,3 0 1,1 0,-3A3,3 0 0,1 3,0Z" style="opacity: 1; stroke-width: 0px; fill: rgb(0, 0, 255); fill-opacity: 1;"/><path class="point" transform="translate(397.67,128.97)" d="M3,0A3,3 0 1,1 0,-3A3,3 0 0,1 3,0Z" style="opacity: 1; stroke-width: 0px; fill: rgb(0, 0, 255); fill-opacity: 1;"/></g><g class="text"/></g></g></g></g><path class="xlines-above crisp" d="M0,0" style="fill: none;"/><path class="ylines-above crisp" d="M0,0" style="fill: none;"/><g class="overlines-above"/><g class="xaxislayer-above"><g class="x3tick"><text text-anchor="middle" x="0" y="541" transform="translate(85.88,0)" style="font-family: 'Source Sans', sans-serif; font-size: 12px; fill: rgb(128, 132, 149); fill-opacity: 1; white-space: pre; opacity: 1;">0</text></g><g class="x3tick"><text text-anchor="middle" x="0" y="541" style="font-family: 'Source Sans', sans-serif; font-size: 12px; fill: rgb(128, 132, 149); fill-opacity: 1; white-space: pre; opacity: 1;" transform="translate(116.94,0)">1</text></g><g class="x3tick"><text text-anchor="middle" x="0" y="541" style="font-family: 'Source Sans', sans-serif; font-size: 12px; fill: rgb(128, 132, 149); fill-opacity: 1; white-space: pre; opacity: 1;" transform="translate(148.01,0)">2</text></g><g class="x3tick"><text text-anchor="middle" x="0" y="541" style="font-family: 'Source Sans', sans-serif; font-size: 12px; fill: rgb(128, 132, 149); fill-opacity: 1; white-space: pre; opacity: 1;" transform="translate(179.07999999999998,0)">3</text></g><g class="x3tick"><text text-anchor="middle" x="0" y="541" style="font-family: 'Source Sans', sans-serif; font-size: 12px; fill: rgb(128, 132, 149); fill-opacity: 1; white-space: pre; opacity: 1;" transform="translate(210.14,0)">4</text></g><g class="x3tick"><text text-anchor="middle" x="0" y="541" style="font-family: 'Source Sans', sans-serif; font-size: 12px; fill: rgb(128, 132, 149); fill-opacity: 1; white-space: pre; opacity: 1;" transform="translate(241.21,0)">5</text></g><g class="x3tick"><text text-anchor="middle" x="0" y="541" style="font-family: 'Source Sans', sans-serif; font-size: 12px; fill: rgb(128, 132, 149); fill-opacity: 1; white-space: pre; opacity: 1;" transform="translate(272.28,0)">6</text></g><g class="x3tick"><text text-anchor="middle" x="0" y="541" style="font-family: 'Source Sans', sans-serif; font-size: 12px; fill: rgb(128, 132, 149); fill-opacity: 1; white-space: pre; opacity: 1;" transform="translate(303.34000000000003,0)">7</text></g><g class="x3tick"><text text-anchor="middle" x="0" y="541" style="font-family: 'Source Sans', sans-serif; font-size: 12px; fill: rgb(128, 132, 149); fill-opacity: 1; white-space: pre; opacity: 1;" transform="translate(334.41,0)">8</text></g><g class="x3tick"><text text-anchor="middle" x="0" y="541" style="font-family: 'Source Sans', sans-serif; font-size: 12px; fill: rgb(128, 132, 149); fill-opacity: 1; white-space: pre; opacity: 1;" transform="translate(365.47,0)">9</text></g><g class="x3tick"><text text-anchor="middle" x="0" y="541" style="font-family: 'Source Sans', sans-serif; font-size: 12px; fill: rgb(128, 132, 149); fill-opacity: 1; white-space: pre; opacity: 1;" transform="translate(396.54,0)">10</text></g><g class="x3tick"><text text-anchor="middle" x="0" y="541" style="font-family: 'Source Sans', sans-serif; font-size: 12px; fill: rgb(128, 132, 149); fill-opacity: 1; white-space: pre; opacity: 1;" transform="translate(427.61,0)">11</text></g><g class="x3tick"><text text-anchor="middle" x="0" y="541" style="font-family: 'Source Sans', sans-serif; font-size: 12px; fill: rgb(128, 132, 149); fill-opacity: 1; white-space: pre; opacity: 1;" transform="translate(458.67,0)">12</text></g></g><g class="yaxislayer-above"><g class="y3tick"><text text-anchor="end" x="52" y="4.199999999999999" transform="translate(0,508.9)" style="font-family: 'Source Sans', sans-serif; font-size: 12px; fill: rgb(128, 132, 149); fill-opacity: 1; white-space: pre; opacity: 1;">0</text></g><g class="y3tick"><text text-anchor="end" x="52" y="4.199999999999999" style="font-family: 'Source Sans', sans-serif; font-size: 12px; fill: rgb(128, 132, 149); fill-opacity: 1; white-space: pre; opacity: 1;" transform="translate(0,474.23)">5</text></g><g class="y3tick"><text text-anchor="end" x="52" y="4.199999999999999" style="font-family: 'Source Sans', sans-serif; font-size: 12px; fill: rgb(128, 132, 149); fill-opacity: 1; white-space: pre; opacity: 1;" transform="translate(0,439.57)">10</text></g><g class="y3tick"><text text-anchor="end" x="52" y="4.199999999999999" style="font-family: 'Source Sans', sans-serif; font-size: 12px; fill: rgb(128, 132, 149); fill-opacity: 1; white-space: pre; opacity: 1;" transform="translate(0,404.9)">15</text></g></g><g class="overaxes-above"/></g><g class="subplot x4y4"><g class="layer-subplot"><g class="shapelayer"/><g class="imagelayer"/></g><g class="minor-gridlayer"><g class="x4"/><g class="y4"/></g><g class="gridlayer"><g class="x4"/><g class="y4"><path class="y4grid crisp" transform="translate(0,481.21)" d="M577.45,0h422.54999999999995" style="stroke: rgb(230, 234, 241); stroke-opacity: 1; stroke-width: 1px;"/><path class="y4grid crisp" transform="translate(0,442.42)" d="M577.45,0h422.54999999999995" style="stroke: rgb(230, 234, 241); stroke-opacity: 1; stroke-width: 1px;"/><path class="y4grid crisp" transform="translate(0,403.63)" d="M577.45,0h422.54999999999995" style="stroke: rgb(230, 234, 241); stroke-opacity: 1; stroke-width: 1px;"/></g></g><g class="zerolinelayer"><path class="y4zl zl crisp" transform="translate(0,520)" d="M577.45,0h422.54999999999995" style="stroke: rgb(230, 234, 241); stroke-opacity: 1; stroke-width: 1px;"/></g><g class="layer-between"><g class="shapelayer"/><g class="imagelayer"/></g><path class="xlines-below"/><path class="ylines-below"/><g class="overlines-below"/><g class="xaxislayer-below"/><g class="yaxislayer-below"/><g class="overaxes-below"/><g class="overplot"><g class="x4y4" transform="translate(577.45,373)" clip-path="url(#clipe17e2bx4y4plot)"><g class="barlayer mlayer"><g class="trace bars" style="opacity: 1;"><g class="points"><g class="point"><path d="M0,0Z" style="vector-effect: none; opacity: 1; stroke-width: 0px; fill: rgb(135, 206, 235); fill-opacity: 1;"/></g><g class="point"><path d="M35.75,147V131.48H61.76V147Z" style="vector-effect: none; opacity: 1; stroke-width: 0px; fill: rgb(135, 206, 235); fill-opacity: 1;"/></g><g class="point"><path d="M68.26,147V139.24H94.26V147Z" style="vector-effect: none; opacity: 1; stroke-width: 0px; fill: rgb(135, 206, 235); fill-opacity: 1;"/></g><g class="point"><path d="M100.76,147V77.18H126.76V147Z" style="vector-effect: none; opacity: 1; stroke-width: 0px; fill: rgb(135, 206, 235); fill-opacity: 1;"/></g><g class="point"><path d="M133.27,147V69.42H159.27V147Z" style="vector-effect: none; opacity: 1; stroke-width: 0px; fill: rgb(135, 206, 235); fill-opacity: 1;"/></g><g class="point"><path d="M165.77,147V92.69H191.77V147Z" style="vector-effect: none; opacity: 1; stroke-width: 0px; fill: rgb(135, 206, 235); fill-opacity: 1;"/></g><g class="point"><path d="M198.27,147V22.87H224.28V147Z" style="vector-effect: none; opacity: 1; stroke-width: 0px; fill: rgb(135, 206, 235); fill-opacity: 1;"/></g><g class="point"><path d="M230.78,147V46.14H256.78V147Z" style="vector-effect: none; opacity: 1; stroke-width: 0px; fill: rgb(135, 206, 235); fill-opacity: 1;"/></g><g class="point"><path d="M263.28,147V53.9H289.28V147Z" style="vector-effect: none; opacity: 1; stroke-width: 0px; fill: rgb(135, 206, 235); fill-opacity: 1;"/></g><g class="point"><path d="M295.78,147V7.35H321.79V147Z" style="vector-effect: none; opacity: 1; stroke-width: 0px; fill: rgb(135, 206, 235); fill-opacity: 1;"/></g><g class="point"><path d="M328.29,147V77.18H354.29V147Z" style="vector-effect: none; opacity: 1; stroke-width: 0px; fill: rgb(135, 206, 235); fill-opacity: 1;"/></g><g class="point"><path d="M360.79,147V131.48H386.8V147Z" style="vector-effect: none; opacity: 1; stroke-width: 0px; fill: rgb(135, 206, 235); fill-opacity: 1;"/></g><g class="point"><path d="M393.3,147V139.24H419.3V147Z" style="vector-effect: none; opacity: 1; stroke-width: 0px; fill: rgb(135, 206, 235); fill-opacity: 1;"/></g></g></g></g></g></g><path class="xlines-above crisp" d="M0,0" style="fill: none;"/><path class="ylines-above crisp" d="M0,0" style="fill: none;"/><g class="overlines-above"/><g class="xaxislayer-above"><g class="x4tick"><text text-anchor="middle" x="0" y="541" transform="translate(593.7,0)" style="font-family: 'Source Sans', sans-serif; font-size: 12px; fill: rgb(128, 132, 149); fill-opacity: 1; white-space: pre; opacity: 1;">0</text></g><g class="x4tick"><text text-anchor="middle" x="0" y="541" style="font-family: 'Source Sans', sans-serif; font-size: 12px; fill: rgb(128, 132, 149); fill-opacity: 1; white-space: pre; opacity: 1;" transform="translate(626.21,0)">1</text></g><g class="x4tick"><text text-anchor="middle" x="0" y="541" style="font-family: 'Source Sans', sans-serif; font-size: 12px; fill: rgb(128, 132, 149); fill-opacity: 1; white-space: pre; opacity: 1;" transform="translate(658.71,0)">2</text></g><g class="x4tick"><text text-anchor="middle" x="0" y="541" style="font-family: 'Source Sans', sans-serif; font-size: 12px; fill: rgb(128, 132, 149); fill-opacity: 1; white-space: pre; opacity: 1;" transform="translate(691.21,0)">3</text></g><g class="x4tick"><text text-anchor="middle" x="0" y="541" style="font-family: 'Source Sans', sans-serif; font-size: 12px; fill: rgb(128, 132, 149); fill-opacity: 1; white-space: pre; opacity: 1;" transform="translate(723.72,0)">4</text></g><g class="x4tick"><text text-anchor="middle" x="0" y="541" style="font-family: 'Source Sans', sans-serif; font-size: 12px; fill: rgb(128, 132, 149); fill-opacity: 1; white-space: pre; opacity: 1;" transform="translate(756.22,0)">5</text></g><g class="x4tick"><text text-anchor="middle" x="0" y="541" style="font-family: 'Source Sans', sans-serif; font-size: 12px; fill: rgb(128, 132, 149); fill-opacity: 1; white-space: pre; opacity: 1;" transform="translate(788.72,0)">6</text></g><g class="x4tick"><text text-anchor="middle" x="0" y="541" style="font-family: 'Source Sans', sans-serif; font-size: 12px; fill: rgb(128, 132, 149); fill-opacity: 1; white-space: pre; opacity: 1;" transform="translate(821.23,0)">7</text></g><g class="x4tick"><text text-anchor="middle" x="0" y="541" style="font-family: 'Source Sans', sans-serif; font-size: 12px; fill: rgb(128, 132, 149); fill-opacity: 1; white-space: pre; opacity: 1;" transform="translate(853.73,0)">8</text></g><g class="x4tick"><text text-anchor="middle" x="0" y="541" style="font-family: 'Source Sans', sans-serif; font-size: 12px; fill: rgb(128, 132, 149); fill-opacity: 1; white-space: pre; opacity: 1;" transform="translate(886.24,0)">9</text></g><g class="x4tick"><text text-anchor="middle" x="0" y="541" style="font-family: 'Source Sans', sans-serif; font-size: 12px; fill: rgb(128, 132, 149); fill-opacity: 1; white-space: pre; opacity: 1;" transform="translate(918.74,0)">10</text></g><g class="x4tick"><text text-anchor="middle" x="0" y="541" style="font-family: 'Source Sans', sans-serif; font-size: 12px; fill: rgb(128, 132, 149); fill-opacity: 1; white-space: pre; opacity: 1;" transform="translate(951.24,0)">11</text></g><g class="x4tick"><text text-anchor="middle" x="0" y="541" style="font-family: 'Source Sans', sans-serif; font-size: 12px; fill: rgb(128, 132, 149); fill-opacity: 1; white-space: pre; opacity: 1;" transform="translate(983.75,0)">12</text></g></g><g class="yaxislayer-above"><g class="y4tick"><text text-anchor="end" x="568.45" y="4.199999999999999" transform="translate(0,520)" style="font-family: 'Source Sans', sans-serif; font-size: 12px; fill: rgb(128, 132, 149); fill-opacity: 1; white-space: pre; opacity: 1;">0</text></g><g class="y4tick"><text text-anchor="end" x="568.45" y="4.199999999999999" style="font-family: 'Source Sans', sans-serif; font-size: 12px; fill: rgb(128, 132, 149); fill-opacity: 1; white-space: pre; opacity: 1;" transform="translate(0,481.21)">5</text></g><g class="y4tick"><text text-anchor="end" x="568.45" y="4.199999999999999" style="font-family: 'Source Sans', sans-serif; font-size: 12px; fill: rgb(128, 132, 149); fill-opacity: 1; white-space: pre; opacity: 1;" transform="translate(0,442.42)">10</text></g><g class="y4tick"><text text-anchor="end" x="568.45" y="4.199999999999999" style="font-family: 'Source Sans', sans-serif; font-size: 12px; fill: rgb(128, 132, 149); fill-opacity: 1; white-space: pre; opacity: 1;" transform="translate(0,403.63)">15</text></g></g><g class="overaxes-above"/></g></g><g class="polarlayer"/><g class="smithlayer"/><g class="ternarylayer"/><g class="geolayer"/><g class="funnelarealayer"/><g class="pielayer"/><g class="iciclelayer"/><g class="treemaplayer"/><g class="sunburstlayer"/><g class="glimages"/><defs id="topdefs-e17e2b"><g class="clips"/></defs><g class="layer-above"><g class="imagelayer"/><g class="shapelayer"/></g><g class="infolayer"><g class="g-gtitle"><text class="gtitle" x="4" y="50" text-anchor="start" dy="0em" style="opacity: 1; font-family: 'Source Sans', sans-serif; font-size: 16px; fill: rgb(38, 39, 48); fill-opacity: 1; white-space: pre;"><tspan style="font-weight:bold"><tspan style="font-weight:bold">Innovation Adoption Progress Over Steps</tspan></tspan></text></g><g class="g-xtitle"><text class="xtitle" x="272.275" y="293.3" text-anchor="middle" style="opacity: 1; font-family: 'Source Sans', sans-serif; font-size: 14px; fill: rgb(128, 132, 149); fill-opacity: 1; white-space: pre;">Simulation Step</text></g><g class="g-x2title"><text class="x2title" x="788.725" y="293.3" text-anchor="middle" style="opacity: 1; font-family: 'Source Sans', sans-serif; font-size: 14px; fill: rgb(128, 132, 149); fill-opacity: 1; white-space: pre;">Simulation Step</text></g><g class="g-x3title"><text class="x3title" x="272.275" y="566.3" text-anchor="middle" style="opacity: 1; font-family: 'Source Sans', sans-serif; font-size: 14px; fill: rgb(128, 132, 149); fill-opacity: 1; white-space: pre;">Simulation Step</text></g><g class="g-x4title"><text class="x4title" x="788.725" y="566.3" text-anchor="middle" style="opacity: 1; font-family: 'Source Sans', sans-serif; font-size: 14px; fill: rgb(128, 132, 149); fill-opacity: 1; white-space: pre;">Simulation Step</text></g><g class="g-ytitle" transform="translate(0.7001953125,0)"><text class="ytitle" transform="rotate(-90,13.699609375000001,173.50000000000006)" x="13.699609375000001" y="173.50000000000006" text-anchor="middle" style="opacity: 1; font-family: 'Source Sans', sans-serif; font-size: 14px; fill: rgb(128, 132, 149); fill-opacity: 1; white-space: pre;">Cumulative Adoption Rate (%)</text></g><g class="g-y2title"><text class="y2title" transform="rotate(-90,530.1498046875,173.50000000000006)" x="530.1498046875" y="173.50000000000006" text-anchor="middle" style="opacity: 1; font-family: 'Source Sans', sans-serif; font-size: 14px; fill: rgb(128, 132, 149); fill-opacity: 1; white-space: pre;">Cumulative Adoptions</text></g><g class="g-y3title"><text class="y3title" transform="rotate(-90,19.6625,446.5)" x="19.6625" y="446.5" text-anchor="middle" style="opacity: 1; font-family: 'Source Sans', sans-serif; font-size: 14px; fill: rgb(128, 132, 149); fill-opacity: 1; white-space: pre;">Adoption Rate (%)</text></g><g class="g-y4title"><text class="y4title" transform="rotate(-90,536.1126953125,446.5)" x="536.1126953125" y="446.5" text-anchor="middle" style="opacity: 1; font-family: 'Source Sans', sans-serif; font-size: 14px; fill: rgb(128, 132, 149); fill-opacity: 1; white-space: pre;">Adoptions</text></g><g class="annotation" data-index="0" style="opacity: 1;"><g class="annotation-text-g" transform="rotate(0,272.275,87.00000000000003)"><g class="cursor-pointer" transform="translate(154,74)"><rect class="bg" x="0.5" y="0.5" width="236" height="25" style="stroke-width: 1px; stroke: rgb(0, 0, 0); stroke-opacity: 0; fill: rgb(0, 0, 0); fill-opacity: 0;"/><text class="annotation-text" text-anchor="middle" x="118.6318359375" y="18" style="font-family: 'Source Sans', sans-serif; font-size: 16px; fill: rgb(128, 132, 149); fill-opacity: 1; white-space: pre;">Cumulative Adoption Rate per Step</text></g></g></g><g class="annotation" data-index="1" style="opacity: 1;"><g class="annotation-text-g" transform="rotate(0,788.725,87.00000000000003)"><g class="cursor-pointer" transform="translate(683,74)"><rect class="bg" x="0.5" y="0.5" width="210" height="25" style="stroke-width: 1px; stroke: rgb(0, 0, 0); stroke-opacity: 0; fill: rgb(0, 0, 0); fill-opacity: 0;"/><text class="annotation-text" text-anchor="middle" x="105.3818359375" y="18" style="font-family: 'Source Sans', sans-serif; font-size: 16px; fill: rgb(128, 132, 149); fill-opacity: 1; white-space: pre;">Cumulative Adoptions per Step</text></g></g></g><g class="annotation" data-index="2" style="opacity: 1;"><g class="annotation-text-g" transform="rotate(0,272.275,360)"><g class="cursor-pointer" transform="translate(193,347)"><rect class="bg" x="0.5" y="0.5" width="158" height="25" style="stroke-width: 1px; stroke: rgb(0, 0, 0); stroke-opacity: 0; fill: rgb(0, 0, 0); fill-opacity: 0;"/><text class="annotation-text" text-anchor="middle" x="79.6943359375" y="18" style="font-family: 'Source Sans', sans-serif; font-size: 16px; fill: rgb(128, 132, 149); fill-opacity: 1; white-space: pre;">Adoption Rate per Step</text></g></g></g><g class="annotation" data-index="3" style="opacity: 1;"><g class="annotation-text-g" transform="rotate(0,788.725,360)"><g class="cursor-pointer" transform="translate(723,347)"><rect class="bg" x="0.5" y="0.5" width="131" height="25" style="stroke-width: 1px; stroke: rgb(0, 0, 0); stroke-opacity: 0; fill: rgb(0, 0, 0); fill-opacity: 0;"/><text class="annotation-text" text-anchor="middle" x="66.4375" y="18" style="font-family: 'Source Sans', sans-serif; font-size: 16px; fill: rgb(128, 132, 149); fill-opacity: 1; white-space: pre;">Adoptions per Step</text></g></g></g></g></svg>