<svg class="main-svg" xmlns="http://www.w3.org/2000/svg" xmlns:xlink="http://www.w3.org/1999/xlink" width="1000" height="600" style="" viewBox="0 0 1000 600"><rect x="0" y="0" width="1000" height="600" style="fill: rgb(255, 255, 255); fill-opacity: 1;"/><defs id="defs-f8a064"><g class="clips"><clipPath id="clipf8a064xyplot" class="plotclip"><rect width="422.55" height="147"/></clipPath><clipPath id="clipf8a064x2y2plot" class="plotclip"><rect width="422.54999999999995" height="147"/></clipPath><clipPath id="clipf8a064x3y3plot" class="plotclip"><rect width="422.55" height="147"/></clipPath><clipPath id="clipf8a064x4y4plot" class="plotclip"><rect width="422.54999999999995" height="147"/></clipPath><clipPath class="axesclip" id="clipf8a064x"><rect x="61" y="0" width="422.55" height="600"/></clipPath><clipPath class="axesclip" id="clipf8a064y"><rect x="0" y="100.00000000000004" width="1000" height="147"/></clipPath><clipPath class="axesclip" id="clipf8a064xy"><rect x="61" y="100.00000000000004" width="422.55" height="147"/></clipPath><clipPath class="axesclip" id="clipf8a064y2"><rect x="0" y="100.00000000000004" width="1000" height="147"/></clipPath><clipPath class="axesclip" id="clipf8a064xy2"><rect x="61" y="100.00000000000004" width="422.55" height="147"/></clipPath><clipPath class="axesclip" id="clipf8a064y3"><rect x="0" y="373" width="1000" height="147"/></clipPath><clipPath class="axesclip" id="clipf8a064xy3"><rect x="61" y="373" width="422.55" height="147"/></clipPath><clipPath class="axesclip" id="clipf8a064y4"><rect x="0" y="373" width="1000" height="147"/></clipPath><clipPath class="axesclip" id="clipf8a064xy4"><rect x="61" y="373" width="422.55" height="147"/></clipPath><clipPath class="axesclip" id="clipf8a064x2"><rect x="577.45" y="0" width="422.54999999999995" height="600"/></clipPath><clipPath class="axesclip" id="clipf8a064x2y"><rect x="577.45" y="100.00000000000004" width="422.54999999999995" height="147"/></clipPath><clipPath class="axesclip" id="clipf8a064x2y2"><rect x="577.45" y="100.00000000000004" width="422.54999999999995" height="147"/></clipPath><clipPath class="axesclip" id="clipf8a064x2y3"><rect x="577.45" y="373" width="422.54999999999995" height="147"/></clipPath><clipPath class="axesclip" id="clipf8a064x2y4"><rect x="577.45" y="373" width="422.54999999999995" height="147"/></clipPath><clipPath class="axesclip" id="clipf8a064x3"><rect x="61" y="0" width="422.55" height="600"/></clipPath><clipPath class="axesclip" id="clipf8a064x3y"><rect x="61" y="100.00000000000004" width="422.55" height="147"/></clipPath><clipPath class="axesclip" id="clipf8a064x3y2"><rect x="61" y="100.00000000000004" width="422.55" height="147"/></clipPath><clipPath class="axesclip" id="clipf8a064x3y3"><rect x="61" y="373" width="422.55" height="147"/></clipPath><clipPath class="axesclip" id="clipf8a064x3y4"><rect x="61" y="373" width="422.55" height="147"/></clipPath><clipPath class="axesclip" id="clipf8a064x4"><rect x="577.45" y="0" width="422.54999999999995" height="600"/></clipPath><clipPath class="axesclip" id="clipf8a064x4y"><rect x="577.45" y="100.00000000000004" width="422.54999999999995" height="147"/></clipPath><clipPath class="axesclip" id="clipf8a064x4y2"><rect x="577.45" y="100.00000000000004" width="422.54999999999995" height="147"/></clipPath><clipPath class="axesclip" id="clipf8a064x4y3"><rect x="577.45" y="373" width="422.54999999999995" height="147"/></clipPath><clipPath class="axesclip" id="clipf8a064x4y4"><rect x="577.45" y="373" width="422.54999999999995" height="147"/></clipPath></g><g class="gradients"/><g class="patterns"/></defs><g class="bglayer"/><g class="layer-below"><g class="imagelayer"/><g class="shapelayer"/></g><g class="cartesianlayer"><g class="subplot xy"><g class="layer-subplot"><g class="shapelayer"/><g class="imagelayer"/></g><g class="minor-gridlayer"><g class="x"/><g class="y"/></g><g class="gridlayer"><g class="x"/><g class="y"><path class="ygrid crisp" transform="translate(0,223.42000000000004)" d="M61,0h422.55" style="stroke: rgb(230, 234, 241); stroke-opacity: 1; stroke-width: 1px;"/><path class="ygrid crisp" transform="translate(0,210.94000000000005)" d="M61,0h422.55" style="stroke: rgb(230, 234, 241); stroke-opacity: 1; stroke-width: 1px;"/><path class="ygrid crisp" transform="translate(0,198.46000000000004)" d="M61,0h422.55" style="stroke: rgb(230, 234, 241); stroke-opacity: 1; stroke-width: 1px;"/><path class="ygrid crisp" transform="translate(0,185.98000000000005)" d="M61,0h422.55" style="stroke: rgb(230, 234, 241); stroke-opacity: 1; stroke-width: 1px;"/><path class="ygrid crisp" transform="translate(0,173.50000000000006)" d="M61,0h422.55" style="stroke: rgb(230, 234, 241); stroke-opacity: 1; stroke-width: 1px;"/><path class="ygrid crisp" transform="translate(0,161.02000000000004)" d="M61,0h422.55" style="stroke: rgb(230, 234, 241); stroke-opacity: 1; stroke-width: 1px;"/><path class="ygrid crisp" transform="translate(0,148.54000000000005)" d="M61,0h422.55" style="stroke: rgb(230, 234, 241); stroke-opacity: 1; stroke-width: 1px;"/><path class="ygrid crisp" transform="translate(0,136.06000000000006)" d="M61,0h422.55" style="stroke: rgb(230, 234, 241); stroke-opacity: 1; stroke-width: 1px;"/><path class="ygrid crisp" transform="translate(0,123.58000000000004)" d="M61,0h422.55" style="stroke: rgb(230, 234, 241); stroke-opacity: 1; stroke-width: 1px;"/><path class="ygrid crisp" transform="translate(0,111.10000000000004)" d="M61,0h422.55" style="stroke: rgb(230, 234, 241); stroke-opacity: 1; stroke-width: 1px;"/></g></g><g class="zerolinelayer"><path class="yzl zl crisp" transform="translate(0,235.90000000000003)" d="M61,0h422.55" style="stroke: rgb(230, 234, 241); stroke-opacity: 1; stroke-width: 1px;"/></g><g class="layer-between"><g class="shapelayer"/><g class="imagelayer"/></g><path class="xlines-below"/><path class="ylines-below"/><g class="overlines-below"/><g class="xaxislayer-below"/><g class="yaxislayer-below"/><g class="overaxes-below"/><g class="overplot"><g class="xy" transform="translate(61,100.00000000000004)" clip-path="url(#clipf8a064xyplot)"><g class="scatterlayer mlayer"><g class="trace scatter trace18c2c3" style="stroke-miterlimit: 2; opacity: 1;"><g class="fills"/><g class="errorbars"/><g class="lines"><path class="js-line" d="M24.88,135.9Q45.58,134.02 55.94,133.4C66.29,132.78 76.67,132.99 87.01,132.16C97.38,131.33 107.78,130.27 118.08,128.41C128.49,126.53 138.84,123.81 149.14,120.92C159.55,118 169.8,113.86 180.21,110.94C190.51,108.05 201.11,107.08 211.28,103.45C221.84,99.68 232.03,93.66 242.34,88.48C252.74,83.26 263.19,78.19 273.41,72.25C283.9,66.15 294.16,59.11 304.47,52.28C314.87,45.39 324.99,37.39 335.54,31.07C345.72,24.97 355.94,18.15 366.61,14.84Q376.69,11.72 397.67,11.1" style="vector-effect: none; fill: none; stroke: rgb(0, 0, 255); stroke-opacity: 1; stroke-width: 3px; opacity: 1;"/></g><g class="points"><path class="point" transform="translate(24.88,135.9)" d="M3,0A3,3 0 1,1 0,-3A3,3 0 0,1 3,0Z" style="opacity: 1; stroke-width: 0px; fill: rgb(0, 0, 255); fill-opacity: 1;"/><path class="point" transform="translate(55.94,133.4)" d="M3,0A3,3 0 1,1 0,-3A3,3 0 0,1 3,0Z" style="opacity: 1; stroke-width: 0px; fill: rgb(0, 0, 255); fill-opacity: 1;"/><path class="point" transform="translate(87.01,132.16)" d="M3,0A3,3 0 1,1 0,-3A3,3 0 0,1 3,0Z" style="opacity: 1; stroke-width: 0px; fill: rgb(0, 0, 255); fill-opacity: 1;"/><path class="point" transform="translate(118.08,128.41)" d="M3,0A3,3 0 1,1 0,-3A3,3 0 0,1 3,0Z" style="opacity: 1; stroke-width: 0px; fill: rgb(0, 0, 255); fill-opacity: 1;"/><path class="point" transform="translate(149.14,120.92)" d="M3,0A3,3 0 1,1 0,-3A3,3 0 0,1 3,0Z" style="opacity: 1; stroke-width: 0px; fill: rgb(0, 0, 255); fill-opacity: 1;"/><path class="point" transform="translate(180.21,110.94)" d="M3,0A3,3 0 1,1 0,-3A3,3 0 0,1 3,0Z" style="opacity: 1; stroke-width: 0px; fill: rgb(0, 0, 255); fill-opacity: 1;"/><path class="point" transform="translate(211.28,103.45)" d="M3,0A3,3 0 1,1 0,-3A3,3 0 0,1 3,0Z" style="opacity: 1; stroke-width: 0px; fill: rgb(0, 0, 255); fill-opacity: 1;"/><path class="point" transform="translate(242.34,88.48)" d="M3,0A3,3 0 1,1 0,-3A3,3 0 0,1 3,0Z" style="opacity: 1; stroke-width: 0px; fill: rgb(0, 0, 255); fill-opacity: 1;"/><path class="point" transform="translate(273.41,72.25)" d="M3,0A3,3 0 1,1 0,-3A3,3 0 0,1 3,0Z" style="opacity: 1; stroke-width: 0px; fill: rgb(0, 0, 255); fill-opacity: 1;"/><path class="point" transform="translate(304.47,52.28)" d="M3,0A3,3 0 1,1 0,-3A3,3 0 0,1 3,0Z" style="opacity: 1; stroke-width: 0px; fill: rgb(0, 0, 255); fill-opacity: 1;"/><path class="point" transform="translate(335.54,31.07)" d="M3,0A3,3 0 1,1 0,-3A3,3 0 0,1 3,0Z" style="opacity: 1; stroke-width: 0px; fill: rgb(0, 0, 255); fill-opacity: 1;"/><path class="point" transform="translate(366.61,14.84)" d="M3,0A3,3 0 1,1 0,-3A3,3 0 0,1 3,0Z" style="opacity: 1; stroke-width: 0px; fill: rgb(0, 0, 255); fill-opacity: 1;"/><path class="point" transform="translate(397.67,11.1)" d="M3,0A3,3 0 1,1 0,-3A3,3 0 0,1 3,0Z" style="opacity: 1; stroke-width: 0px; fill: rgb(0, 0, 255); fill-opacity: 1;"/></g><g class="text"/></g></g></g></g><path class="xlines-above crisp" d="M0,0" style="fill: none;"/><path class="ylines-above crisp" d="M0,0" style="fill: none;"/><g class="overlines-above"/><g class="xaxislayer-above"><g class="xtick"><text text-anchor="middle" x="0" y="268.00000000000006" transform="translate(85.88,0)" style="font-family: 'Source Sans', sans-serif; font-size: 12px; fill: rgb(128, 132, 149); fill-opacity: 1; white-space: pre; opacity: 1;">0</text></g><g class="xtick"><text text-anchor="middle" x="0" y="268.00000000000006" style="font-family: 'Source Sans', sans-serif; font-size: 12px; fill: rgb(128, 132, 149); fill-opacity: 1; white-space: pre; opacity: 1;" transform="translate(116.94,0)">1</text></g><g class="xtick"><text text-anchor="middle" x="0" y="268.00000000000006" style="font-family: 'Source Sans', sans-serif; font-size: 12px; fill: rgb(128, 132, 149); fill-opacity: 1; white-space: pre; opacity: 1;" transform="translate(148.01,0)">2</text></g><g class="xtick"><text text-anchor="middle" x="0" y="268.00000000000006" style="font-family: 'Source Sans', sans-serif; font-size: 12px; fill: rgb(128, 132, 149); fill-opacity: 1; white-space: pre; opacity: 1;" transform="translate(179.07999999999998,0)">3</text></g><g class="xtick"><text text-anchor="middle" x="0" y="268.00000000000006" style="font-family: 'Source Sans', sans-serif; font-size: 12px; fill: rgb(128, 132, 149); fill-opacity: 1; white-space: pre; opacity: 1;" transform="translate(210.14,0)">4</text></g><g class="xtick"><text text-anchor="middle" x="0" y="268.00000000000006" style="font-family: 'Source Sans', sans-serif; font-size: 12px; fill: rgb(128, 132, 149); fill-opacity: 1; white-space: pre; opacity: 1;" transform="translate(241.21,0)">5</text></g><g class="xtick"><text text-anchor="middle" x="0" y="268.00000000000006" style="font-family: 'Source Sans', sans-serif; font-size: 12px; fill: rgb(128, 132, 149); fill-opacity: 1; white-space: pre; opacity: 1;" transform="translate(272.28,0)">6</text></g><g class="xtick"><text text-anchor="middle" x="0" y="268.00000000000006" style="font-family: 'Source Sans', sans-serif; font-size: 12px; fill: rgb(128, 132, 149); fill-opacity: 1; white-space: pre; opacity: 1;" transform="translate(303.34000000000003,0)">7</text></g><g class="xtick"><text text-anchor="middle" x="0" y="268.00000000000006" style="font-family: 'Source Sans', sans-serif; font-size: 12px; fill: rgb(128, 132, 149); fill-opacity: 1; white-space: pre; opacity: 1;" transform="translate(334.41,0)">8</text></g><g class="xtick"><text text-anchor="middle" x="0" y="268.00000000000006" style="font-family: 'Source Sans', sans-serif; font-size: 12px; fill: rgb(128, 132, 149); fill-opacity: 1; white-space: pre; opacity: 1;" transform="translate(365.47,0)">9</text></g><g class="xtick"><text text-anchor="middle" x="0" y="268.00000000000006" style="font-family: 'Source Sans', sans-serif; font-size: 12px; fill: rgb(128, 132, 149); fill-opacity: 1; white-space: pre; opacity: 1;" transform="translate(396.54,0)">10</text></g><g class="xtick"><text text-anchor="middle" x="0" y="268.00000000000006" style="font-family: 'Source Sans', sans-serif; font-size: 12px; fill: rgb(128, 132, 149); fill-opacity: 1; white-space: pre; opacity: 1;" transform="translate(427.61,0)">11</text></g><g class="xtick"><text text-anchor="middle" x="0" y="268.00000000000006" style="font-family: 'Source Sans', sans-serif; font-size: 12px; fill: rgb(128, 132, 149); fill-opacity: 1; white-space: pre; opacity: 1;" transform="translate(458.67,0)">12</text></g></g><g class="yaxislayer-above"><g class="ytick"><text text-anchor="end" x="52" y="4.199999999999999" transform="translate(0,235.90000000000003)" style="font-family: 'Source Sans', sans-serif; font-size: 12px; fill: rgb(128, 132, 149); fill-opacity: 1; white-space: pre; opacity: 1;">0</text></g><g class="ytick"><text text-anchor="end" x="52" y="4.199999999999999" style="font-family: 'Source Sans', sans-serif; font-size: 12px; fill: rgb(128, 132, 149); fill-opacity: 1; white-space: pre; opacity: 1;" transform="translate(0,223.42000000000004)">10</text></g><g class="ytick"><text text-anchor="end" x="52" y="4.199999999999999" style="font-family: 'Source Sans', sans-serif; font-size: 12px; fill: rgb(128, 132, 149); fill-opacity: 1; white-space: pre; opacity: 1;" transform="translate(0,210.94000000000005)">20</text></g><g class="ytick"><text text-anchor="end" x="52" y="4.199999999999999" style="font-family: 'Source Sans', sans-serif; font-size: 12px; fill: rgb(128, 132, 149); fill-opacity: 1; white-space: pre; opacity: 1;" transform="translate(0,198.46000000000004)">30</text></g><g class="ytick"><text text-anchor="end" x="52" y="4.199999999999999" style="font-family: 'Source Sans', sans-serif; font-size: 12px; fill: rgb(128, 132, 149); fill-opacity: 1; white-space: pre; opacity: 1;" transform="translate(0,185.98000000000005)">40</text></g><g class="ytick"><text text-anchor="end" x="52" y="4.199999999999999" style="font-family: 'Source Sans', sans-serif; font-size: 12px; fill: rgb(128, 132, 149); fill-opacity: 1; white-space: pre; opacity: 1;" transform="translate(0,173.50000000000006)">50</text></g><g class="ytick"><text text-anchor="end" x="52" y="4.199999999999999" style="font-family: 'Source Sans', sans-serif; font-size: 12px; fill: rgb(128, 132, 149); fill-opacity: 1; white-space: pre; opacity: 1;" transform="translate(0,161.02000000000004)">60</text></g><g class="ytick"><text text-anchor="end" x="52" y="4.199999999999999" style="font-family: 'Source Sans', sans-serif; font-size: 12px; fill: rgb(128, 132, 149); fill-opacity: 1; white-space: pre; opacity: 1;" transform="translate(0,148.54000000000005)">70</text></g><g class="ytick"><text text-anchor="end" x="52" y="4.199999999999999" style="font-family: 'Source Sans', sans-serif; font-size: 12px; fill: rgb(128, 132, 149); fill-opacity: 1; white-space: pre; opacity: 1;" transform="translate(0,136.06000000000006)">80</text></g><g class="ytick"><text text-anchor="end" x="52" y="4.199999999999999" style="font-family: 'Source Sans', sans-serif; font-size: 12px; fill: rgb(128, 132, 149); fill-opacity: 1; white-space: pre; opacity: 1;" transform="translate(0,123.58000000000004)">90</text></g><g class="ytick"><text text-anchor="end" x="52" y="4.199999999999999" style="font-family: 'Source Sans', sans-serif; font-size: 12px; fill: rgb(128, 132, 149); fill-opacity: 1; white-space: pre; opacity: 1;" transform="translate(0,111.10000000000004)">100</text></g></g><g class="overaxes-above"/></g><g class="subplot x2y2"><g class="layer-subplot"><g class="shapelayer"/><g class="imagelayer"/></g><g class="minor-gridlayer"><g class="x2"/><g class="y2"/></g><g class="gridlayer"><g class="x2"/><g class="y2"><path class="y2grid crisp" transform="translate(0,233.04000000000002)" d="M577.45,0h422.54999999999995" style="stroke: rgb(230, 234, 241); stroke-opacity: 1; stroke-width: 1px;"/><path class="y2grid crisp" transform="translate(0,219.07000000000005)" d="M577.45,0h422.54999999999995" style="stroke: rgb(230, 234, 241); stroke-opacity: 1; stroke-width: 1px;"/><path class="y2grid crisp" transform="translate(0,205.11000000000004)" d="M577.45,0h422.54999999999995" style="stroke: rgb(230, 234, 241); stroke-opacity: 1; stroke-width: 1px;"/><path class="y2grid crisp" transform="translate(0,191.14000000000004)" d="M577.45,0h422.54999999999995" style="stroke: rgb(230, 234, 241); stroke-opacity: 1; stroke-width: 1px;"/><path class="y2grid crisp" transform="translate(0,177.18000000000006)" d="M577.45,0h422.54999999999995" style="stroke: rgb(230, 234, 241); stroke-opacity: 1; stroke-width: 1px;"/><path class="y2grid crisp" transform="translate(0,163.21000000000004)" d="M577.45,0h422.54999999999995" style="stroke: rgb(230, 234, 241); stroke-opacity: 1; stroke-width: 1px;"/><path class="y2grid crisp" transform="translate(0,149.25000000000006)" d="M577.45,0h422.54999999999995" style="stroke: rgb(230, 234, 241); stroke-opacity: 1; stroke-width: 1px;"/><path class="y2grid crisp" transform="translate(0,135.28000000000003)" d="M577.45,0h422.54999999999995" style="stroke: rgb(230, 234, 241); stroke-opacity: 1; stroke-width: 1px;"/><path class="y2grid crisp" transform="translate(0,121.32000000000005)" d="M577.45,0h422.54999999999995" style="stroke: rgb(230, 234, 241); stroke-opacity: 1; stroke-width: 1px;"/><path class="y2grid crisp" transform="translate(0,107.35000000000004)" d="M577.45,0h422.54999999999995" style="stroke: rgb(230, 234, 241); stroke-opacity: 1; stroke-width: 1px;"/></g></g><g class="zerolinelayer"><path class="y2zl zl crisp" transform="translate(0,247.00000000000006)" d="M577.45,0h422.54999999999995" style="stroke: rgb(230, 234, 241); stroke-opacity: 1; stroke-width: 1px;"/></g><g class="layer-between"><g class="shapelayer"/><g class="imagelayer"/></g><path class="xlines-below"/><path class="ylines-below"/><g class="overlines-below"/><g class="xaxislayer-below"/><g class="yaxislayer-below"/><g class="overaxes-below"/><g class="overplot"><g class="x2y2" transform="translate(577.45,100.00000000000004)" clip-path="url(#clipf8a064x2y2plot)"><g class="barlayer mlayer"><g class="trace bars" style="opacity: 1;"><g class="points"><g class="point"><path d="M0,0Z" style="vector-effect: none; opacity: 1; stroke-width: 0px; fill: rgb(135, 206, 235); fill-opacity: 1;"/></g><g class="point"><path d="M35.75,147V144.21H61.76V147Z" style="vector-effect: none; opacity: 1; stroke-width: 0px; fill: rgb(135, 206, 235); fill-opacity: 1;"/></g><g class="point"><path d="M68.26,147V142.81H94.26V147Z" style="vector-effect: none; opacity: 1; stroke-width: 0px; fill: rgb(135, 206, 235); fill-opacity: 1;"/></g><g class="point"><path d="M100.76,147V138.62H126.76V147Z" style="vector-effect: none; opacity: 1; stroke-width: 0px; fill: rgb(135, 206, 235); fill-opacity: 1;"/></g><g class="point"><path d="M133.27,147V130.24H159.27V147Z" style="vector-effect: none; opacity: 1; stroke-width: 0px; fill: rgb(135, 206, 235); fill-opacity: 1;"/></g><g class="point"><path d="M165.77,147V119.07H191.77V147Z" style="vector-effect: none; opacity: 1; stroke-width: 0px; fill: rgb(135, 206, 235); fill-opacity: 1;"/></g><g class="point"><path d="M198.27,147V110.69H224.28V147Z" style="vector-effect: none; opacity: 1; stroke-width: 0px; fill: rgb(135, 206, 235); fill-opacity: 1;"/></g><g class="point"><path d="M230.78,147V93.93H256.78V147Z" style="vector-effect: none; opacity: 1; stroke-width: 0px; fill: rgb(135, 206, 235); fill-opacity: 1;"/></g><g class="point"><path d="M263.28,147V75.78H289.28V147Z" style="vector-effect: none; opacity: 1; stroke-width: 0px; fill: rgb(135, 206, 235); fill-opacity: 1;"/></g><g class="point"><path d="M295.78,147V53.43H321.79V147Z" style="vector-effect: none; opacity: 1; stroke-width: 0px; fill: rgb(135, 206, 235); fill-opacity: 1;"/></g><g class="point"><path d="M328.29,147V29.69H354.29V147Z" style="vector-effect: none; opacity: 1; stroke-width: 0px; fill: rgb(135, 206, 235); fill-opacity: 1;"/></g><g class="point"><path d="M360.79,147V11.54H386.8V147Z" style="vector-effect: none; opacity: 1; stroke-width: 0px; fill: rgb(135, 206, 235); fill-opacity: 1;"/></g><g class="point"><path d="M393.3,147V7.35H419.3V147Z" style="vector-effect: none; opacity: 1; stroke-width: 0px; fill: rgb(135, 206, 235); fill-opacity: 1;"/></g></g></g></g></g></g><path class="xlines-above crisp" d="M0,0" style="fill: none;"/><path class="ylines-above crisp" d="M0,0" style="fill: none;"/><g class="overlines-above"/><g class="xaxislayer-above"><g class="x2tick"><text text-anchor="middle" x="0" y="268.00000000000006" transform="translate(593.7,0)" style="font-family: 'Source Sans', sans-serif; font-size: 12px; fill: rgb(128, 132, 149); fill-opacity: 1; white-space: pre; opacity: 1;">0</text></g><g class="x2tick"><text text-anchor="middle" x="0" y="268.00000000000006" style="font-family: 'Source Sans', sans-serif; font-size: 12px; fill: rgb(128, 132, 149); fill-opacity: 1; white-space: pre; opacity: 1;" transform="translate(626.21,0)">1</text></g><g class="x2tick"><text text-anchor="middle" x="0" y="268.00000000000006" style="font-family: 'Source Sans', sans-serif; font-size: 12px; fill: rgb(128, 132, 149); fill-opacity: 1; white-space: pre; opacity: 1;" transform="translate(658.71,0)">2</text></g><g class="x2tick"><text text-anchor="middle" x="0" y="268.00000000000006" style="font-family: 'Source Sans', sans-serif; font-size: 12px; fill: rgb(128, 132, 149); fill-opacity: 1; white-space: pre; opacity: 1;" transform="translate(691.21,0)">3</text></g><g class="x2tick"><text text-anchor="middle" x="0" y="268.00000000000006" style="font-family: 'Source Sans', sans-serif; font-size: 12px; fill: rgb(128, 132, 149); fill-opacity: 1; white-space: pre; opacity: 1;" transform="translate(723.72,0)">4</text></g><g class="x2tick"><text text-anchor="middle" x="0" y="268.00000000000006" style="font-family: 'Source Sans', sans-serif; font-size: 12px; fill: rgb(128, 132, 149); fill-opacity: 1; white-space: pre; opacity: 1;" transform="translate(756.22,0)">5</text></g><g class="x2tick"><text text-anchor="middle" x="0" y="268.00000000000006" style="font-family: 'Source Sans', sans-serif; font-size: 12px; fill: rgb(128, 132, 149); fill-opacity: 1; white-space: pre; opacity: 1;" transform="translate(788.72,0)">6</text></g><g class="x2tick"><text text-anchor="middle" x="0" y="268.00000000000006" style="font-family: 'Source Sans', sans-serif; font-size: 12px; fill: rgb(128, 132, 149); fill-opacity: 1; white-space: pre; opacity: 1;" transform="translate(821.23,0)">7</text></g><g class="x2tick"><text text-anchor="middle" x="0" y="268.00000000000006" style="font-family: 'Source Sans', sans-serif; font-size: 12px; fill: rgb(128, 132, 149); fill-opacity: 1; white-space: pre; opacity: 1;" transform="translate(853.73,0)">8</text></g><g class="x2tick"><text text-anchor="middle" x="0" y="268.00000000000006" style="font-family: 'Source Sans', sans-serif; font-size: 12px; fill: rgb(128, 132, 149); fill-opacity: 1; white-space: pre; opacity: 1;" transform="translate(886.24,0)">9</text></g><g class="x2tick"><text text-anchor="middle" x="0" y="268.00000000000006" style="font-family: 'Source Sans', sans-serif; font-size: 12px; fill: rgb(128, 132, 149); fill-opacity: 1; white-space: pre; opacity: 1;" transform="translate(918.74,0)">10</text></g><g class="x2tick"><text text-anchor="middle" x="0" y="268.00000000000006" style="font-family: 'Source Sans', sans-serif; font-size: 12px; fill: rgb(128, 132, 149); fill-opacity: 1; white-space: pre; opacity: 1;" transform="translate(951.24,0)">11</text></g><g class="x2tick"><text text-anchor="middle" x="0" y="268.00000000000006" style="font-family: 'Source Sans', sans-serif; font-size: 12px; fill: rgb(128, 132, 149); fill-opacity: 1; white-space: pre; opacity: 1;" transform="translate(983.75,0)">12</text></g></g><g class="yaxislayer-above"><g class="y2tick"><text text-anchor="end" x="568.45" y="4.199999999999999" transform="translate(0,247.00000000000006)" style="font-family: 'Source Sans', sans-serif; font-size: 12px; fill: rgb(128, 132, 149); fill-opacity: 1; white-space: pre; opacity: 1;">0</text></g><g class="y2tick"><text text-anchor="end" x="568.45" y="4.199999999999999" style="font-family: 'Source Sans', sans-serif; font-size: 12px; fill: rgb(128, 132, 149); fill-opacity: 1; white-space: pre; opacity: 1;" transform="translate(0,233.04000000000002)">10</text></g><g class="y2tick"><text text-anchor="end" x="568.45" y="4.199999999999999" style="font-family: 'Source Sans', sans-serif; font-size: 12px; fill: rgb(128, 132, 149); fill-opacity: 1; white-space: pre; opacity: 1;" transform="translate(0,219.07000000000005)">20</text></g><g class="y2tick"><text text-anchor="end" x="568.45" y="4.199999999999999" style="font-family: 'Source Sans', sans-serif; font-size: 12px; fill: rgb(128, 132, 149); fill-opacity: 1; white-space: pre; opacity: 1;" transform="translate(0,205.11000000000004)">30</text></g><g class="y2tick"><text text-anchor="end" x="568.45" y="4.199999999999999" style="font-family: 'Source Sans', sans-serif; font-size: 12px; fill: rgb(128, 132, 149); fill-opacity: 1; white-space: pre; opacity: 1;" transform="translate(0,191.14000000000004)">40</text></g><g class="y2tick"><text text-anchor="end" x="568.45" y="4.199999999999999" style="font-family: 'Source Sans', sans-serif; font-size: 12px; fill: rgb(128, 132, 149); fill-opacity: 1; white-space: pre; opacity: 1;" transform="translate(0,177.18000000000006)">50</text></g><g class="y2tick"><text text-anchor="end" x="568.45" y="4.199999999999999" style="font-family: 'Source Sans', sans-serif; font-size: 12px; fill: rgb(128, 132, 149); fill-opacity: 1; white-space: pre; opacity: 1;" transform="translate(0,163.21000000000004)">60</text></g><g class="y2tick"><text text-anchor="end" x="568.45" y="4.199999999999999" style="font-family: 'Source Sans', sans-serif; font-size: 12px; fill: rgb(128, 132, 149); fill-opacity: 1; white-space: pre; opacity: 1;" transform="translate(0,149.25000000000006)">70</text></g><g class="y2tick"><text text-anchor="end" x="568.45" y="4.199999999999999" style="font-family: 'Source Sans', sans-serif; font-size: 12px; fill: rgb(128, 132, 149); fill-opacity: 1; white-space: pre; opacity: 1;" transform="translate(0,135.28000000000003)">80</text></g><g class="y2tick"><text text-anchor="end" x="568.45" y="4.199999999999999" style="font-family: 'Source Sans', sans-serif; font-size: 12px; fill: rgb(128, 132, 149); fill-opacity: 1; white-space: pre; opacity: 1;" transform="translate(0,121.32000000000005)">90</text></g><g class="y2tick"><text text-anchor="end" x="568.45" y="4.199999999999999" style="font-family: 'Source Sans', sans-serif; font-size: 12px; fill: rgb(128, 132, 149); fill-opacity: 1; white-space: pre; opacity: 1;" transform="translate(0,107.35000000000004)">100</text></g></g><g class="overaxes-above"/></g><g class="subplot x3y3"><g class="layer-subplot"><g class="shapelayer"/><g class="imagelayer"/></g><g class="minor-gridlayer"><g class="x3"/><g class="y3"/></g><g class="gridlayer"><g class="x3"/><g class="y3"><path class="y3grid crisp" transform="translate(0,472.19)" d="M61,0h422.55" style="stroke: rgb(230, 234, 241); stroke-opacity: 1; stroke-width: 1px;"/><path class="y3grid crisp" transform="translate(0,435.49)" d="M61,0h422.55" style="stroke: rgb(230, 234, 241); stroke-opacity: 1; stroke-width: 1px;"/><path class="y3grid crisp" transform="translate(0,398.78)" d="M61,0h422.55" style="stroke: rgb(230, 234, 241); stroke-opacity: 1; stroke-width: 1px;"/></g></g><g class="zerolinelayer"><path class="y3zl zl crisp" transform="translate(0,508.9)" d="M61,0h422.55" style="stroke: rgb(230, 234, 241); stroke-opacity: 1; stroke-width: 1px;"/></g><g class="layer-between"><g class="shapelayer"/><g class="imagelayer"/></g><path class="xlines-below"/><path class="ylines-below"/><g class="overlines-below"/><g class="xaxislayer-below"/><g class="yaxislayer-below"/><g class="overaxes-below"/><g class="overplot"><g class="x3y3" transform="translate(61,373)" clip-path="url(#clipf8a064x3y3plot)"><g class="scatterlayer mlayer"><g class="trace scatter trace534811" style="stroke-miterlimit: 2; opacity: 1;"><g class="fills"/><g class="errorbars"/><g class="lines"><path class="js-line" d="M24.88,135.9Q45.39,122.33 55.94,121.22C66.11,120.15 76.84,129.63 87.01,128.56C97.56,127.45 107.98,119.79 118.08,113.88C128.71,107.66 138.51,98.07 149.14,91.85C159.24,85.94 169.85,77.17 180.21,77.17C190.57,77.17 201.85,94.33 211.28,91.85C223.09,88.74 230.23,55.99 242.34,47.81C251.66,41.51 263.47,44.95 273.41,40.46C284.26,35.55 293.62,23.34 304.47,18.44C314.41,13.95 325.84,8.49 335.54,11.1C346.77,14.12 357.43,27.23 366.61,40.46Q379.15,58.52 397.67,113.88" style="vector-effect: none; fill: none; stroke: rgb(0, 0, 255); stroke-opacity: 1; stroke-width: 3px; opacity: 1;"/></g><g class="points"><path class="point" transform="translate(24.88,135.9)" d="M3,0A3,3 0 1,1 0,-3A3,3 0 0,1 3,0Z" style="opacity: 1; stroke-width: 0px; fill: rgb(0, 0, 255); fill-opacity: 1;"/><path class="point" transform="translate(55.94,121.22)" d="M3,0A3,3 0 1,1 0,-3A3,3 0 0,1 3,0Z" style="opacity: 1; stroke-width: 0px; fill: rgb(0, 0, 255); fill-opacity: 1;"/><path class="point" transform="translate(87.01,128.56)" d="M3,0A3,3 0 1,1 0,-3A3,3 0 0,1 3,0Z" style="opacity: 1; stroke-width: 0px; fill: rgb(0, 0, 255); fill-opacity: 1;"/><path class="point" transform="translate(118.08,113.88)" d="M3,0A3,3 0 1,1 0,-3A3,3 0 0,1 3,0Z" style="opacity: 1; stroke-width: 0px; fill: rgb(0, 0, 255); fill-opacity: 1;"/><path class="point" transform="translate(149.14,91.85)" d="M3,0A3,3 0 1,1 0,-3A3,3 0 0,1 3,0Z" style="opacity: 1; stroke-width: 0px; fill: rgb(0, 0, 255); fill-opacity: 1;"/><path class="point" transform="translate(180.21,77.17)" d="M3,0A3,3 0 1,1 0,-3A3,3 0 0,1 3,0Z" style="opacity: 1; stroke-width: 0px; fill: rgb(0, 0, 255); fill-opacity: 1;"/><path class="point" transform="translate(211.28,91.85)" d="M3,0A3,3 0 1,1 0,-3A3,3 0 0,1 3,0Z" style="opacity: 1; stroke-width: 0px; fill: rgb(0, 0, 255); fill-opacity: 1;"/><path class="point" transform="translate(242.34,47.81)" d="M3,0A3,3 0 1,1 0,-3A3,3 0 0,1 3,0Z" style="opacity: 1; stroke-width: 0px; fill: rgb(0, 0, 255); fill-opacity: 1;"/><path class="point" transform="translate(273.41,40.46)" d="M3,0A3,3 0 1,1 0,-3A3,3 0 0,1 3,0Z" style="opacity: 1; stroke-width: 0px; fill: rgb(0, 0, 255); fill-opacity: 1;"/><path class="point" transform="translate(304.47,18.44)" d="M3,0A3,3 0 1,1 0,-3A3,3 0 0,1 3,0Z" style="opacity: 1; stroke-width: 0px; fill: rgb(0, 0, 255); fill-opacity: 1;"/><path class="point" transform="translate(335.54,11.1)" d="M3,0A3,3 0 1,1 0,-3A3,3 0 0,1 3,0Z" style="opacity: 1; stroke-width: 0px; fill: rgb(0, 0, 255); fill-opacity: 1;"/><path class="point" transform="translate(366.61,40.46)" d="M3,0A3,3 0 1,1 0,-3A3,3 0 0,1 3,0Z" style="opacity: 1; stroke-width: 0px; fill: rgb(0, 0, 255); fill-opacity: 1;"/><path class="point" transform="translate(397.67,113.88)" d="M3,0A3,3 0 1,1 0,-3A3,3 0 0,1 3,0Z" style="opacity: 1; stroke-width: 0px; fill: rgb(0, 0, 255); fill-opacity: 1;"/></g><g class="text"/></g></g></g></g><path class="xlines-above crisp" d="M0,0" style="fill: none;"/><path class="ylines-above crisp" d="M0,0" style="fill: none;"/><g class="overlines-above"/><g class="xaxislayer-above"><g class="x3tick"><text text-anchor="middle" x="0" y="541" transform="translate(85.88,0)" style="font-family: 'Source Sans', sans-serif; font-size: 12px; fill: rgb(128, 132, 149); fill-opacity: 1; white-space: pre; opacity: 1;">0</text></g><g class="x3tick"><text text-anchor="middle" x="0" y="541" style="font-family: 'Source Sans', sans-serif; font-size: 12px; fill: rgb(128, 132, 149); fill-opacity: 1; white-space: pre; opacity: 1;" transform="translate(116.94,0)">1</text></g><g class="x3tick"><text text-anchor="middle" x="0" y="541" style="font-family: 'Source Sans', sans-serif; font-size: 12px; fill: rgb(128, 132, 149); fill-opacity: 1; white-space: pre; opacity: 1;" transform="translate(148.01,0)">2</text></g><g class="x3tick"><text text-anchor="middle" x="0" y="541" style="font-family: 'Source Sans', sans-serif; font-size: 12px; fill: rgb(128, 132, 149); fill-opacity: 1; white-space: pre; opacity: 1;" transform="translate(179.07999999999998,0)">3</text></g><g class="x3tick"><text text-anchor="middle" x="0" y="541" style="font-family: 'Source Sans', sans-serif; font-size: 12px; fill: rgb(128, 132, 149); fill-opacity: 1; white-space: pre; opacity: 1;" transform="translate(210.14,0)">4</text></g><g class="x3tick"><text text-anchor="middle" x="0" y="541" style="font-family: 'Source Sans', sans-serif; font-size: 12px; fill: rgb(128, 132, 149); fill-opacity: 1; white-space: pre; opacity: 1;" transform="translate(241.21,0)">5</text></g><g class="x3tick"><text text-anchor="middle" x="0" y="541" style="font-family: 'Source Sans', sans-serif; font-size: 12px; fill: rgb(128, 132, 149); fill-opacity: 1; white-space: pre; opacity: 1;" transform="translate(272.28,0)">6</text></g><g class="x3tick"><text text-anchor="middle" x="0" y="541" style="font-family: 'Source Sans', sans-serif; font-size: 12px; fill: rgb(128, 132, 149); fill-opacity: 1; white-space: pre; opacity: 1;" transform="translate(303.34000000000003,0)">7</text></g><g class="x3tick"><text text-anchor="middle" x="0" y="541" style="font-family: 'Source Sans', sans-serif; font-size: 12px; fill: rgb(128, 132, 149); fill-opacity: 1; white-space: pre; opacity: 1;" transform="translate(334.41,0)">8</text></g><g class="x3tick"><text text-anchor="middle" x="0" y="541" style="font-family: 'Source Sans', sans-serif; font-size: 12px; fill: rgb(128, 132, 149); fill-opacity: 1; white-space: pre; opacity: 1;" transform="translate(365.47,0)">9</text></g><g class="x3tick"><text text-anchor="middle" x="0" y="541" style="font-family: 'Source Sans', sans-serif; font-size: 12px; fill: rgb(128, 132, 149); fill-opacity: 1; white-space: pre; opacity: 1;" transform="translate(396.54,0)">10</text></g><g class="x3tick"><text text-anchor="middle" x="0" y="541" style="font-family: 'Source Sans', sans-serif; font-size: 12px; fill: rgb(128, 132, 149); fill-opacity: 1; white-space: pre; opacity: 1;" transform="translate(427.61,0)">11</text></g><g class="x3tick"><text text-anchor="middle" x="0" y="541" style="font-family: 'Source Sans', sans-serif; font-size: 12px; fill: rgb(128, 132, 149); fill-opacity: 1; white-space: pre; opacity: 1;" transform="translate(458.67,0)">12</text></g></g><g class="yaxislayer-above"><g class="y3tick"><text text-anchor="end" x="52" y="4.199999999999999" transform="translate(0,508.9)" style="font-family: 'Source Sans', sans-serif; font-size: 12px; fill: rgb(128, 132, 149); fill-opacity: 1; white-space: pre; opacity: 1;">0</text></g><g class="y3tick"><text text-anchor="end" x="52" y="4.199999999999999" style="font-family: 'Source Sans', sans-serif; font-size: 12px; fill: rgb(128, 132, 149); fill-opacity: 1; white-space: pre; opacity: 1;" transform="translate(0,472.19)">5</text></g><g class="y3tick"><text text-anchor="end" x="52" y="4.199999999999999" style="font-family: 'Source Sans', sans-serif; font-size: 12px; fill: rgb(128, 132, 149); fill-opacity: 1; white-space: pre; opacity: 1;" transform="translate(0,435.49)">10</text></g><g class="y3tick"><text text-anchor="end" x="52" y="4.199999999999999" style="font-family: 'Source Sans', sans-serif; font-size: 12px; fill: rgb(128, 132, 149); fill-opacity: 1; white-space: pre; opacity: 1;" transform="translate(0,398.78)">15</text></g></g><g class="overaxes-above"/></g><g class="subplot x4y4"><g class="layer-subplot"><g class="shapelayer"/><g class="imagelayer"/></g><g class="minor-gridlayer"><g class="x4"/><g class="y4"/></g><g class="gridlayer"><g class="x4"/><g class="y4"><path class="y4grid crisp" transform="translate(0,478.93)" d="M577.45,0h422.54999999999995" style="stroke: rgb(230, 234, 241); stroke-opacity: 1; stroke-width: 1px;"/><path class="y4grid crisp" transform="translate(0,437.85)" d="M577.45,0h422.54999999999995" style="stroke: rgb(230, 234, 241); stroke-opacity: 1; stroke-width: 1px;"/><path class="y4grid crisp" transform="translate(0,396.78)" d="M577.45,0h422.54999999999995" style="stroke: rgb(230, 234, 241); stroke-opacity: 1; stroke-width: 1px;"/></g></g><g class="zerolinelayer"><path class="y4zl zl crisp" transform="translate(0,520)" d="M577.45,0h422.54999999999995" style="stroke: rgb(230, 234, 241); stroke-opacity: 1; stroke-width: 1px;"/></g><g class="layer-between"><g class="shapelayer"/><g class="imagelayer"/></g><path class="xlines-below"/><path class="ylines-below"/><g class="overlines-below"/><g class="xaxislayer-below"/><g class="yaxislayer-below"/><g class="overaxes-below"/><g class="overplot"><g class="x4y4" transform="translate(577.45,373)" clip-path="url(#clipf8a064x4y4plot)"><g class="barlayer mlayer"><g class="trace bars" style="opacity: 1;"><g class="points"><g class="point"><path d="M0,0Z" style="vector-effect: none; opacity: 1; stroke-width: 0px; fill: rgb(135, 206, 235); fill-opacity: 1;"/></g><g class="point"><path d="M35.75,147V130.57H61.76V147Z" style="vector-effect: none; opacity: 1; stroke-width: 0px; fill: rgb(135, 206, 235); fill-opacity: 1;"/></g><g class="point"><path d="M68.26,147V138.79H94.26V147Z" style="vector-effect: none; opacity: 1; stroke-width: 0px; fill: rgb(135, 206, 235); fill-opacity: 1;"/></g><g class="point"><path d="M100.76,147V122.36H126.76V147Z" style="vector-effect: none; opacity: 1; stroke-width: 0px; fill: rgb(135, 206, 235); fill-opacity: 1;"/></g><g class="point"><path d="M133.27,147V97.71H159.27V147Z" style="vector-effect: none; opacity: 1; stroke-width: 0px; fill: rgb(135, 206, 235); fill-opacity: 1;"/></g><g class="point"><path d="M165.77,147V81.28H191.77V147Z" style="vector-effect: none; opacity: 1; stroke-width: 0px; fill: rgb(135, 206, 235); fill-opacity: 1;"/></g><g class="point"><path d="M198.27,147V97.71H224.28V147Z" style="vector-effect: none; opacity: 1; stroke-width: 0px; fill: rgb(135, 206, 235); fill-opacity: 1;"/></g><g class="point"><path d="M230.78,147V48.42H256.78V147Z" style="vector-effect: none; opacity: 1; stroke-width: 0px; fill: rgb(135, 206, 235); fill-opacity: 1;"/></g><g class="point"><path d="M263.28,147V40.21H289.28V147Z" style="vector-effect: none; opacity: 1; stroke-width: 0px; fill: rgb(135, 206, 235); fill-opacity: 1;"/></g><g class="point"><path d="M295.78,147V15.56H321.79V147Z" style="vector-effect: none; opacity: 1; stroke-width: 0px; fill: rgb(135, 206, 235); fill-opacity: 1;"/></g><g class="point"><path d="M328.29,147V7.35H354.29V147Z" style="vector-effect: none; opacity: 1; stroke-width: 0px; fill: rgb(135, 206, 235); fill-opacity: 1;"/></g><g class="point"><path d="M360.79,147V40.21H386.8V147Z" style="vector-effect: none; opacity: 1; stroke-width: 0px; fill: rgb(135, 206, 235); fill-opacity: 1;"/></g><g class="point"><path d="M393.3,147V122.36H419.3V147Z" style="vector-effect: none; opacity: 1; stroke-width: 0px; fill: rgb(135, 206, 235); fill-opacity: 1;"/></g></g></g></g></g></g><path class="xlines-above crisp" d="M0,0" style="fill: none;"/><path class="ylines-above crisp" d="M0,0" style="fill: none;"/><g class="overlines-above"/><g class="xaxislayer-above"><g class="x4tick"><text text-anchor="middle" x="0" y="541" transform="translate(593.7,0)" style="font-family: 'Source Sans', sans-serif; font-size: 12px; fill: rgb(128, 132, 149); fill-opacity: 1; white-space: pre; opacity: 1;">0</text></g><g class="x4tick"><text text-anchor="middle" x="0" y="541" style="font-family: 'Source Sans', sans-serif; font-size: 12px; fill: rgb(128, 132, 149); fill-opacity: 1; white-space: pre; opacity: 1;" transform="translate(626.21,0)">1</text></g><g class="x4tick"><text text-anchor="middle" x="0" y="541" style="font-family: 'Source Sans', sans-serif; font-size: 12px; fill: rgb(128, 132, 149); fill-opacity: 1; white-space: pre; opacity: 1;" transform="translate(658.71,0)">2</text></g><g class="x4tick"><text text-anchor="middle" x="0" y="541" style="font-family: 'Source Sans', sans-serif; font-size: 12px; fill: rgb(128, 132, 149); fill-opacity: 1; white-space: pre; opacity: 1;" transform="translate(691.21,0)">3</text></g><g class="x4tick"><text text-anchor="middle" x="0" y="541" style="font-family: 'Source Sans', sans-serif; font-size: 12px; fill: rgb(128, 132, 149); fill-opacity: 1; white-space: pre; opacity: 1;" transform="translate(723.72,0)">4</text></g><g class="x4tick"><text text-anchor="middle" x="0" y="541" style="font-family: 'Source Sans', sans-serif; font-size: 12px; fill: rgb(128, 132, 149); fill-opacity: 1; white-space: pre; opacity: 1;" transform="translate(756.22,0)">5</text></g><g class="x4tick"><text text-anchor="middle" x="0" y="541" style="font-family: 'Source Sans', sans-serif; font-size: 12px; fill: rgb(128, 132, 149); fill-opacity: 1; white-space: pre; opacity: 1;" transform="translate(788.72,0)">6</text></g><g class="x4tick"><text text-anchor="middle" x="0" y="541" style="font-family: 'Source Sans', sans-serif; font-size: 12px; fill: rgb(128, 132, 149); fill-opacity: 1; white-space: pre; opacity: 1;" transform="translate(821.23,0)">7</text></g><g class="x4tick"><text text-anchor="middle" x="0" y="541" style="font-family: 'Source Sans', sans-serif; font-size: 12px; fill: rgb(128, 132, 149); fill-opacity: 1; white-space: pre; opacity: 1;" transform="translate(853.73,0)">8</text></g><g class="x4tick"><text text-anchor="middle" x="0" y="541" style="font-family: 'Source Sans', sans-serif; font-size: 12px; fill: rgb(128, 132, 149); fill-opacity: 1; white-space: pre; opacity: 1;" transform="translate(886.24,0)">9</text></g><g class="x4tick"><text text-anchor="middle" x="0" y="541" style="font-family: 'Source Sans', sans-serif; font-size: 12px; fill: rgb(128, 132, 149); fill-opacity: 1; white-space: pre; opacity: 1;" transform="translate(918.74,0)">10</text></g><g class="x4tick"><text text-anchor="middle" x="0" y="541" style="font-family: 'Source Sans', sans-serif; font-size: 12px; fill: rgb(128, 132, 149); fill-opacity: 1; white-space: pre; opacity: 1;" transform="translate(951.24,0)">11</text></g><g class="x4tick"><text text-anchor="middle" x="0" y="541" style="font-family: 'Source Sans', sans-serif; font-size: 12px; fill: rgb(128, 132, 149); fill-opacity: 1; white-space: pre; opacity: 1;" transform="translate(983.75,0)">12</text></g></g><g class="yaxislayer-above"><g class="y4tick"><text text-anchor="end" x="568.45" y="4.199999999999999" transform="translate(0,520)" style="font-family: 'Source Sans', sans-serif; font-size: 12px; fill: rgb(128, 132, 149); fill-opacity: 1; white-space: pre; opacity: 1;">0</text></g><g class="y4tick"><text text-anchor="end" x="568.45" y="4.199999999999999" style="font-family: 'Source Sans', sans-serif; font-size: 12px; fill: rgb(128, 132, 149); fill-opacity: 1; white-space: pre; opacity: 1;" transform="translate(0,478.93)">5</text></g><g class="y4tick"><text text-anchor="end" x="568.45" y="4.199999999999999" style="font-family: 'Source Sans', sans-serif; font-size: 12px; fill: rgb(128, 132, 149); fill-opacity: 1; white-space: pre; opacity: 1;" transform="translate(0,437.85)">10</text></g><g class="y4tick"><text text-anchor="end" x="568.45" y="4.199999999999999" style="font-family: 'Source Sans', sans-serif; font-size: 12px; fill: rgb(128, 132, 149); fill-opacity: 1; white-space: pre; opacity: 1;" transform="translate(0,396.78)">15</text></g></g><g class="overaxes-above"/></g></g><g class="polarlayer"/><g class="smithlayer"/><g class="ternarylayer"/><g class="geolayer"/><g class="funnelarealayer"/><g class="pielayer"/><g class="iciclelayer"/><g class="treemaplayer"/><g class="sunburstlayer"/><g class="glimages"/><defs id="topdefs-f8a064"><g class="clips"/></defs><g class="layer-above"><g class="imagelayer"/><g class="shapelayer"/></g><g class="infolayer"><g class="g-gtitle"><text class="gtitle" x="4" y="50" text-anchor="start" dy="0em" style="opacity: 1; font-family: 'Source Sans', sans-serif; font-size: 16px; fill: rgb(38, 39, 48); fill-opacity: 1; white-space: pre;"><tspan style="font-weight:bold"><tspan style="font-weight:bold">Innovation Adoption Progress Over Steps</tspan></tspan></text></g><g class="g-xtitle"><text class="xtitle" x="272.275" y="293.3" text-anchor="middle" style="opacity: 1; font-family: 'Source Sans', sans-serif; font-size: 14px; fill: rgb(128, 132, 149); fill-opacity: 1; white-space: pre;">Simulation Step</text></g><g class="g-x2title"><text class="x2title" x="788.725" y="293.3" text-anchor="middle" style="opacity: 1; font-family: 'Source Sans', sans-serif; font-size: 14px; fill: rgb(128, 132, 149); fill-opacity: 1; white-space: pre;">Simulation Step</text></g><g class="g-x3title"><text class="x3title" x="272.275" y="566.3" text-anchor="middle" style="opacity: 1; font-family: 'Source Sans', sans-serif; font-size: 14px; fill: rgb(128, 132, 149); fill-opacity: 1; white-space: pre;">Simulation Step</text></g><g class="g-x4title"><text class="x4title" x="788.725" y="566.3" text-anchor="middle" style="opacity: 1; font-family: 'Source Sans', sans-serif; font-size: 14px; fill: rgb(128, 132, 149); fill-opacity: 1; white-space: pre;">Simulation Step</text></g><g class="g-ytitle" transform="translate(0.7001953125,0)"><text class="ytitle" transform="rotate(-90,13.699609375000001,173.50000000000006)" x="13.699609375000001" y="173.50000000000006" text-anchor="middle" style="opacity: 1; font-family: 'Source Sans', sans-serif; font-size: 14px; fill: rgb(128, 132, 149); fill-opacity: 1; white-space: pre;">Cumulative Adoption Rate (%)</text></g><g class="g-y2title"><text class="y2title" transform="rotate(-90,530.1498046875,173.50000000000006)" x="530.1498046875" y="173.50000000000006" text-anchor="middle" style="opacity: 1; font-family: 'Source Sans', sans-serif; font-size: 14px; fill: rgb(128, 132, 149); fill-opacity: 1; white-space: pre;">Cumulative Adoptions</text></g><g class="g-y3title"><text class="y3title" transform="rotate(-90,19.6625,446.5)" x="19.6625" y="446.5" text-anchor="middle" style="opacity: 1; font-family: 'Source Sans', sans-serif; font-size: 14px; fill: rgb(128, 132, 149); fill-opacity: 1; white-space: pre;">Adoption Rate (%)</text></g><g class="g-y4title"><text class="y4title" transform="rotate(-90,536.1126953125,446.5)" x="536.1126953125" y="446.5" text-anchor="middle" style="opacity: 1; font-family: 'Source Sans', sans-serif; font-size: 14px; fill: rgb(128, 132, 149); fill-opacity: 1; white-space: pre;">Adoptions</text></g><g class="annotation" data-index="0" style="opacity: 1;"><g class="annotation-text-g" transform="rotate(0,272.275,87.00000000000003)"><g class="cursor-pointer" transform="translate(154,74)"><rect class="bg" x="0.5" y="0.5" width="236" height="25" style="stroke-width: 1px; stroke: rgb(0, 0, 0); stroke-opacity: 0; fill: rgb(0, 0, 0); fill-opacity: 0;"/><text class="annotation-text" text-anchor="middle" x="118.6318359375" y="18" style="font-family: 'Source Sans', sans-serif; font-size: 16px; fill: rgb(128, 132, 149); fill-opacity: 1; white-space: pre;">Cumulative Adoption Rate per Step</text></g></g></g><g class="annotation" data-index="1" style="opacity: 1;"><g class="annotation-text-g" transform="rotate(0,788.725,87.00000000000003)"><g class="cursor-pointer" transform="translate(683,74)"><rect class="bg" x="0.5" y="0.5" width="210" height="25" style="stroke-width: 1px; stroke: rgb(0, 0, 0); stroke-opacity: 0; fill: rgb(0, 0, 0); fill-opacity: 0;"/><text class="annotation-text" text-anchor="middle" x="105.3818359375" y="18" style="font-family: 'Source Sans', sans-serif; font-size: 16px; fill: rgb(128, 132, 149); fill-opacity: 1; white-space: pre;">Cumulative Adoptions per Step</text></g></g></g><g class="annotation" data-index="2" style="opacity: 1;"><g class="annotation-text-g" transform="rotate(0,272.275,360)"><g class="cursor-pointer" transform="translate(193,347)"><rect class="bg" x="0.5" y="0.5" width="158" height="25" style="stroke-width: 1px; stroke: rgb(0, 0, 0); stroke-opacity: 0; fill: rgb(0, 0, 0); fill-opacity: 0;"/><text class="annotation-text" text-anchor="middle" x="79.6943359375" y="18" style="font-family: 'Source Sans', sans-serif; font-size: 16px; fill: rgb(128, 132, 149); fill-opacity: 1; white-space: pre;">Adoption Rate per Step</text></g></g></g><g class="annotation" data-index="3" style="opacity: 1;"><g class="annotation-text-g" transform="rotate(0,788.725,360)"><g class="cursor-pointer" transform="translate(723,347)"><rect class="bg" x="0.5" y="0.5" width="131" height="25" style="stroke-width: 1px; stroke: rgb(0, 0, 0); stroke-opacity: 0; fill: rgb(0, 0, 0); fill-opacity: 0;"/><text class="annotation-text" text-anchor="middle" x="66.4375" y="18" style="font-family: 'Source Sans', sans-serif; font-size: 16px; fill: rgb(128, 132, 149); fill-opacity: 1; white-space: pre;">Adoptions per Step</text></g></g></g></g></svg>