<svg class="main-svg" xmlns="http://www.w3.org/2000/svg" xmlns:xlink="http://www.w3.org/1999/xlink" width="1000" height="600" style="" viewBox="0 0 1000 600"><rect x="0" y="0" width="1000" height="600" style="fill: rgb(255, 255, 255); fill-opacity: 1;"/><defs id="defs-24aa78"><g class="clips"><clipPath id="clip24aa78xyplot" class="plotclip"><rect width="422.55" height="147"/></clipPath><clipPath id="clip24aa78x2y2plot" class="plotclip"><rect width="422.54999999999995" height="147"/></clipPath><clipPath id="clip24aa78x3y3plot" class="plotclip"><rect width="422.55" height="147"/></clipPath><clipPath id="clip24aa78x4y4plot" class="plotclip"><rect width="422.54999999999995" height="147"/></clipPath><clipPath class="axesclip" id="clip24aa78x"><rect x="61" y="0" width="422.55" height="600"/></clipPath><clipPath class="axesclip" id="clip24aa78y"><rect x="0" y="100.00000000000004" width="1000" height="147"/></clipPath><clipPath class="axesclip" id="clip24aa78xy"><rect x="61" y="100.00000000000004" width="422.55" height="147"/></clipPath><clipPath class="axesclip" id="clip24aa78y2"><rect x="0" y="100.00000000000004" width="1000" height="147"/></clipPath><clipPath class="axesclip" id="clip24aa78xy2"><rect x="61" y="100.00000000000004" width="422.55" height="147"/></clipPath><clipPath class="axesclip" id="clip24aa78y3"><rect x="0" y="373" width="1000" height="147"/></clipPath><clipPath class="axesclip" id="clip24aa78xy3"><rect x="61" y="373" width="422.55" height="147"/></clipPath><clipPath class="axesclip" id="clip24aa78y4"><rect x="0" y="373" width="1000" height="147"/></clipPath><clipPath class="axesclip" id="clip24aa78xy4"><rect x="61" y="373" width="422.55" height="147"/></clipPath><clipPath class="axesclip" id="clip24aa78x2"><rect x="577.45" y="0" width="422.54999999999995" height="600"/></clipPath><clipPath class="axesclip" id="clip24aa78x2y"><rect x="577.45" y="100.00000000000004" width="422.54999999999995" height="147"/></clipPath><clipPath class="axesclip" id="clip24aa78x2y2"><rect x="577.45" y="100.00000000000004" width="422.54999999999995" height="147"/></clipPath><clipPath class="axesclip" id="clip24aa78x2y3"><rect x="577.45" y="373" width="422.54999999999995" height="147"/></clipPath><clipPath class="axesclip" id="clip24aa78x2y4"><rect x="577.45" y="373" width="422.54999999999995" height="147"/></clipPath><clipPath class="axesclip" id="clip24aa78x3"><rect x="61" y="0" width="422.55" height="600"/></clipPath><clipPath class="axesclip" id="clip24aa78x3y"><rect x="61" y="100.00000000000004" width="422.55" height="147"/></clipPath><clipPath class="axesclip" id="clip24aa78x3y2"><rect x="61" y="100.00000000000004" width="422.55" height="147"/></clipPath><clipPath class="axesclip" id="clip24aa78x3y3"><rect x="61" y="373" width="422.55" height="147"/></clipPath><clipPath class="axesclip" id="clip24aa78x3y4"><rect x="61" y="373" width="422.55" height="147"/></clipPath><clipPath class="axesclip" id="clip24aa78x4"><rect x="577.45" y="0" width="422.54999999999995" height="600"/></clipPath><clipPath class="axesclip" id="clip24aa78x4y"><rect x="577.45" y="100.00000000000004" width="422.54999999999995" height="147"/></clipPath><clipPath class="axesclip" id="clip24aa78x4y2"><rect x="577.45" y="100.00000000000004" width="422.54999999999995" height="147"/></clipPath><clipPath class="axesclip" id="clip24aa78x4y3"><rect x="577.45" y="373" width="422.54999999999995" height="147"/></clipPath><clipPath class="axesclip" id="clip24aa78x4y4"><rect x="577.45" y="373" width="422.54999999999995" height="147"/></clipPath></g><g class="gradients"/><g class="patterns"/></defs><g class="bglayer"/><g class="layer-below"><g class="imagelayer"/><g class="shapelayer"/></g><g class="cartesianlayer"><g class="subplot xy"><g class="layer-subplot"><g class="shapelayer"/><g class="imagelayer"/></g><g class="minor-gridlayer"><g class="x"/><g class="y"/></g><g class="gridlayer"><g class="x"/><g class="y"><path class="ygrid crisp" transform="translate(0,173.50000000000006)" d="M61,0h422.55" style="stroke: rgb(230, 234, 241); stroke-opacity: 1; stroke-width: 1px;"/><path class="ygrid crisp" transform="translate(0,111.10000000000004)" d="M61,0h422.55" style="stroke: rgb(230, 234, 241); stroke-opacity: 1; stroke-width: 1px;"/></g></g><g class="zerolinelayer"><path class="yzl zl crisp" transform="translate(0,235.90000000000003)" d="M61,0h422.55" style="stroke: rgb(230, 234, 241); stroke-opacity: 1; stroke-width: 1px;"/></g><g class="layer-between"><g class="shapelayer"/><g class="imagelayer"/></g><path class="xlines-below"/><path class="ylines-below"/><g class="overlines-below"/><g class="xaxislayer-below"/><g class="yaxislayer-below"/><g class="overaxes-below"/><g class="overplot"><g class="xy" transform="translate(61,100.00000000000004)" clip-path="url(#clip24aa78xyplot)"><g class="scatterlayer mlayer"><g class="trace scatter trace8b89b9" style="stroke-miterlimit: 2; opacity: 1;"><g class="fills"/><g class="errorbars"/><g class="lines"><path class="js-line" d="M24.88,135.9Q47.47,134.02 58.77,133.4C70.06,132.78 81.41,133.4 92.66,132.16C104,130.92 115.35,128.79 126.55,125.92C137.95,123 149.36,119.53 160.44,114.68C171.97,109.63 182.91,101.62 194.33,95.96C205.51,90.42 216.96,86.17 228.22,80.99C239.56,75.77 250.81,70.17 262.11,64.76C273.41,59.35 284.92,54.82 296,48.54C307.53,42 318.2,31.77 329.89,26.08C340.84,20.75 352.35,17.34 363.78,14.84Q374.95,12.4 397.67,11.1" style="vector-effect: none; fill: none; stroke: rgb(0, 0, 255); stroke-opacity: 1; stroke-width: 3px; opacity: 1;"/></g><g class="points"><path class="point" transform="translate(24.88,135.9)" d="M3,0A3,3 0 1,1 0,-3A3,3 0 0,1 3,0Z" style="opacity: 1; stroke-width: 0px; fill: rgb(0, 0, 255); fill-opacity: 1;"/><path class="point" transform="translate(58.77,133.4)" d="M3,0A3,3 0 1,1 0,-3A3,3 0 0,1 3,0Z" style="opacity: 1; stroke-width: 0px; fill: rgb(0, 0, 255); fill-opacity: 1;"/><path class="point" transform="translate(92.66,132.16)" d="M3,0A3,3 0 1,1 0,-3A3,3 0 0,1 3,0Z" style="opacity: 1; stroke-width: 0px; fill: rgb(0, 0, 255); fill-opacity: 1;"/><path class="point" transform="translate(126.55,125.92)" d="M3,0A3,3 0 1,1 0,-3A3,3 0 0,1 3,0Z" style="opacity: 1; stroke-width: 0px; fill: rgb(0, 0, 255); fill-opacity: 1;"/><path class="point" transform="translate(160.44,114.68)" d="M3,0A3,3 0 1,1 0,-3A3,3 0 0,1 3,0Z" style="opacity: 1; stroke-width: 0px; fill: rgb(0, 0, 255); fill-opacity: 1;"/><path class="point" transform="translate(194.33,95.96)" d="M3,0A3,3 0 1,1 0,-3A3,3 0 0,1 3,0Z" style="opacity: 1; stroke-width: 0px; fill: rgb(0, 0, 255); fill-opacity: 1;"/><path class="point" transform="translate(228.22,80.99)" d="M3,0A3,3 0 1,1 0,-3A3,3 0 0,1 3,0Z" style="opacity: 1; stroke-width: 0px; fill: rgb(0, 0, 255); fill-opacity: 1;"/><path class="point" transform="translate(262.11,64.76)" d="M3,0A3,3 0 1,1 0,-3A3,3 0 0,1 3,0Z" style="opacity: 1; stroke-width: 0px; fill: rgb(0, 0, 255); fill-opacity: 1;"/><path class="point" transform="translate(296,48.54)" d="M3,0A3,3 0 1,1 0,-3A3,3 0 0,1 3,0Z" style="opacity: 1; stroke-width: 0px; fill: rgb(0, 0, 255); fill-opacity: 1;"/><path class="point" transform="translate(329.89,26.08)" d="M3,0A3,3 0 1,1 0,-3A3,3 0 0,1 3,0Z" style="opacity: 1; stroke-width: 0px; fill: rgb(0, 0, 255); fill-opacity: 1;"/><path class="point" transform="translate(363.78,14.84)" d="M3,0A3,3 0 1,1 0,-3A3,3 0 0,1 3,0Z" style="opacity: 1; stroke-width: 0px; fill: rgb(0, 0, 255); fill-opacity: 1;"/><path class="point" transform="translate(397.67,11.1)" d="M3,0A3,3 0 1,1 0,-3A3,3 0 0,1 3,0Z" style="opacity: 1; stroke-width: 0px; fill: rgb(0, 0, 255); fill-opacity: 1;"/></g><g class="text"/></g></g></g></g><path class="xlines-above crisp" d="M0,0" style="fill: none;"/><path class="ylines-above crisp" d="M0,0" style="fill: none;"/><g class="overlines-above"/><g class="xaxislayer-above"><g class="xtick"><text text-anchor="middle" x="0" y="268.00000000000006" transform="translate(85.88,0)" style="font-family: 'Source Sans', sans-serif; font-size: 12px; fill: rgb(128, 132, 149); fill-opacity: 1; white-space: pre; opacity: 1;">0</text></g><g class="xtick"><text text-anchor="middle" x="0" y="268.00000000000006" style="font-family: 'Source Sans', sans-serif; font-size: 12px; fill: rgb(128, 132, 149); fill-opacity: 1; white-space: pre; opacity: 1;" transform="translate(153.66,0)">2</text></g><g class="xtick"><text text-anchor="middle" x="0" y="268.00000000000006" style="font-family: 'Source Sans', sans-serif; font-size: 12px; fill: rgb(128, 132, 149); fill-opacity: 1; white-space: pre; opacity: 1;" transform="translate(221.44,0)">4</text></g><g class="xtick"><text text-anchor="middle" x="0" y="268.00000000000006" style="font-family: 'Source Sans', sans-serif; font-size: 12px; fill: rgb(128, 132, 149); fill-opacity: 1; white-space: pre; opacity: 1;" transform="translate(289.22,0)">6</text></g><g class="xtick"><text text-anchor="middle" x="0" y="268.00000000000006" style="font-family: 'Source Sans', sans-serif; font-size: 12px; fill: rgb(128, 132, 149); fill-opacity: 1; white-space: pre; opacity: 1;" transform="translate(357,0)">8</text></g><g class="xtick"><text text-anchor="middle" x="0" y="268.00000000000006" style="font-family: 'Source Sans', sans-serif; font-size: 12px; fill: rgb(128, 132, 149); fill-opacity: 1; white-space: pre; opacity: 1;" transform="translate(424.78,0)">10</text></g></g><g class="yaxislayer-above"><g class="ytick"><text text-anchor="end" x="52" y="4.199999999999999" transform="translate(0,235.90000000000003)" style="font-family: 'Source Sans', sans-serif; font-size: 12px; fill: rgb(128, 132, 149); fill-opacity: 1; white-space: pre; opacity: 1;">0</text></g><g class="ytick"><text text-anchor="end" x="52" y="4.199999999999999" style="font-family: 'Source Sans', sans-serif; font-size: 12px; fill: rgb(128, 132, 149); fill-opacity: 1; white-space: pre; opacity: 1;" transform="translate(0,173.50000000000006)">50</text></g><g class="ytick"><text text-anchor="end" x="52" y="4.199999999999999" style="font-family: 'Source Sans', sans-serif; font-size: 12px; fill: rgb(128, 132, 149); fill-opacity: 1; white-space: pre; opacity: 1;" transform="translate(0,111.10000000000004)">100</text></g></g><g class="overaxes-above"/></g><g class="subplot x2y2"><g class="layer-subplot"><g class="shapelayer"/><g class="imagelayer"/></g><g class="minor-gridlayer"><g class="x2"/><g class="y2"/></g><g class="gridlayer"><g class="x2"/><g class="y2"><path class="y2grid crisp" transform="translate(0,177.18000000000006)" d="M577.45,0h422.54999999999995" style="stroke: rgb(230, 234, 241); stroke-opacity: 1; stroke-width: 1px;"/><path class="y2grid crisp" transform="translate(0,107.35000000000004)" d="M577.45,0h422.54999999999995" style="stroke: rgb(230, 234, 241); stroke-opacity: 1; stroke-width: 1px;"/></g></g><g class="zerolinelayer"><path class="y2zl zl crisp" transform="translate(0,247.00000000000006)" d="M577.45,0h422.54999999999995" style="stroke: rgb(230, 234, 241); stroke-opacity: 1; stroke-width: 1px;"/></g><g class="layer-between"><g class="shapelayer"/><g class="imagelayer"/></g><path class="xlines-below"/><path class="ylines-below"/><g class="overlines-below"/><g class="xaxislayer-below"/><g class="yaxislayer-below"/><g class="overaxes-below"/><g class="overplot"><g class="x2y2" transform="translate(577.45,100.00000000000004)" clip-path="url(#clip24aa78x2y2plot)"><g class="barlayer mlayer"><g class="trace bars" style="opacity: 1;"><g class="points"><g class="point"><path d="M0,0Z" style="vector-effect: none; opacity: 1; stroke-width: 0px; fill: rgb(135, 206, 235); fill-opacity: 1;"/></g><g class="point"><path d="M38.73,147V144.21H66.9V147Z" style="vector-effect: none; opacity: 1; stroke-width: 0px; fill: rgb(135, 206, 235); fill-opacity: 1;"/></g><g class="point"><path d="M73.95,147V142.81H102.12V147Z" style="vector-effect: none; opacity: 1; stroke-width: 0px; fill: rgb(135, 206, 235); fill-opacity: 1;"/></g><g class="point"><path d="M109.16,147V135.83H137.33V147Z" style="vector-effect: none; opacity: 1; stroke-width: 0px; fill: rgb(135, 206, 235); fill-opacity: 1;"/></g><g class="point"><path d="M144.37,147V123.26H172.54V147Z" style="vector-effect: none; opacity: 1; stroke-width: 0px; fill: rgb(135, 206, 235); fill-opacity: 1;"/></g><g class="point"><path d="M179.58,147V102.31H207.75V147Z" style="vector-effect: none; opacity: 1; stroke-width: 0px; fill: rgb(135, 206, 235); fill-opacity: 1;"/></g><g class="point"><path d="M214.8,147V85.55H242.97V147Z" style="vector-effect: none; opacity: 1; stroke-width: 0px; fill: rgb(135, 206, 235); fill-opacity: 1;"/></g><g class="point"><path d="M250.01,147V67.4H278.18V147Z" style="vector-effect: none; opacity: 1; stroke-width: 0px; fill: rgb(135, 206, 235); fill-opacity: 1;"/></g><g class="point"><path d="M285.22,147V49.25H313.39V147Z" style="vector-effect: none; opacity: 1; stroke-width: 0px; fill: rgb(135, 206, 235); fill-opacity: 1;"/></g><g class="point"><path d="M320.43,147V24.11H348.6V147Z" style="vector-effect: none; opacity: 1; stroke-width: 0px; fill: rgb(135, 206, 235); fill-opacity: 1;"/></g><g class="point"><path d="M355.65,147V11.54H383.82V147Z" style="vector-effect: none; opacity: 1; stroke-width: 0px; fill: rgb(135, 206, 235); fill-opacity: 1;"/></g><g class="point"><path d="M390.86,147V7.35H419.03V147Z" style="vector-effect: none; opacity: 1; stroke-width: 0px; fill: rgb(135, 206, 235); fill-opacity: 1;"/></g></g></g></g></g></g><path class="xlines-above crisp" d="M0,0" style="fill: none;"/><path class="ylines-above crisp" d="M0,0" style="fill: none;"/><g class="overlines-above"/><g class="xaxislayer-above"><g class="x2tick"><text text-anchor="middle" x="0" y="268.00000000000006" transform="translate(595.0600000000001,0)" style="font-family: 'Source Sans', sans-serif; font-size: 12px; fill: rgb(128, 132, 149); fill-opacity: 1; white-space: pre; opacity: 1;">0</text></g><g class="x2tick"><text text-anchor="middle" x="0" y="268.00000000000006" style="font-family: 'Source Sans', sans-serif; font-size: 12px; fill: rgb(128, 132, 149); fill-opacity: 1; white-space: pre; opacity: 1;" transform="translate(665.48,0)">2</text></g><g class="x2tick"><text text-anchor="middle" x="0" y="268.00000000000006" style="font-family: 'Source Sans', sans-serif; font-size: 12px; fill: rgb(128, 132, 149); fill-opacity: 1; white-space: pre; opacity: 1;" transform="translate(735.9100000000001,0)">4</text></g><g class="x2tick"><text text-anchor="middle" x="0" y="268.00000000000006" style="font-family: 'Source Sans', sans-serif; font-size: 12px; fill: rgb(128, 132, 149); fill-opacity: 1; white-space: pre; opacity: 1;" transform="translate(806.33,0)">6</text></g><g class="x2tick"><text text-anchor="middle" x="0" y="268.00000000000006" style="font-family: 'Source Sans', sans-serif; font-size: 12px; fill: rgb(128, 132, 149); fill-opacity: 1; white-space: pre; opacity: 1;" transform="translate(876.76,0)">8</text></g><g class="x2tick"><text text-anchor="middle" x="0" y="268.00000000000006" style="font-family: 'Source Sans', sans-serif; font-size: 12px; fill: rgb(128, 132, 149); fill-opacity: 1; white-space: pre; opacity: 1;" transform="translate(947.1800000000001,0)">10</text></g></g><g class="yaxislayer-above"><g class="y2tick"><text text-anchor="end" x="568.45" y="4.199999999999999" transform="translate(0,247.00000000000006)" style="font-family: 'Source Sans', sans-serif; font-size: 12px; fill: rgb(128, 132, 149); fill-opacity: 1; white-space: pre; opacity: 1;">0</text></g><g class="y2tick"><text text-anchor="end" x="568.45" y="4.199999999999999" style="font-family: 'Source Sans', sans-serif; font-size: 12px; fill: rgb(128, 132, 149); fill-opacity: 1; white-space: pre; opacity: 1;" transform="translate(0,177.18000000000006)">50</text></g><g class="y2tick"><text text-anchor="end" x="568.45" y="4.199999999999999" style="font-family: 'Source Sans', sans-serif; font-size: 12px; fill: rgb(128, 132, 149); fill-opacity: 1; white-space: pre; opacity: 1;" transform="translate(0,107.35000000000004)">100</text></g></g><g class="overaxes-above"/></g><g class="subplot x3y3"><g class="layer-subplot"><g class="shapelayer"/><g class="imagelayer"/></g><g class="minor-gridlayer"><g class="x3"/><g class="y3"/></g><g class="gridlayer"><g class="x3"/><g class="y3"><path class="y3grid crisp" transform="translate(0,474.23)" d="M61,0h422.55" style="stroke: rgb(230, 234, 241); stroke-opacity: 1; stroke-width: 1px;"/><path class="y3grid crisp" transform="translate(0,439.57)" d="M61,0h422.55" style="stroke: rgb(230, 234, 241); stroke-opacity: 1; stroke-width: 1px;"/><path class="y3grid crisp" transform="translate(0,404.9)" d="M61,0h422.55" style="stroke: rgb(230, 234, 241); stroke-opacity: 1; stroke-width: 1px;"/></g></g><g class="zerolinelayer"><path class="y3zl zl crisp" transform="translate(0,508.9)" d="M61,0h422.55" style="stroke: rgb(230, 234, 241); stroke-opacity: 1; stroke-width: 1px;"/></g><g class="layer-between"><g class="shapelayer"/><g class="imagelayer"/></g><path class="xlines-below"/><path class="ylines-below"/><g class="overlines-below"/><g class="xaxislayer-below"/><g class="yaxislayer-below"/><g class="overaxes-below"/><g class="overplot"><g class="x3y3" transform="translate(61,373)" clip-path="url(#clip24aa78x3y3plot)"><g class="scatterlayer mlayer"><g class="trace scatter tracedee772" style="stroke-miterlimit: 2; opacity: 1;"><g class="fills"/><g class="errorbars"/><g class="lines"><path class="js-line" d="M24.88,135.9Q47.31,123.1 58.77,122.03C69.91,120.99 81.95,131.61 92.66,128.97C104.71,126 115.25,110.48 126.55,101.23C137.85,91.99 149.66,84.3 160.44,73.5C172.37,61.54 182.05,33.99 194.33,31.9C204.9,30.1 216.5,50.64 228.22,52.7C239.15,54.63 250.75,46.92 262.11,45.77C273.35,44.63 285.55,50.17 296,45.77C308.5,40.51 319.48,9.65 329.89,11.1C342.49,12.85 351.57,55.29 363.78,73.5Q374.39,89.33 397.67,115.1" style="vector-effect: none; fill: none; stroke: rgb(0, 0, 255); stroke-opacity: 1; stroke-width: 3px; opacity: 1;"/></g><g class="points"><path class="point" transform="translate(24.88,135.9)" d="M3,0A3,3 0 1,1 0,-3A3,3 0 0,1 3,0Z" style="opacity: 1; stroke-width: 0px; fill: rgb(0, 0, 255); fill-opacity: 1;"/><path class="point" transform="translate(58.77,122.03)" d="M3,0A3,3 0 1,1 0,-3A3,3 0 0,1 3,0Z" style="opacity: 1; stroke-width: 0px; fill: rgb(0, 0, 255); fill-opacity: 1;"/><path class="point" transform="translate(92.66,128.97)" d="M3,0A3,3 0 1,1 0,-3A3,3 0 0,1 3,0Z" style="opacity: 1; stroke-width: 0px; fill: rgb(0, 0, 255); fill-opacity: 1;"/><path class="point" transform="translate(126.55,101.23)" d="M3,0A3,3 0 1,1 0,-3A3,3 0 0,1 3,0Z" style="opacity: 1; stroke-width: 0px; fill: rgb(0, 0, 255); fill-opacity: 1;"/><path class="point" transform="translate(160.44,73.5)" d="M3,0A3,3 0 1,1 0,-3A3,3 0 0,1 3,0Z" style="opacity: 1; stroke-width: 0px; fill: rgb(0, 0, 255); fill-opacity: 1;"/><path class="point" transform="translate(194.33,31.9)" d="M3,0A3,3 0 1,1 0,-3A3,3 0 0,1 3,0Z" style="opacity: 1; stroke-width: 0px; fill: rgb(0, 0, 255); fill-opacity: 1;"/><path class="point" transform="translate(228.22,52.7)" d="M3,0A3,3 0 1,1 0,-3A3,3 0 0,1 3,0Z" style="opacity: 1; stroke-width: 0px; fill: rgb(0, 0, 255); fill-opacity: 1;"/><path class="point" transform="translate(262.11,45.77)" d="M3,0A3,3 0 1,1 0,-3A3,3 0 0,1 3,0Z" style="opacity: 1; stroke-width: 0px; fill: rgb(0, 0, 255); fill-opacity: 1;"/><path class="point" transform="translate(296,45.77)" d="M3,0A3,3 0 1,1 0,-3A3,3 0 0,1 3,0Z" style="opacity: 1; stroke-width: 0px; fill: rgb(0, 0, 255); fill-opacity: 1;"/><path class="point" transform="translate(329.89,11.1)" d="M3,0A3,3 0 1,1 0,-3A3,3 0 0,1 3,0Z" style="opacity: 1; stroke-width: 0px; fill: rgb(0, 0, 255); fill-opacity: 1;"/><path class="point" transform="translate(363.78,73.5)" d="M3,0A3,3 0 1,1 0,-3A3,3 0 0,1 3,0Z" style="opacity: 1; stroke-width: 0px; fill: rgb(0, 0, 255); fill-opacity: 1;"/><path class="point" transform="translate(397.67,115.1)" d="M3,0A3,3 0 1,1 0,-3A3,3 0 0,1 3,0Z" style="opacity: 1; stroke-width: 0px; fill: rgb(0, 0, 255); fill-opacity: 1;"/></g><g class="text"/></g></g></g></g><path class="xlines-above crisp" d="M0,0" style="fill: none;"/><path class="ylines-above crisp" d="M0,0" style="fill: none;"/><g class="overlines-above"/><g class="xaxislayer-above"><g class="x3tick"><text text-anchor="middle" x="0" y="541" transform="translate(85.88,0)" style="font-family: 'Source Sans', sans-serif; font-size: 12px; fill: rgb(128, 132, 149); fill-opacity: 1; white-space: pre; opacity: 1;">0</text></g><g class="x3tick"><text text-anchor="middle" x="0" y="541" style="font-family: 'Source Sans', sans-serif; font-size: 12px; fill: rgb(128, 132, 149); fill-opacity: 1; white-space: pre; opacity: 1;" transform="translate(153.66,0)">2</text></g><g class="x3tick"><text text-anchor="middle" x="0" y="541" style="font-family: 'Source Sans', sans-serif; font-size: 12px; fill: rgb(128, 132, 149); fill-opacity: 1; white-space: pre; opacity: 1;" transform="translate(221.44,0)">4</text></g><g class="x3tick"><text text-anchor="middle" x="0" y="541" style="font-family: 'Source Sans', sans-serif; font-size: 12px; fill: rgb(128, 132, 149); fill-opacity: 1; white-space: pre; opacity: 1;" transform="translate(289.22,0)">6</text></g><g class="x3tick"><text text-anchor="middle" x="0" y="541" style="font-family: 'Source Sans', sans-serif; font-size: 12px; fill: rgb(128, 132, 149); fill-opacity: 1; white-space: pre; opacity: 1;" transform="translate(357,0)">8</text></g><g class="x3tick"><text text-anchor="middle" x="0" y="541" style="font-family: 'Source Sans', sans-serif; font-size: 12px; fill: rgb(128, 132, 149); fill-opacity: 1; white-space: pre; opacity: 1;" transform="translate(424.78,0)">10</text></g></g><g class="yaxislayer-above"><g class="y3tick"><text text-anchor="end" x="52" y="4.199999999999999" transform="translate(0,508.9)" style="font-family: 'Source Sans', sans-serif; font-size: 12px; fill: rgb(128, 132, 149); fill-opacity: 1; white-space: pre; opacity: 1;">0</text></g><g class="y3tick"><text text-anchor="end" x="52" y="4.199999999999999" style="font-family: 'Source Sans', sans-serif; font-size: 12px; fill: rgb(128, 132, 149); fill-opacity: 1; white-space: pre; opacity: 1;" transform="translate(0,474.23)">5</text></g><g class="y3tick"><text text-anchor="end" x="52" y="4.199999999999999" style="font-family: 'Source Sans', sans-serif; font-size: 12px; fill: rgb(128, 132, 149); fill-opacity: 1; white-space: pre; opacity: 1;" transform="translate(0,439.57)">10</text></g><g class="y3tick"><text text-anchor="end" x="52" y="4.199999999999999" style="font-family: 'Source Sans', sans-serif; font-size: 12px; fill: rgb(128, 132, 149); fill-opacity: 1; white-space: pre; opacity: 1;" transform="translate(0,404.9)">15</text></g></g><g class="overaxes-above"/></g><g class="subplot x4y4"><g class="layer-subplot"><g class="shapelayer"/><g class="imagelayer"/></g><g class="minor-gridlayer"><g class="x4"/><g class="y4"/></g><g class="gridlayer"><g class="x4"/><g class="y4"><path class="y4grid crisp" transform="translate(0,481.21)" d="M577.45,0h422.54999999999995" style="stroke: rgb(230, 234, 241); stroke-opacity: 1; stroke-width: 1px;"/><path class="y4grid crisp" transform="translate(0,442.42)" d="M577.45,0h422.54999999999995" style="stroke: rgb(230, 234, 241); stroke-opacity: 1; stroke-width: 1px;"/><path class="y4grid crisp" transform="translate(0,403.63)" d="M577.45,0h422.54999999999995" style="stroke: rgb(230, 234, 241); stroke-opacity: 1; stroke-width: 1px;"/></g></g><g class="zerolinelayer"><path class="y4zl zl crisp" transform="translate(0,520)" d="M577.45,0h422.54999999999995" style="stroke: rgb(230, 234, 241); stroke-opacity: 1; stroke-width: 1px;"/></g><g class="layer-between"><g class="shapelayer"/><g class="imagelayer"/></g><path class="xlines-below"/><path class="ylines-below"/><g class="overlines-below"/><g class="xaxislayer-below"/><g class="yaxislayer-below"/><g class="overaxes-below"/><g class="overplot"><g class="x4y4" transform="translate(577.45,373)" clip-path="url(#clip24aa78x4y4plot)"><g class="barlayer mlayer"><g class="trace bars" style="opacity: 1;"><g class="points"><g class="point"><path d="M0,0Z" style="vector-effect: none; opacity: 1; stroke-width: 0px; fill: rgb(135, 206, 235); fill-opacity: 1;"/></g><g class="point"><path d="M38.73,147V131.48H66.9V147Z" style="vector-effect: none; opacity: 1; stroke-width: 0px; fill: rgb(135, 206, 235); fill-opacity: 1;"/></g><g class="point"><path d="M73.95,147V139.24H102.12V147Z" style="vector-effect: none; opacity: 1; stroke-width: 0px; fill: rgb(135, 206, 235); fill-opacity: 1;"/></g><g class="point"><path d="M109.16,147V108.21H137.33V147Z" style="vector-effect: none; opacity: 1; stroke-width: 0px; fill: rgb(135, 206, 235); fill-opacity: 1;"/></g><g class="point"><path d="M144.37,147V77.18H172.54V147Z" style="vector-effect: none; opacity: 1; stroke-width: 0px; fill: rgb(135, 206, 235); fill-opacity: 1;"/></g><g class="point"><path d="M179.58,147V30.63H207.75V147Z" style="vector-effect: none; opacity: 1; stroke-width: 0px; fill: rgb(135, 206, 235); fill-opacity: 1;"/></g><g class="point"><path d="M214.8,147V53.9H242.97V147Z" style="vector-effect: none; opacity: 1; stroke-width: 0px; fill: rgb(135, 206, 235); fill-opacity: 1;"/></g><g class="point"><path d="M250.01,147V46.14H278.18V147Z" style="vector-effect: none; opacity: 1; stroke-width: 0px; fill: rgb(135, 206, 235); fill-opacity: 1;"/></g><g class="point"><path d="M285.22,147V46.14H313.39V147Z" style="vector-effect: none; opacity: 1; stroke-width: 0px; fill: rgb(135, 206, 235); fill-opacity: 1;"/></g><g class="point"><path d="M320.43,147V7.35H348.6V147Z" style="vector-effect: none; opacity: 1; stroke-width: 0px; fill: rgb(135, 206, 235); fill-opacity: 1;"/></g><g class="point"><path d="M355.65,147V77.18H383.82V147Z" style="vector-effect: none; opacity: 1; stroke-width: 0px; fill: rgb(135, 206, 235); fill-opacity: 1;"/></g><g class="point"><path d="M390.86,147V123.73H419.03V147Z" style="vector-effect: none; opacity: 1; stroke-width: 0px; fill: rgb(135, 206, 235); fill-opacity: 1;"/></g></g></g></g></g></g><path class="xlines-above crisp" d="M0,0" style="fill: none;"/><path class="ylines-above crisp" d="M0,0" style="fill: none;"/><g class="overlines-above"/><g class="xaxislayer-above"><g class="x4tick"><text text-anchor="middle" x="0" y="541" transform="translate(595.0600000000001,0)" style="font-family: 'Source Sans', sans-serif; font-size: 12px; fill: rgb(128, 132, 149); fill-opacity: 1; white-space: pre; opacity: 1;">0</text></g><g class="x4tick"><text text-anchor="middle" x="0" y="541" style="font-family: 'Source Sans', sans-serif; font-size: 12px; fill: rgb(128, 132, 149); fill-opacity: 1; white-space: pre; opacity: 1;" transform="translate(665.48,0)">2</text></g><g class="x4tick"><text text-anchor="middle" x="0" y="541" style="font-family: 'Source Sans', sans-serif; font-size: 12px; fill: rgb(128, 132, 149); fill-opacity: 1; white-space: pre; opacity: 1;" transform="translate(735.9100000000001,0)">4</text></g><g class="x4tick"><text text-anchor="middle" x="0" y="541" style="font-family: 'Source Sans', sans-serif; font-size: 12px; fill: rgb(128, 132, 149); fill-opacity: 1; white-space: pre; opacity: 1;" transform="translate(806.33,0)">6</text></g><g class="x4tick"><text text-anchor="middle" x="0" y="541" style="font-family: 'Source Sans', sans-serif; font-size: 12px; fill: rgb(128, 132, 149); fill-opacity: 1; white-space: pre; opacity: 1;" transform="translate(876.76,0)">8</text></g><g class="x4tick"><text text-anchor="middle" x="0" y="541" style="font-family: 'Source Sans', sans-serif; font-size: 12px; fill: rgb(128, 132, 149); fill-opacity: 1; white-space: pre; opacity: 1;" transform="translate(947.1800000000001,0)">10</text></g></g><g class="yaxislayer-above"><g class="y4tick"><text text-anchor="end" x="568.45" y="4.199999999999999" transform="translate(0,520)" style="font-family: 'Source Sans', sans-serif; font-size: 12px; fill: rgb(128, 132, 149); fill-opacity: 1; white-space: pre; opacity: 1;">0</text></g><g class="y4tick"><text text-anchor="end" x="568.45" y="4.199999999999999" style="font-family: 'Source Sans', sans-serif; font-size: 12px; fill: rgb(128, 132, 149); fill-opacity: 1; white-space: pre; opacity: 1;" transform="translate(0,481.21)">5</text></g><g class="y4tick"><text text-anchor="end" x="568.45" y="4.199999999999999" style="font-family: 'Source Sans', sans-serif; font-size: 12px; fill: rgb(128, 132, 149); fill-opacity: 1; white-space: pre; opacity: 1;" transform="translate(0,442.42)">10</text></g><g class="y4tick"><text text-anchor="end" x="568.45" y="4.199999999999999" style="font-family: 'Source Sans', sans-serif; font-size: 12px; fill: rgb(128, 132, 149); fill-opacity: 1; white-space: pre; opacity: 1;" transform="translate(0,403.63)">15</text></g></g><g class="overaxes-above"/></g></g><g class="polarlayer"/><g class="smithlayer"/><g class="ternarylayer"/><g class="geolayer"/><g class="funnelarealayer"/><g class="pielayer"/><g class="iciclelayer"/><g class="treemaplayer"/><g class="sunburstlayer"/><g class="glimages"/><defs id="topdefs-24aa78"><g class="clips"/></defs><g class="layer-above"><g class="imagelayer"/><g class="shapelayer"/></g><g class="infolayer"><g class="g-gtitle"><text class="gtitle" x="4" y="50" text-anchor="start" dy="0em" style="opacity: 1; font-family: 'Source Sans', sans-serif; font-size: 16px; fill: rgb(38, 39, 48); fill-opacity: 1; white-space: pre;"><tspan style="font-weight:bold"><tspan style="font-weight:bold">Innovation Adoption Progress Over Steps</tspan></tspan></text></g><g class="g-xtitle"><text class="xtitle" x="272.275" y="293.3" text-anchor="middle" style="opacity: 1; font-family: 'Source Sans', sans-serif; font-size: 14px; fill: rgb(128, 132, 149); fill-opacity: 1; white-space: pre;">Simulation Step</text></g><g class="g-x2title"><text class="x2title" x="788.725" y="293.3" text-anchor="middle" style="opacity: 1; font-family: 'Source Sans', sans-serif; font-size: 14px; fill: rgb(128, 132, 149); fill-opacity: 1; white-space: pre;">Simulation Step</text></g><g class="g-x3title"><text class="x3title" x="272.275" y="566.3" text-anchor="middle" style="opacity: 1; font-family: 'Source Sans', sans-serif; font-size: 14px; fill: rgb(128, 132, 149); fill-opacity: 1; white-space: pre;">Simulation Step</text></g><g class="g-x4title"><text class="x4title" x="788.725" y="566.3" text-anchor="middle" style="opacity: 1; font-family: 'Source Sans', sans-serif; font-size: 14px; fill: rgb(128, 132, 149); fill-opacity: 1; white-space: pre;">Simulation Step</text></g><g class="g-ytitle" transform="translate(0.7001953125,0)"><text class="ytitle" transform="rotate(-90,13.699609375000001,173.50000000000006)" x="13.699609375000001" y="173.50000000000006" text-anchor="middle" style="opacity: 1; font-family: 'Source Sans', sans-serif; font-size: 14px; fill: rgb(128, 132, 149); fill-opacity: 1; white-space: pre;">Cumulative Adoption Rate (%)</text></g><g class="g-y2title"><text class="y2title" transform="rotate(-90,530.1498046875,173.50000000000006)" x="530.1498046875" y="173.50000000000006" text-anchor="middle" style="opacity: 1; font-family: 'Source Sans', sans-serif; font-size: 14px; fill: rgb(128, 132, 149); fill-opacity: 1; white-space: pre;">Cumulative Adoptions</text></g><g class="g-y3title"><text class="y3title" transform="rotate(-90,19.6625,446.5)" x="19.6625" y="446.5" text-anchor="middle" style="opacity: 1; font-family: 'Source Sans', sans-serif; font-size: 14px; fill: rgb(128, 132, 149); fill-opacity: 1; white-space: pre;">Adoption Rate (%)</text></g><g class="g-y4title"><text class="y4title" transform="rotate(-90,536.1126953125,446.5)" x="536.1126953125" y="446.5" text-anchor="middle" style="opacity: 1; font-family: 'Source Sans', sans-serif; font-size: 14px; fill: rgb(128, 132, 149); fill-opacity: 1; white-space: pre;">Adoptions</text></g><g class="annotation" data-index="0" style="opacity: 1;"><g class="annotation-text-g" transform="rotate(0,272.275,87.00000000000003)"><g class="cursor-pointer" transform="translate(154,74)"><rect class="bg" x="0.5" y="0.5" width="236" height="25" style="stroke-width: 1px; stroke: rgb(0, 0, 0); stroke-opacity: 0; fill: rgb(0, 0, 0); fill-opacity: 0;"/><text class="annotation-text" text-anchor="middle" x="118.6318359375" y="18" style="font-family: 'Source Sans', sans-serif; font-size: 16px; fill: rgb(128, 132, 149); fill-opacity: 1; white-space: pre;">Cumulative Adoption Rate per Step</text></g></g></g><g class="annotation" data-index="1" style="opacity: 1;"><g class="annotation-text-g" transform="rotate(0,788.725,87.00000000000003)"><g class="cursor-pointer" transform="translate(683,74)"><rect class="bg" x="0.5" y="0.5" width="210" height="25" style="stroke-width: 1px; stroke: rgb(0, 0, 0); stroke-opacity: 0; fill: rgb(0, 0, 0); fill-opacity: 0;"/><text class="annotation-text" text-anchor="middle" x="105.3818359375" y="18" style="font-family: 'Source Sans', sans-serif; font-size: 16px; fill: rgb(128, 132, 149); fill-opacity: 1; white-space: pre;">Cumulative Adoptions per Step</text></g></g></g><g class="annotation" data-index="2" style="opacity: 1;"><g class="annotation-text-g" transform="rotate(0,272.275,360)"><g class="cursor-pointer" transform="translate(193,347)"><rect class="bg" x="0.5" y="0.5" width="158" height="25" style="stroke-width: 1px; stroke: rgb(0, 0, 0); stroke-opacity: 0; fill: rgb(0, 0, 0); fill-opacity: 0;"/><text class="annotation-text" text-anchor="middle" x="79.6943359375" y="18" style="font-family: 'Source Sans', sans-serif; font-size: 16px; fill: rgb(128, 132, 149); fill-opacity: 1; white-space: pre;">Adoption Rate per Step</text></g></g></g><g class="annotation" data-index="3" style="opacity: 1;"><g class="annotation-text-g" transform="rotate(0,788.725,360)"><g class="cursor-pointer" transform="translate(723,347)"><rect class="bg" x="0.5" y="0.5" width="131" height="25" style="stroke-width: 1px; stroke: rgb(0, 0, 0); stroke-opacity: 0; fill: rgb(0, 0, 0); fill-opacity: 0;"/><text class="annotation-text" text-anchor="middle" x="66.4375" y="18" style="font-family: 'Source Sans', sans-serif; font-size: 16px; fill: rgb(128, 132, 149); fill-opacity: 1; white-space: pre;">Adoptions per Step</text></g></g></g></g></svg>