<svg class="main-svg" xmlns="http://www.w3.org/2000/svg" xmlns:xlink="http://www.w3.org/1999/xlink" width="1000" height="600" style="" viewBox="0 0 1000 600"><rect x="0" y="0" width="1000" height="600" style="fill: rgb(255, 255, 255); fill-opacity: 1;"/><defs id="defs-514069"><g class="clips"><clipPath id="clip514069xyplot" class="plotclip"><rect width="422.55" height="147"/></clipPath><clipPath id="clip514069x2y2plot" class="plotclip"><rect width="422.54999999999995" height="147"/></clipPath><clipPath id="clip514069x3y3plot" class="plotclip"><rect width="422.55" height="147"/></clipPath><clipPath id="clip514069x4y4plot" class="plotclip"><rect width="422.54999999999995" height="147"/></clipPath><clipPath class="axesclip" id="clip514069x"><rect x="61" y="0" width="422.55" height="600"/></clipPath><clipPath class="axesclip" id="clip514069y"><rect x="0" y="100.00000000000004" width="1000" height="147"/></clipPath><clipPath class="axesclip" id="clip514069xy"><rect x="61" y="100.00000000000004" width="422.55" height="147"/></clipPath><clipPath class="axesclip" id="clip514069y2"><rect x="0" y="100.00000000000004" width="1000" height="147"/></clipPath><clipPath class="axesclip" id="clip514069xy2"><rect x="61" y="100.00000000000004" width="422.55" height="147"/></clipPath><clipPath class="axesclip" id="clip514069y3"><rect x="0" y="373" width="1000" height="147"/></clipPath><clipPath class="axesclip" id="clip514069xy3"><rect x="61" y="373" width="422.55" height="147"/></clipPath><clipPath class="axesclip" id="clip514069y4"><rect x="0" y="373" width="1000" height="147"/></clipPath><clipPath class="axesclip" id="clip514069xy4"><rect x="61" y="373" width="422.55" height="147"/></clipPath><clipPath class="axesclip" id="clip514069x2"><rect x="577.45" y="0" width="422.54999999999995" height="600"/></clipPath><clipPath class="axesclip" id="clip514069x2y"><rect x="577.45" y="100.00000000000004" width="422.54999999999995" height="147"/></clipPath><clipPath class="axesclip" id="clip514069x2y2"><rect x="577.45" y="100.00000000000004" width="422.54999999999995" height="147"/></clipPath><clipPath class="axesclip" id="clip514069x2y3"><rect x="577.45" y="373" width="422.54999999999995" height="147"/></clipPath><clipPath class="axesclip" id="clip514069x2y4"><rect x="577.45" y="373" width="422.54999999999995" height="147"/></clipPath><clipPath class="axesclip" id="clip514069x3"><rect x="61" y="0" width="422.55" height="600"/></clipPath><clipPath class="axesclip" id="clip514069x3y"><rect x="61" y="100.00000000000004" width="422.55" height="147"/></clipPath><clipPath class="axesclip" id="clip514069x3y2"><rect x="61" y="100.00000000000004" width="422.55" height="147"/></clipPath><clipPath class="axesclip" id="clip514069x3y3"><rect x="61" y="373" width="422.55" height="147"/></clipPath><clipPath class="axesclip" id="clip514069x3y4"><rect x="61" y="373" width="422.55" height="147"/></clipPath><clipPath class="axesclip" id="clip514069x4"><rect x="577.45" y="0" width="422.54999999999995" height="600"/></clipPath><clipPath class="axesclip" id="clip514069x4y"><rect x="577.45" y="100.00000000000004" width="422.54999999999995" height="147"/></clipPath><clipPath class="axesclip" id="clip514069x4y2"><rect x="577.45" y="100.00000000000004" width="422.54999999999995" height="147"/></clipPath><clipPath class="axesclip" id="clip514069x4y3"><rect x="577.45" y="373" width="422.54999999999995" height="147"/></clipPath><clipPath class="axesclip" id="clip514069x4y4"><rect x="577.45" y="373" width="422.54999999999995" height="147"/></clipPath></g><g class="gradients"/><g class="patterns"/></defs><g class="bglayer"/><g class="layer-below"><g class="imagelayer"/><g class="shapelayer"/></g><g class="cartesianlayer"><g class="subplot xy"><g class="layer-subplot"><g class="shapelayer"/><g class="imagelayer"/></g><g class="minor-gridlayer"><g class="x"/><g class="y"/></g><g class="gridlayer"><g class="x"/><g class="y"><path class="ygrid crisp" transform="translate(0,172.87000000000006)" d="M61,0h422.55" style="stroke: rgb(230, 234, 241); stroke-opacity: 1; stroke-width: 1px;"/><path class="ygrid crisp" transform="translate(0,109.84000000000005)" d="M61,0h422.55" style="stroke: rgb(230, 234, 241); stroke-opacity: 1; stroke-width: 1px;"/></g></g><g class="zerolinelayer"><path class="yzl zl crisp" transform="translate(0,235.90000000000003)" d="M61,0h422.55" style="stroke: rgb(230, 234, 241); stroke-opacity: 1; stroke-width: 1px;"/></g><g class="layer-between"><g class="shapelayer"/><g class="imagelayer"/></g><path class="xlines-below"/><path class="ylines-below"/><g class="overlines-below"/><g class="xaxislayer-below"/><g class="yaxislayer-below"/><g class="overaxes-below"/><g class="overplot"><g class="xy" transform="translate(61,100.00000000000004)" clip-path="url(#clip514069xyplot)"><g class="scatterlayer mlayer"><g class="trace scatter tracef331fe" style="stroke-miterlimit: 2; opacity: 1;"><g class="fills"/><g class="errorbars"/><g class="lines"><path class="js-line" d="M24.88,135.9Q40.4,133.8 48.18,133.38C55.94,132.96 63.74,134 71.48,133.38C79.27,132.75 87.03,131.07 94.78,129.6C102.57,128.13 110.51,127.35 118.08,124.55C126.06,121.59 133.53,115.76 141.38,111.95C149.07,108.22 156.81,104.61 164.68,101.86C172.35,99.18 180.35,98.42 187.98,95.56C195.89,92.6 203.73,88.85 211.28,84.22C219.29,79.3 226.95,72.93 234.57,66.57C242.5,59.95 249.67,50.73 257.87,45.14C265.29,40.08 273.62,38.43 281.17,33.79C289.18,28.87 296.22,19.41 304.47,16.14C311.85,13.21 320,14.46 327.77,13.62C335.54,12.78 343.29,11.52 351.07,11.1C358.83,10.68 366.6,11.1 374.37,11.1Q382.14,11.1 397.67,11.1" style="vector-effect: none; fill: none; stroke: rgb(0, 0, 255); stroke-opacity: 1; stroke-width: 3px; opacity: 1;"/></g><g class="points"><path class="point" transform="translate(24.88,135.9)" d="M3,0A3,3 0 1,1 0,-3A3,3 0 0,1 3,0Z" style="opacity: 1; stroke-width: 0px; fill: rgb(0, 0, 255); fill-opacity: 1;"/><path class="point" transform="translate(48.18,133.38)" d="M3,0A3,3 0 1,1 0,-3A3,3 0 0,1 3,0Z" style="opacity: 1; stroke-width: 0px; fill: rgb(0, 0, 255); fill-opacity: 1;"/><path class="point" transform="translate(71.48,133.38)" d="M3,0A3,3 0 1,1 0,-3A3,3 0 0,1 3,0Z" style="opacity: 1; stroke-width: 0px; fill: rgb(0, 0, 255); fill-opacity: 1;"/><path class="point" transform="translate(94.78,129.6)" d="M3,0A3,3 0 1,1 0,-3A3,3 0 0,1 3,0Z" style="opacity: 1; stroke-width: 0px; fill: rgb(0, 0, 255); fill-opacity: 1;"/><path class="point" transform="translate(118.08,124.55)" d="M3,0A3,3 0 1,1 0,-3A3,3 0 0,1 3,0Z" style="opacity: 1; stroke-width: 0px; fill: rgb(0, 0, 255); fill-opacity: 1;"/><path class="point" transform="translate(141.38,111.95)" d="M3,0A3,3 0 1,1 0,-3A3,3 0 0,1 3,0Z" style="opacity: 1; stroke-width: 0px; fill: rgb(0, 0, 255); fill-opacity: 1;"/><path class="point" transform="translate(164.68,101.86)" d="M3,0A3,3 0 1,1 0,-3A3,3 0 0,1 3,0Z" style="opacity: 1; stroke-width: 0px; fill: rgb(0, 0, 255); fill-opacity: 1;"/><path class="point" transform="translate(187.98,95.56)" d="M3,0A3,3 0 1,1 0,-3A3,3 0 0,1 3,0Z" style="opacity: 1; stroke-width: 0px; fill: rgb(0, 0, 255); fill-opacity: 1;"/><path class="point" transform="translate(211.28,84.22)" d="M3,0A3,3 0 1,1 0,-3A3,3 0 0,1 3,0Z" style="opacity: 1; stroke-width: 0px; fill: rgb(0, 0, 255); fill-opacity: 1;"/><path class="point" transform="translate(234.57,66.57)" d="M3,0A3,3 0 1,1 0,-3A3,3 0 0,1 3,0Z" style="opacity: 1; stroke-width: 0px; fill: rgb(0, 0, 255); fill-opacity: 1;"/><path class="point" transform="translate(257.87,45.14)" d="M3,0A3,3 0 1,1 0,-3A3,3 0 0,1 3,0Z" style="opacity: 1; stroke-width: 0px; fill: rgb(0, 0, 255); fill-opacity: 1;"/><path class="point" transform="translate(281.17,33.79)" d="M3,0A3,3 0 1,1 0,-3A3,3 0 0,1 3,0Z" style="opacity: 1; stroke-width: 0px; fill: rgb(0, 0, 255); fill-opacity: 1;"/><path class="point" transform="translate(304.47,16.14)" d="M3,0A3,3 0 1,1 0,-3A3,3 0 0,1 3,0Z" style="opacity: 1; stroke-width: 0px; fill: rgb(0, 0, 255); fill-opacity: 1;"/><path class="point" transform="translate(327.77,13.62)" d="M3,0A3,3 0 1,1 0,-3A3,3 0 0,1 3,0Z" style="opacity: 1; stroke-width: 0px; fill: rgb(0, 0, 255); fill-opacity: 1;"/><path class="point" transform="translate(351.07,11.1)" d="M3,0A3,3 0 1,1 0,-3A3,3 0 0,1 3,0Z" style="opacity: 1; stroke-width: 0px; fill: rgb(0, 0, 255); fill-opacity: 1;"/><path class="point" transform="translate(374.37,11.1)" d="M3,0A3,3 0 1,1 0,-3A3,3 0 0,1 3,0Z" style="opacity: 1; stroke-width: 0px; fill: rgb(0, 0, 255); fill-opacity: 1;"/><path class="point" transform="translate(397.67,11.1)" d="M3,0A3,3 0 1,1 0,-3A3,3 0 0,1 3,0Z" style="opacity: 1; stroke-width: 0px; fill: rgb(0, 0, 255); fill-opacity: 1;"/></g><g class="text"/></g></g></g></g><path class="xlines-above crisp" d="M0,0" style="fill: none;"/><path class="ylines-above crisp" d="M0,0" style="fill: none;"/><g class="overlines-above"/><g class="xaxislayer-above"><g class="xtick"><text text-anchor="middle" x="0" y="268.00000000000006" transform="translate(85.88,0)" style="font-family: 'Source Sans', sans-serif; font-size: 12px; fill: rgb(128, 132, 149); fill-opacity: 1; white-space: pre; opacity: 1;">0</text></g><g class="xtick"><text text-anchor="middle" x="0" y="268.00000000000006" style="font-family: 'Source Sans', sans-serif; font-size: 12px; fill: rgb(128, 132, 149); fill-opacity: 1; white-space: pre; opacity: 1;" transform="translate(202.38,0)">5</text></g><g class="xtick"><text text-anchor="middle" x="0" y="268.00000000000006" style="font-family: 'Source Sans', sans-serif; font-size: 12px; fill: rgb(128, 132, 149); fill-opacity: 1; white-space: pre; opacity: 1;" transform="translate(318.87,0)">10</text></g><g class="xtick"><text text-anchor="middle" x="0" y="268.00000000000006" style="font-family: 'Source Sans', sans-serif; font-size: 12px; fill: rgb(128, 132, 149); fill-opacity: 1; white-space: pre; opacity: 1;" transform="translate(435.37,0)">15</text></g></g><g class="yaxislayer-above"><g class="ytick"><text text-anchor="end" x="52" y="4.199999999999999" transform="translate(0,235.90000000000003)" style="font-family: 'Source Sans', sans-serif; font-size: 12px; fill: rgb(128, 132, 149); fill-opacity: 1; white-space: pre; opacity: 1;">0</text></g><g class="ytick"><text text-anchor="end" x="52" y="4.199999999999999" style="font-family: 'Source Sans', sans-serif; font-size: 12px; fill: rgb(128, 132, 149); fill-opacity: 1; white-space: pre; opacity: 1;" transform="translate(0,172.87000000000006)">50</text></g><g class="ytick"><text text-anchor="end" x="52" y="4.199999999999999" style="font-family: 'Source Sans', sans-serif; font-size: 12px; fill: rgb(128, 132, 149); fill-opacity: 1; white-space: pre; opacity: 1;" transform="translate(0,109.84000000000005)">100</text></g></g><g class="overaxes-above"/></g><g class="subplot x2y2"><g class="layer-subplot"><g class="shapelayer"/><g class="imagelayer"/></g><g class="minor-gridlayer"><g class="x2"/><g class="y2"/></g><g class="gridlayer"><g class="x2"/><g class="y2"><path class="y2grid crisp" transform="translate(0,176.47000000000003)" d="M577.45,0h422.54999999999995" style="stroke: rgb(230, 234, 241); stroke-opacity: 1; stroke-width: 1px;"/><path class="y2grid crisp" transform="translate(0,105.94000000000004)" d="M577.45,0h422.54999999999995" style="stroke: rgb(230, 234, 241); stroke-opacity: 1; stroke-width: 1px;"/></g></g><g class="zerolinelayer"><path class="y2zl zl crisp" transform="translate(0,247.00000000000006)" d="M577.45,0h422.54999999999995" style="stroke: rgb(230, 234, 241); stroke-opacity: 1; stroke-width: 1px;"/></g><g class="layer-between"><g class="shapelayer"/><g class="imagelayer"/></g><path class="xlines-below"/><path class="ylines-below"/><g class="overlines-below"/><g class="xaxislayer-below"/><g class="yaxislayer-below"/><g class="overaxes-below"/><g class="overplot"><g class="x2y2" transform="translate(577.45,100.00000000000004)" clip-path="url(#clip514069x2y2plot)"><g class="barlayer mlayer"><g class="trace bars" style="opacity: 1;"><g class="points"><g class="point"><path d="M0,0Z" style="vector-effect: none; opacity: 1; stroke-width: 0px; fill: rgb(135, 206, 235); fill-opacity: 1;"/></g><g class="point"><path d="M27.34,147V144.18H47.23V147Z" style="vector-effect: none; opacity: 1; stroke-width: 0px; fill: rgb(135, 206, 235); fill-opacity: 1;"/></g><g class="point"><path d="M52.2,147V144.18H72.08V147Z" style="vector-effect: none; opacity: 1; stroke-width: 0px; fill: rgb(135, 206, 235); fill-opacity: 1;"/></g><g class="point"><path d="M77.05,147V139.95H96.94V147Z" style="vector-effect: none; opacity: 1; stroke-width: 0px; fill: rgb(135, 206, 235); fill-opacity: 1;"/></g><g class="point"><path d="M101.91,147V134.3H121.79V147Z" style="vector-effect: none; opacity: 1; stroke-width: 0px; fill: rgb(135, 206, 235); fill-opacity: 1;"/></g><g class="point"><path d="M126.76,147V120.2H146.65V147Z" style="vector-effect: none; opacity: 1; stroke-width: 0px; fill: rgb(135, 206, 235); fill-opacity: 1;"/></g><g class="point"><path d="M151.62,147V108.91H171.51V147Z" style="vector-effect: none; opacity: 1; stroke-width: 0px; fill: rgb(135, 206, 235); fill-opacity: 1;"/></g><g class="point"><path d="M176.48,147V101.86H196.36V147Z" style="vector-effect: none; opacity: 1; stroke-width: 0px; fill: rgb(135, 206, 235); fill-opacity: 1;"/></g><g class="point"><path d="M201.33,147V89.17H221.22V147Z" style="vector-effect: none; opacity: 1; stroke-width: 0px; fill: rgb(135, 206, 235); fill-opacity: 1;"/></g><g class="point"><path d="M226.19,147V69.42H246.07V147Z" style="vector-effect: none; opacity: 1; stroke-width: 0px; fill: rgb(135, 206, 235); fill-opacity: 1;"/></g><g class="point"><path d="M251.04,147V45.44H270.93V147Z" style="vector-effect: none; opacity: 1; stroke-width: 0px; fill: rgb(135, 206, 235); fill-opacity: 1;"/></g><g class="point"><path d="M275.9,147V32.74H295.78V147Z" style="vector-effect: none; opacity: 1; stroke-width: 0px; fill: rgb(135, 206, 235); fill-opacity: 1;"/></g><g class="point"><path d="M300.76,147V12.99H320.64V147Z" style="vector-effect: none; opacity: 1; stroke-width: 0px; fill: rgb(135, 206, 235); fill-opacity: 1;"/></g><g class="point"><path d="M325.61,147V10.17H345.5V147Z" style="vector-effect: none; opacity: 1; stroke-width: 0px; fill: rgb(135, 206, 235); fill-opacity: 1;"/></g><g class="point"><path d="M350.47,147V7.35H370.35V147Z" style="vector-effect: none; opacity: 1; stroke-width: 0px; fill: rgb(135, 206, 235); fill-opacity: 1;"/></g><g class="point"><path d="M375.32,147V7.35H395.21V147Z" style="vector-effect: none; opacity: 1; stroke-width: 0px; fill: rgb(135, 206, 235); fill-opacity: 1;"/></g><g class="point"><path d="M400.18,147V7.35H420.06V147Z" style="vector-effect: none; opacity: 1; stroke-width: 0px; fill: rgb(135, 206, 235); fill-opacity: 1;"/></g></g></g></g></g></g><path class="xlines-above crisp" d="M0,0" style="fill: none;"/><path class="ylines-above crisp" d="M0,0" style="fill: none;"/><g class="overlines-above"/><g class="xaxislayer-above"><g class="x2tick"><text text-anchor="middle" x="0" y="268.00000000000006" transform="translate(589.88,0)" style="font-family: 'Source Sans', sans-serif; font-size: 12px; fill: rgb(128, 132, 149); fill-opacity: 1; white-space: pre; opacity: 1;">0</text></g><g class="x2tick"><text text-anchor="middle" x="0" y="268.00000000000006" style="font-family: 'Source Sans', sans-serif; font-size: 12px; fill: rgb(128, 132, 149); fill-opacity: 1; white-space: pre; opacity: 1;" transform="translate(714.1600000000001,0)">5</text></g><g class="x2tick"><text text-anchor="middle" x="0" y="268.00000000000006" style="font-family: 'Source Sans', sans-serif; font-size: 12px; fill: rgb(128, 132, 149); fill-opacity: 1; white-space: pre; opacity: 1;" transform="translate(838.44,0)">10</text></g><g class="x2tick"><text text-anchor="middle" x="0" y="268.00000000000006" style="font-family: 'Source Sans', sans-serif; font-size: 12px; fill: rgb(128, 132, 149); fill-opacity: 1; white-space: pre; opacity: 1;" transform="translate(962.72,0)">15</text></g></g><g class="yaxislayer-above"><g class="y2tick"><text text-anchor="end" x="568.45" y="4.199999999999999" transform="translate(0,247.00000000000006)" style="font-family: 'Source Sans', sans-serif; font-size: 12px; fill: rgb(128, 132, 149); fill-opacity: 1; white-space: pre; opacity: 1;">0</text></g><g class="y2tick"><text text-anchor="end" x="568.45" y="4.199999999999999" style="font-family: 'Source Sans', sans-serif; font-size: 12px; fill: rgb(128, 132, 149); fill-opacity: 1; white-space: pre; opacity: 1;" transform="translate(0,176.47000000000003)">50</text></g><g class="y2tick"><text text-anchor="end" x="568.45" y="4.199999999999999" style="font-family: 'Source Sans', sans-serif; font-size: 12px; fill: rgb(128, 132, 149); fill-opacity: 1; white-space: pre; opacity: 1;" transform="translate(0,105.94000000000004)">100</text></g></g><g class="overaxes-above"/></g><g class="subplot x3y3"><g class="layer-subplot"><g class="shapelayer"/><g class="imagelayer"/></g><g class="minor-gridlayer"><g class="x3"/><g class="y3"/></g><g class="gridlayer"><g class="x3"/><g class="y3"><path class="y3grid crisp" transform="translate(0,472.19)" d="M61,0h422.55" style="stroke: rgb(230, 234, 241); stroke-opacity: 1; stroke-width: 1px;"/><path class="y3grid crisp" transform="translate(0,435.49)" d="M61,0h422.55" style="stroke: rgb(230, 234, 241); stroke-opacity: 1; stroke-width: 1px;"/><path class="y3grid crisp" transform="translate(0,398.78)" d="M61,0h422.55" style="stroke: rgb(230, 234, 241); stroke-opacity: 1; stroke-width: 1px;"/></g></g><g class="zerolinelayer"><path class="y3zl zl crisp" transform="translate(0,508.9)" d="M61,0h422.55" style="stroke: rgb(230, 234, 241); stroke-opacity: 1; stroke-width: 1px;"/></g><g class="layer-between"><g class="shapelayer"/><g class="imagelayer"/></g><path class="xlines-below"/><path class="ylines-below"/><g class="overlines-below"/><g class="xaxislayer-below"/><g class="yaxislayer-below"/><g class="overaxes-below"/><g class="overplot"><g class="x3y3" transform="translate(61,373)" clip-path="url(#clip514069x3y3plot)"><g class="scatterlayer mlayer"><g class="trace scatter trace0aa310" style="stroke-miterlimit: 2; opacity: 1;"><g class="fills"/><g class="errorbars"/><g class="lines"><path class="js-line" d="M24.88,135.9Q40.41,121.22 48.18,121.22C55.95,121.22 63.99,136.63 71.48,135.9C79.56,135.11 86.41,118.8 94.78,113.88C102.09,109.59 111.27,112.21 118.08,106.54C127.8,98.44 132.08,64.98 141.38,62.49C148.3,60.64 157.19,71.36 164.68,77.17C172.76,83.44 180.49,99.73 187.98,99.19C196.07,98.61 203.78,80.38 211.28,69.83C219.36,58.47 226.12,43.37 234.57,33.12C241.83,24.32 251.03,9.59 257.87,11.1C267.47,13.23 272.53,69.02 281.17,69.83C288.34,70.51 297.68,32.07 304.47,33.12C314.29,34.64 314.96,111.36 327.77,121.22C334.25,126.21 343.6,119.06 351.07,121.22C359.19,123.56 366.25,133.56 374.37,135.9Q381.84,138.06 397.67,135.9" style="vector-effect: none; fill: none; stroke: rgb(0, 0, 255); stroke-opacity: 1; stroke-width: 3px; opacity: 1;"/></g><g class="points"><path class="point" transform="translate(24.88,135.9)" d="M3,0A3,3 0 1,1 0,-3A3,3 0 0,1 3,0Z" style="opacity: 1; stroke-width: 0px; fill: rgb(0, 0, 255); fill-opacity: 1;"/><path class="point" transform="translate(48.18,121.22)" d="M3,0A3,3 0 1,1 0,-3A3,3 0 0,1 3,0Z" style="opacity: 1; stroke-width: 0px; fill: rgb(0, 0, 255); fill-opacity: 1;"/><path class="point" transform="translate(71.48,135.9)" d="M3,0A3,3 0 1,1 0,-3A3,3 0 0,1 3,0Z" style="opacity: 1; stroke-width: 0px; fill: rgb(0, 0, 255); fill-opacity: 1;"/><path class="point" transform="translate(94.78,113.88)" d="M3,0A3,3 0 1,1 0,-3A3,3 0 0,1 3,0Z" style="opacity: 1; stroke-width: 0px; fill: rgb(0, 0, 255); fill-opacity: 1;"/><path class="point" transform="translate(118.08,106.54)" d="M3,0A3,3 0 1,1 0,-3A3,3 0 0,1 3,0Z" style="opacity: 1; stroke-width: 0px; fill: rgb(0, 0, 255); fill-opacity: 1;"/><path class="point" transform="translate(141.38,62.49)" d="M3,0A3,3 0 1,1 0,-3A3,3 0 0,1 3,0Z" style="opacity: 1; stroke-width: 0px; fill: rgb(0, 0, 255); fill-opacity: 1;"/><path class="point" transform="translate(164.68,77.17)" d="M3,0A3,3 0 1,1 0,-3A3,3 0 0,1 3,0Z" style="opacity: 1; stroke-width: 0px; fill: rgb(0, 0, 255); fill-opacity: 1;"/><path class="point" transform="translate(187.98,99.19)" d="M3,0A3,3 0 1,1 0,-3A3,3 0 0,1 3,0Z" style="opacity: 1; stroke-width: 0px; fill: rgb(0, 0, 255); fill-opacity: 1;"/><path class="point" transform="translate(211.28,69.83)" d="M3,0A3,3 0 1,1 0,-3A3,3 0 0,1 3,0Z" style="opacity: 1; stroke-width: 0px; fill: rgb(0, 0, 255); fill-opacity: 1;"/><path class="point" transform="translate(234.57,33.12)" d="M3,0A3,3 0 1,1 0,-3A3,3 0 0,1 3,0Z" style="opacity: 1; stroke-width: 0px; fill: rgb(0, 0, 255); fill-opacity: 1;"/><path class="point" transform="translate(257.87,11.1)" d="M3,0A3,3 0 1,1 0,-3A3,3 0 0,1 3,0Z" style="opacity: 1; stroke-width: 0px; fill: rgb(0, 0, 255); fill-opacity: 1;"/><path class="point" transform="translate(281.17,69.83)" d="M3,0A3,3 0 1,1 0,-3A3,3 0 0,1 3,0Z" style="opacity: 1; stroke-width: 0px; fill: rgb(0, 0, 255); fill-opacity: 1;"/><path class="point" transform="translate(304.47,33.12)" d="M3,0A3,3 0 1,1 0,-3A3,3 0 0,1 3,0Z" style="opacity: 1; stroke-width: 0px; fill: rgb(0, 0, 255); fill-opacity: 1;"/><path class="point" transform="translate(327.77,121.22)" d="M3,0A3,3 0 1,1 0,-3A3,3 0 0,1 3,0Z" style="opacity: 1; stroke-width: 0px; fill: rgb(0, 0, 255); fill-opacity: 1;"/><path class="point" transform="translate(351.07,121.22)" d="M3,0A3,3 0 1,1 0,-3A3,3 0 0,1 3,0Z" style="opacity: 1; stroke-width: 0px; fill: rgb(0, 0, 255); fill-opacity: 1;"/><path class="point" transform="translate(374.37,135.9)" d="M3,0A3,3 0 1,1 0,-3A3,3 0 0,1 3,0Z" style="opacity: 1; stroke-width: 0px; fill: rgb(0, 0, 255); fill-opacity: 1;"/><path class="point" transform="translate(397.67,135.9)" d="M3,0A3,3 0 1,1 0,-3A3,3 0 0,1 3,0Z" style="opacity: 1; stroke-width: 0px; fill: rgb(0, 0, 255); fill-opacity: 1;"/></g><g class="text"/></g></g></g></g><path class="xlines-above crisp" d="M0,0" style="fill: none;"/><path class="ylines-above crisp" d="M0,0" style="fill: none;"/><g class="overlines-above"/><g class="xaxislayer-above"><g class="x3tick"><text text-anchor="middle" x="0" y="541" transform="translate(85.88,0)" style="font-family: 'Source Sans', sans-serif; font-size: 12px; fill: rgb(128, 132, 149); fill-opacity: 1; white-space: pre; opacity: 1;">0</text></g><g class="x3tick"><text text-anchor="middle" x="0" y="541" style="font-family: 'Source Sans', sans-serif; font-size: 12px; fill: rgb(128, 132, 149); fill-opacity: 1; white-space: pre; opacity: 1;" transform="translate(202.38,0)">5</text></g><g class="x3tick"><text text-anchor="middle" x="0" y="541" style="font-family: 'Source Sans', sans-serif; font-size: 12px; fill: rgb(128, 132, 149); fill-opacity: 1; white-space: pre; opacity: 1;" transform="translate(318.87,0)">10</text></g><g class="x3tick"><text text-anchor="middle" x="0" y="541" style="font-family: 'Source Sans', sans-serif; font-size: 12px; fill: rgb(128, 132, 149); fill-opacity: 1; white-space: pre; opacity: 1;" transform="translate(435.37,0)">15</text></g></g><g class="yaxislayer-above"><g class="y3tick"><text text-anchor="end" x="52" y="4.199999999999999" transform="translate(0,508.9)" style="font-family: 'Source Sans', sans-serif; font-size: 12px; fill: rgb(128, 132, 149); fill-opacity: 1; white-space: pre; opacity: 1;">0</text></g><g class="y3tick"><text text-anchor="end" x="52" y="4.199999999999999" style="font-family: 'Source Sans', sans-serif; font-size: 12px; fill: rgb(128, 132, 149); fill-opacity: 1; white-space: pre; opacity: 1;" transform="translate(0,472.19)">5</text></g><g class="y3tick"><text text-anchor="end" x="52" y="4.199999999999999" style="font-family: 'Source Sans', sans-serif; font-size: 12px; fill: rgb(128, 132, 149); fill-opacity: 1; white-space: pre; opacity: 1;" transform="translate(0,435.49)">10</text></g><g class="y3tick"><text text-anchor="end" x="52" y="4.199999999999999" style="font-family: 'Source Sans', sans-serif; font-size: 12px; fill: rgb(128, 132, 149); fill-opacity: 1; white-space: pre; opacity: 1;" transform="translate(0,398.78)">15</text></g></g><g class="overaxes-above"/></g><g class="subplot x4y4"><g class="layer-subplot"><g class="shapelayer"/><g class="imagelayer"/></g><g class="minor-gridlayer"><g class="x4"/><g class="y4"/></g><g class="gridlayer"><g class="x4"/><g class="y4"><path class="y4grid crisp" transform="translate(0,478.93)" d="M577.45,0h422.54999999999995" style="stroke: rgb(230, 234, 241); stroke-opacity: 1; stroke-width: 1px;"/><path class="y4grid crisp" transform="translate(0,437.85)" d="M577.45,0h422.54999999999995" style="stroke: rgb(230, 234, 241); stroke-opacity: 1; stroke-width: 1px;"/><path class="y4grid crisp" transform="translate(0,396.78)" d="M577.45,0h422.54999999999995" style="stroke: rgb(230, 234, 241); stroke-opacity: 1; stroke-width: 1px;"/></g></g><g class="zerolinelayer"><path class="y4zl zl crisp" transform="translate(0,520)" d="M577.45,0h422.54999999999995" style="stroke: rgb(230, 234, 241); stroke-opacity: 1; stroke-width: 1px;"/></g><g class="layer-between"><g class="shapelayer"/><g class="imagelayer"/></g><path class="xlines-below"/><path class="ylines-below"/><g class="overlines-below"/><g class="xaxislayer-below"/><g class="yaxislayer-below"/><g class="overaxes-below"/><g class="overplot"><g class="x4y4" transform="translate(577.45,373)" clip-path="url(#clip514069x4y4plot)"><g class="barlayer mlayer"><g class="trace bars" style="opacity: 1;"><g class="points"><g class="point"><path d="M0,0Z" style="vector-effect: none; opacity: 1; stroke-width: 0px; fill: rgb(135, 206, 235); fill-opacity: 1;"/></g><g class="point"><path d="M27.34,147V130.57H47.23V147Z" style="vector-effect: none; opacity: 1; stroke-width: 0px; fill: rgb(135, 206, 235); fill-opacity: 1;"/></g><g class="point"><path d="M0,0Z" style="vector-effect: none; opacity: 1; stroke-width: 0px; fill: rgb(135, 206, 235); fill-opacity: 1;"/></g><g class="point"><path d="M77.05,147V122.36H96.94V147Z" style="vector-effect: none; opacity: 1; stroke-width: 0px; fill: rgb(135, 206, 235); fill-opacity: 1;"/></g><g class="point"><path d="M101.91,147V114.14H121.79V147Z" style="vector-effect: none; opacity: 1; stroke-width: 0px; fill: rgb(135, 206, 235); fill-opacity: 1;"/></g><g class="point"><path d="M126.76,147V64.85H146.65V147Z" style="vector-effect: none; opacity: 1; stroke-width: 0px; fill: rgb(135, 206, 235); fill-opacity: 1;"/></g><g class="point"><path d="M151.62,147V81.28H171.51V147Z" style="vector-effect: none; opacity: 1; stroke-width: 0px; fill: rgb(135, 206, 235); fill-opacity: 1;"/></g><g class="point"><path d="M176.48,147V105.93H196.36V147Z" style="vector-effect: none; opacity: 1; stroke-width: 0px; fill: rgb(135, 206, 235); fill-opacity: 1;"/></g><g class="point"><path d="M201.33,147V73.07H221.22V147Z" style="vector-effect: none; opacity: 1; stroke-width: 0px; fill: rgb(135, 206, 235); fill-opacity: 1;"/></g><g class="point"><path d="M226.19,147V31.99H246.07V147Z" style="vector-effect: none; opacity: 1; stroke-width: 0px; fill: rgb(135, 206, 235); fill-opacity: 1;"/></g><g class="point"><path d="M251.04,147V7.35H270.93V147Z" style="vector-effect: none; opacity: 1; stroke-width: 0px; fill: rgb(135, 206, 235); fill-opacity: 1;"/></g><g class="point"><path d="M275.9,147V73.07H295.78V147Z" style="vector-effect: none; opacity: 1; stroke-width: 0px; fill: rgb(135, 206, 235); fill-opacity: 1;"/></g><g class="point"><path d="M300.76,147V31.99H320.64V147Z" style="vector-effect: none; opacity: 1; stroke-width: 0px; fill: rgb(135, 206, 235); fill-opacity: 1;"/></g><g class="point"><path d="M325.61,147V130.57H345.5V147Z" style="vector-effect: none; opacity: 1; stroke-width: 0px; fill: rgb(135, 206, 235); fill-opacity: 1;"/></g><g class="point"><path d="M350.47,147V130.57H370.35V147Z" style="vector-effect: none; opacity: 1; stroke-width: 0px; fill: rgb(135, 206, 235); fill-opacity: 1;"/></g><g class="point"><path d="M0,0Z" style="vector-effect: none; opacity: 1; stroke-width: 0px; fill: rgb(135, 206, 235); fill-opacity: 1;"/></g><g class="point"><path d="M0,0Z" style="vector-effect: none; opacity: 1; stroke-width: 0px; fill: rgb(135, 206, 235); fill-opacity: 1;"/></g></g></g></g></g></g><path class="xlines-above crisp" d="M0,0" style="fill: none;"/><path class="ylines-above crisp" d="M0,0" style="fill: none;"/><g class="overlines-above"/><g class="xaxislayer-above"><g class="x4tick"><text text-anchor="middle" x="0" y="541" transform="translate(589.88,0)" style="font-family: 'Source Sans', sans-serif; font-size: 12px; fill: rgb(128, 132, 149); fill-opacity: 1; white-space: pre; opacity: 1;">0</text></g><g class="x4tick"><text text-anchor="middle" x="0" y="541" style="font-family: 'Source Sans', sans-serif; font-size: 12px; fill: rgb(128, 132, 149); fill-opacity: 1; white-space: pre; opacity: 1;" transform="translate(714.1600000000001,0)">5</text></g><g class="x4tick"><text text-anchor="middle" x="0" y="541" style="font-family: 'Source Sans', sans-serif; font-size: 12px; fill: rgb(128, 132, 149); fill-opacity: 1; white-space: pre; opacity: 1;" transform="translate(838.44,0)">10</text></g><g class="x4tick"><text text-anchor="middle" x="0" y="541" style="font-family: 'Source Sans', sans-serif; font-size: 12px; fill: rgb(128, 132, 149); fill-opacity: 1; white-space: pre; opacity: 1;" transform="translate(962.72,0)">15</text></g></g><g class="yaxislayer-above"><g class="y4tick"><text text-anchor="end" x="568.45" y="4.199999999999999" transform="translate(0,520)" style="font-family: 'Source Sans', sans-serif; font-size: 12px; fill: rgb(128, 132, 149); fill-opacity: 1; white-space: pre; opacity: 1;">0</text></g><g class="y4tick"><text text-anchor="end" x="568.45" y="4.199999999999999" style="font-family: 'Source Sans', sans-serif; font-size: 12px; fill: rgb(128, 132, 149); fill-opacity: 1; white-space: pre; opacity: 1;" transform="translate(0,478.93)">5</text></g><g class="y4tick"><text text-anchor="end" x="568.45" y="4.199999999999999" style="font-family: 'Source Sans', sans-serif; font-size: 12px; fill: rgb(128, 132, 149); fill-opacity: 1; white-space: pre; opacity: 1;" transform="translate(0,437.85)">10</text></g><g class="y4tick"><text text-anchor="end" x="568.45" y="4.199999999999999" style="font-family: 'Source Sans', sans-serif; font-size: 12px; fill: rgb(128, 132, 149); fill-opacity: 1; white-space: pre; opacity: 1;" transform="translate(0,396.78)">15</text></g></g><g class="overaxes-above"/></g></g><g class="polarlayer"/><g class="smithlayer"/><g class="ternarylayer"/><g class="geolayer"/><g class="funnelarealayer"/><g class="pielayer"/><g class="iciclelayer"/><g class="treemaplayer"/><g class="sunburstlayer"/><g class="glimages"/><defs id="topdefs-514069"><g class="clips"/></defs><g class="layer-above"><g class="imagelayer"/><g class="shapelayer"/></g><g class="infolayer"><g class="g-gtitle"><text class="gtitle" x="4" y="50" text-anchor="start" dy="0em" style="opacity: 1; font-family: 'Source Sans', sans-serif; font-size: 16px; fill: rgb(38, 39, 48); fill-opacity: 1; white-space: pre;"><tspan style="font-weight:bold"><tspan style="font-weight:bold">Innovation Adoption Progress Over Steps</tspan></tspan></text></g><g class="g-xtitle"><text class="xtitle" x="272.275" y="293.3" text-anchor="middle" style="opacity: 1; font-family: 'Source Sans', sans-serif; font-size: 14px; fill: rgb(128, 132, 149); fill-opacity: 1; white-space: pre;">Simulation Step</text></g><g class="g-x2title"><text class="x2title" x="788.725" y="293.3" text-anchor="middle" style="opacity: 1; font-family: 'Source Sans', sans-serif; font-size: 14px; fill: rgb(128, 132, 149); fill-opacity: 1; white-space: pre;">Simulation Step</text></g><g class="g-x3title"><text class="x3title" x="272.275" y="566.3" text-anchor="middle" style="opacity: 1; font-family: 'Source Sans', sans-serif; font-size: 14px; fill: rgb(128, 132, 149); fill-opacity: 1; white-space: pre;">Simulation Step</text></g><g class="g-x4title"><text class="x4title" x="788.725" y="566.3" text-anchor="middle" style="opacity: 1; font-family: 'Source Sans', sans-serif; font-size: 14px; fill: rgb(128, 132, 149); fill-opacity: 1; white-space: pre;">Simulation Step</text></g><g class="g-ytitle" transform="translate(0.7001953125,0)"><text class="ytitle" transform="rotate(-90,13.699609375000001,173.50000000000006)" x="13.699609375000001" y="173.50000000000006" text-anchor="middle" style="opacity: 1; font-family: 'Source Sans', sans-serif; font-size: 14px; fill: rgb(128, 132, 149); fill-opacity: 1; white-space: pre;">Cumulative Adoption Rate (%)</text></g><g class="g-y2title"><text class="y2title" transform="rotate(-90,530.1498046875,173.50000000000006)" x="530.1498046875" y="173.50000000000006" text-anchor="middle" style="opacity: 1; font-family: 'Source Sans', sans-serif; font-size: 14px; fill: rgb(128, 132, 149); fill-opacity: 1; white-space: pre;">Cumulative Adoptions</text></g><g class="g-y3title"><text class="y3title" transform="rotate(-90,19.6625,446.5)" x="19.6625" y="446.5" text-anchor="middle" style="opacity: 1; font-family: 'Source Sans', sans-serif; font-size: 14px; fill: rgb(128, 132, 149); fill-opacity: 1; white-space: pre;">Adoption Rate (%)</text></g><g class="g-y4title"><text class="y4title" transform="rotate(-90,536.1126953125,446.5)" x="536.1126953125" y="446.5" text-anchor="middle" style="opacity: 1; font-family: 'Source Sans', sans-serif; font-size: 14px; fill: rgb(128, 132, 149); fill-opacity: 1; white-space: pre;">Adoptions</text></g><g class="annotation" data-index="0" style="opacity: 1;"><g class="annotation-text-g" transform="rotate(0,272.275,87.00000000000003)"><g class="cursor-pointer" transform="translate(154,74)"><rect class="bg" x="0.5" y="0.5" width="236" height="25" style="stroke-width: 1px; stroke: rgb(0, 0, 0); stroke-opacity: 0; fill: rgb(0, 0, 0); fill-opacity: 0;"/><text class="annotation-text" text-anchor="middle" x="118.6318359375" y="18" style="font-family: 'Source Sans', sans-serif; font-size: 16px; fill: rgb(128, 132, 149); fill-opacity: 1; white-space: pre;">Cumulative Adoption Rate per Step</text></g></g></g><g class="annotation" data-index="1" style="opacity: 1;"><g class="annotation-text-g" transform="rotate(0,788.725,87.00000000000003)"><g class="cursor-pointer" transform="translate(683,74)"><rect class="bg" x="0.5" y="0.5" width="210" height="25" style="stroke-width: 1px; stroke: rgb(0, 0, 0); stroke-opacity: 0; fill: rgb(0, 0, 0); fill-opacity: 0;"/><text class="annotation-text" text-anchor="middle" x="105.3818359375" y="18" style="font-family: 'Source Sans', sans-serif; font-size: 16px; fill: rgb(128, 132, 149); fill-opacity: 1; white-space: pre;">Cumulative Adoptions per Step</text></g></g></g><g class="annotation" data-index="2" style="opacity: 1;"><g class="annotation-text-g" transform="rotate(0,272.275,360)"><g class="cursor-pointer" transform="translate(193,347)"><rect class="bg" x="0.5" y="0.5" width="158" height="25" style="stroke-width: 1px; stroke: rgb(0, 0, 0); stroke-opacity: 0; fill: rgb(0, 0, 0); fill-opacity: 0;"/><text class="annotation-text" text-anchor="middle" x="79.6943359375" y="18" style="font-family: 'Source Sans', sans-serif; font-size: 16px; fill: rgb(128, 132, 149); fill-opacity: 1; white-space: pre;">Adoption Rate per Step</text></g></g></g><g class="annotation" data-index="3" style="opacity: 1;"><g class="annotation-text-g" transform="rotate(0,788.725,360)"><g class="cursor-pointer" transform="translate(723,347)"><rect class="bg" x="0.5" y="0.5" width="131" height="25" style="stroke-width: 1px; stroke: rgb(0, 0, 0); stroke-opacity: 0; fill: rgb(0, 0, 0); fill-opacity: 0;"/><text class="annotation-text" text-anchor="middle" x="66.4375" y="18" style="font-family: 'Source Sans', sans-serif; font-size: 16px; fill: rgb(128, 132, 149); fill-opacity: 1; white-space: pre;">Adoptions per Step</text></g></g></g></g></svg>