<svg class="main-svg" xmlns="http://www.w3.org/2000/svg" xmlns:xlink="http://www.w3.org/1999/xlink" width="1000" height="500" style="" viewBox="0 0 1000 500"><rect x="0" y="0" width="1000" height="500" style="fill: rgb(255, 255, 255); fill-opacity: 1;"/><defs id="defs-c05412"><g class="clips"><clipPath id="clipc05412xyplot" class="plotclip"><rect width="810" height="320"/></clipPath><clipPath class="axesclip" id="clipc05412x"><rect x="61" y="0" width="810" height="500"/></clipPath><clipPath class="axesclip" id="clipc05412y"><rect x="0" y="100" width="1000" height="320"/></clipPath><clipPath class="axesclip" id="clipc05412xy"><rect x="61" y="100" width="810" height="320"/></clipPath></g><g class="gradients"/><g class="patterns"/></defs><g class="bglayer"/><g class="layer-below"><g class="imagelayer"/><g class="shapelayer"/></g><g class="cartesianlayer"><g class="subplot xy"><g class="layer-subplot"><g class="shapelayer"/><g class="imagelayer"/></g><g class="minor-gridlayer"><g class="x"/><g class="y"/></g><g class="gridlayer"><g class="x"/><g class="y"><path class="ygrid crisp" transform="translate(0,343.4)" d="M61,0h810" style="stroke: rgb(230, 234, 241); stroke-opacity: 1; stroke-width: 1px;"/><path class="ygrid crisp" transform="translate(0,287.8)" d="M61,0h810" style="stroke: rgb(230, 234, 241); stroke-opacity: 1; stroke-width: 1px;"/><path class="ygrid crisp" transform="translate(0,232.2)" d="M61,0h810" style="stroke: rgb(230, 234, 241); stroke-opacity: 1; stroke-width: 1px;"/><path class="ygrid crisp" transform="translate(0,176.6)" d="M61,0h810" style="stroke: rgb(230, 234, 241); stroke-opacity: 1; stroke-width: 1px;"/><path class="ygrid crisp" transform="translate(0,121)" d="M61,0h810" style="stroke: rgb(230, 234, 241); stroke-opacity: 1; stroke-width: 1px;"/></g></g><g class="zerolinelayer"><path class="yzl zl crisp" transform="translate(0,399)" d="M61,0h810" style="stroke: rgb(230, 234, 241); stroke-opacity: 1; stroke-width: 1px;"/></g><g class="layer-between"><g class="shapelayer"/><g class="imagelayer"/></g><path class="xlines-below"/><path class="ylines-below"/><g class="overlines-below"/><g class="xaxislayer-below"/><g class="yaxislayer-below"/><g class="overaxes-below"/><g class="overplot"><g class="xy" transform="translate(61,100)" clip-path="url(#clipc05412xyplot)"><g class="scatterlayer mlayer"><g class="trace scatter tracee49b9d" style="stroke-miterlimit: 2; opacity: 1;"><g class="fills"/><g class="errorbars"/><g class="lines"><path class="js-line" d="M45.5,21L764.5,21" style="vector-effect: none; fill: none; stroke: rgb(255, 107, 107); stroke-opacity: 1; stroke-width: 3px; opacity: 1;"/></g><g class="points"><path class="point" transform="translate(45.5,21)" d="M4,0A4,4 0 1,1 0,-4A4,4 0 0,1 4,0Z" style="opacity: 1; stroke-width: 0px; fill: rgb(255, 107, 107); fill-opacity: 1;"/><path class="point" transform="translate(93.43,21)" d="M4,0A4,4 0 1,1 0,-4A4,4 0 0,1 4,0Z" style="opacity: 1; stroke-width: 0px; fill: rgb(255, 107, 107); fill-opacity: 1;"/><path class="point" transform="translate(141.37,21)" d="M4,0A4,4 0 1,1 0,-4A4,4 0 0,1 4,0Z" style="opacity: 1; stroke-width: 0px; fill: rgb(255, 107, 107); fill-opacity: 1;"/><path class="point" transform="translate(189.3,21)" d="M4,0A4,4 0 1,1 0,-4A4,4 0 0,1 4,0Z" style="opacity: 1; stroke-width: 0px; fill: rgb(255, 107, 107); fill-opacity: 1;"/><path class="point" transform="translate(237.23,21)" d="M4,0A4,4 0 1,1 0,-4A4,4 0 0,1 4,0Z" style="opacity: 1; stroke-width: 0px; fill: rgb(255, 107, 107); fill-opacity: 1;"/><path class="point" transform="translate(285.17,21)" d="M4,0A4,4 0 1,1 0,-4A4,4 0 0,1 4,0Z" style="opacity: 1; stroke-width: 0px; fill: rgb(255, 107, 107); fill-opacity: 1;"/><path class="point" transform="translate(333.1,21)" d="M4,0A4,4 0 1,1 0,-4A4,4 0 0,1 4,0Z" style="opacity: 1; stroke-width: 0px; fill: rgb(255, 107, 107); fill-opacity: 1;"/><path class="point" transform="translate(381.03,21)" d="M4,0A4,4 0 1,1 0,-4A4,4 0 0,1 4,0Z" style="opacity: 1; stroke-width: 0px; fill: rgb(255, 107, 107); fill-opacity: 1;"/><path class="point" transform="translate(428.97,21)" d="M4,0A4,4 0 1,1 0,-4A4,4 0 0,1 4,0Z" style="opacity: 1; stroke-width: 0px; fill: rgb(255, 107, 107); fill-opacity: 1;"/><path class="point" transform="translate(476.9,21)" d="M4,0A4,4 0 1,1 0,-4A4,4 0 0,1 4,0Z" style="opacity: 1; stroke-width: 0px; fill: rgb(255, 107, 107); fill-opacity: 1;"/><path class="point" transform="translate(524.83,21)" d="M4,0A4,4 0 1,1 0,-4A4,4 0 0,1 4,0Z" style="opacity: 1; stroke-width: 0px; fill: rgb(255, 107, 107); fill-opacity: 1;"/><path class="point" transform="translate(572.77,21)" d="M4,0A4,4 0 1,1 0,-4A4,4 0 0,1 4,0Z" style="opacity: 1; stroke-width: 0px; fill: rgb(255, 107, 107); fill-opacity: 1;"/><path class="point" transform="translate(620.7,21)" d="M4,0A4,4 0 1,1 0,-4A4,4 0 0,1 4,0Z" style="opacity: 1; stroke-width: 0px; fill: rgb(255, 107, 107); fill-opacity: 1;"/><path class="point" transform="translate(668.63,21)" d="M4,0A4,4 0 1,1 0,-4A4,4 0 0,1 4,0Z" style="opacity: 1; stroke-width: 0px; fill: rgb(255, 107, 107); fill-opacity: 1;"/><path class="point" transform="translate(716.57,21)" d="M4,0A4,4 0 1,1 0,-4A4,4 0 0,1 4,0Z" style="opacity: 1; stroke-width: 0px; fill: rgb(255, 107, 107); fill-opacity: 1;"/><path class="point" transform="translate(764.5,21)" d="M4,0A4,4 0 1,1 0,-4A4,4 0 0,1 4,0Z" style="opacity: 1; stroke-width: 0px; fill: rgb(255, 107, 107); fill-opacity: 1;"/></g><g class="text"/></g><g class="trace scatter tracebb3a53" style="stroke-miterlimit: 2; opacity: 1;"><g class="fills"/><g class="errorbars"/><g class="lines"><path class="js-line" d="M45.5,299L93.43,299L141.37,259.29L189.3,179.86L237.23,40.86L285.17,21L333.1,21L764.5,21" style="vector-effect: none; fill: none; stroke: rgb(78, 205, 196); stroke-opacity: 1; stroke-width: 3px; opacity: 1;"/></g><g class="points"><path class="point" transform="translate(45.5,299)" d="M4,0A4,4 0 1,1 0,-4A4,4 0 0,1 4,0Z" style="opacity: 1; stroke-width: 0px; fill: rgb(78, 205, 196); fill-opacity: 1;"/><path class="point" transform="translate(93.43,299)" d="M4,0A4,4 0 1,1 0,-4A4,4 0 0,1 4,0Z" style="opacity: 1; stroke-width: 0px; fill: rgb(78, 205, 196); fill-opacity: 1;"/><path class="point" transform="translate(141.37,259.29)" d="M4,0A4,4 0 1,1 0,-4A4,4 0 0,1 4,0Z" style="opacity: 1; stroke-width: 0px; fill: rgb(78, 205, 196); fill-opacity: 1;"/><path class="point" transform="translate(189.3,179.86)" d="M4,0A4,4 0 1,1 0,-4A4,4 0 0,1 4,0Z" style="opacity: 1; stroke-width: 0px; fill: rgb(78, 205, 196); fill-opacity: 1;"/><path class="point" transform="translate(237.23,40.86)" d="M4,0A4,4 0 1,1 0,-4A4,4 0 0,1 4,0Z" style="opacity: 1; stroke-width: 0px; fill: rgb(78, 205, 196); fill-opacity: 1;"/><path class="point" transform="translate(285.17,21)" d="M4,0A4,4 0 1,1 0,-4A4,4 0 0,1 4,0Z" style="opacity: 1; stroke-width: 0px; fill: rgb(78, 205, 196); fill-opacity: 1;"/><path class="point" transform="translate(333.1,21)" d="M4,0A4,4 0 1,1 0,-4A4,4 0 0,1 4,0Z" style="opacity: 1; stroke-width: 0px; fill: rgb(78, 205, 196); fill-opacity: 1;"/><path class="point" transform="translate(381.03,21)" d="M4,0A4,4 0 1,1 0,-4A4,4 0 0,1 4,0Z" style="opacity: 1; stroke-width: 0px; fill: rgb(78, 205, 196); fill-opacity: 1;"/><path class="point" transform="translate(428.97,21)" d="M4,0A4,4 0 1,1 0,-4A4,4 0 0,1 4,0Z" style="opacity: 1; stroke-width: 0px; fill: rgb(78, 205, 196); fill-opacity: 1;"/><path class="point" transform="translate(476.9,21)" d="M4,0A4,4 0 1,1 0,-4A4,4 0 0,1 4,0Z" style="opacity: 1; stroke-width: 0px; fill: rgb(78, 205, 196); fill-opacity: 1;"/><path class="point" transform="translate(524.83,21)" d="M4,0A4,4 0 1,1 0,-4A4,4 0 0,1 4,0Z" style="opacity: 1; stroke-width: 0px; fill: rgb(78, 205, 196); fill-opacity: 1;"/><path class="point" transform="translate(572.77,21)" d="M4,0A4,4 0 1,1 0,-4A4,4 0 0,1 4,0Z" style="opacity: 1; stroke-width: 0px; fill: rgb(78, 205, 196); fill-opacity: 1;"/><path class="point" transform="translate(620.7,21)" d="M4,0A4,4 0 1,1 0,-4A4,4 0 0,1 4,0Z" style="opacity: 1; stroke-width: 0px; fill: rgb(78, 205, 196); fill-opacity: 1;"/><path class="point" transform="translate(668.63,21)" d="M4,0A4,4 0 1,1 0,-4A4,4 0 0,1 4,0Z" style="opacity: 1; stroke-width: 0px; fill: rgb(78, 205, 196); fill-opacity: 1;"/><path class="point" transform="translate(716.57,21)" d="M4,0A4,4 0 1,1 0,-4A4,4 0 0,1 4,0Z" style="opacity: 1; stroke-width: 0px; fill: rgb(78, 205, 196); fill-opacity: 1;"/><path class="point" transform="translate(764.5,21)" d="M4,0A4,4 0 1,1 0,-4A4,4 0 0,1 4,0Z" style="opacity: 1; stroke-width: 0px; fill: rgb(78, 205, 196); fill-opacity: 1;"/></g><g class="text"/></g><g class="trace scatter tracef9bce1" style="stroke-miterlimit: 2; opacity: 1;"><g class="fills"/><g class="errorbars"/><g class="lines"><path class="js-line" d="M45.5,299L93.43,299L141.37,290.82L189.3,290.82L237.23,266.29L285.17,225.41L333.1,192.71L381.03,143.65L428.97,86.41L476.9,45.53L524.83,29.18L572.77,21L620.7,21L764.5,21" style="vector-effect: none; fill: none; stroke: rgb(69, 183, 209); stroke-opacity: 1; stroke-width: 3px; opacity: 1;"/></g><g class="points"><path class="point" transform="translate(45.5,299)" d="M4,0A4,4 0 1,1 0,-4A4,4 0 0,1 4,0Z" style="opacity: 1; stroke-width: 0px; fill: rgb(69, 183, 209); fill-opacity: 1;"/><path class="point" transform="translate(93.43,299)" d="M4,0A4,4 0 1,1 0,-4A4,4 0 0,1 4,0Z" style="opacity: 1; stroke-width: 0px; fill: rgb(69, 183, 209); fill-opacity: 1;"/><path class="point" transform="translate(141.37,290.82)" d="M4,0A4,4 0 1,1 0,-4A4,4 0 0,1 4,0Z" style="opacity: 1; stroke-width: 0px; fill: rgb(69, 183, 209); fill-opacity: 1;"/><path class="point" transform="translate(189.3,290.82)" d="M4,0A4,4 0 1,1 0,-4A4,4 0 0,1 4,0Z" style="opacity: 1; stroke-width: 0px; fill: rgb(69, 183, 209); fill-opacity: 1;"/><path class="point" transform="translate(237.23,266.29)" d="M4,0A4,4 0 1,1 0,-4A4,4 0 0,1 4,0Z" style="opacity: 1; stroke-width: 0px; fill: rgb(69, 183, 209); fill-opacity: 1;"/><path class="point" transform="translate(285.17,225.41)" d="M4,0A4,4 0 1,1 0,-4A4,4 0 0,1 4,0Z" style="opacity: 1; stroke-width: 0px; fill: rgb(69, 183, 209); fill-opacity: 1;"/><path class="point" transform="translate(333.1,192.71)" d="M4,0A4,4 0 1,1 0,-4A4,4 0 0,1 4,0Z" style="opacity: 1; stroke-width: 0px; fill: rgb(69, 183, 209); fill-opacity: 1;"/><path class="point" transform="translate(381.03,143.65)" d="M4,0A4,4 0 1,1 0,-4A4,4 0 0,1 4,0Z" style="opacity: 1; stroke-width: 0px; fill: rgb(69, 183, 209); fill-opacity: 1;"/><path class="point" transform="translate(428.97,86.41)" d="M4,0A4,4 0 1,1 0,-4A4,4 0 0,1 4,0Z" style="opacity: 1; stroke-width: 0px; fill: rgb(69, 183, 209); fill-opacity: 1;"/><path class="point" transform="translate(476.9,45.53)" d="M4,0A4,4 0 1,1 0,-4A4,4 0 0,1 4,0Z" style="opacity: 1; stroke-width: 0px; fill: rgb(69, 183, 209); fill-opacity: 1;"/><path class="point" transform="translate(524.83,29.18)" d="M4,0A4,4 0 1,1 0,-4A4,4 0 0,1 4,0Z" style="opacity: 1; stroke-width: 0px; fill: rgb(69, 183, 209); fill-opacity: 1;"/><path class="point" transform="translate(572.77,21)" d="M4,0A4,4 0 1,1 0,-4A4,4 0 0,1 4,0Z" style="opacity: 1; stroke-width: 0px; fill: rgb(69, 183, 209); fill-opacity: 1;"/><path class="point" transform="translate(620.7,21)" d="M4,0A4,4 0 1,1 0,-4A4,4 0 0,1 4,0Z" style="opacity: 1; stroke-width: 0px; fill: rgb(69, 183, 209); fill-opacity: 1;"/><path class="point" transform="translate(668.63,21)" d="M4,0A4,4 0 1,1 0,-4A4,4 0 0,1 4,0Z" style="opacity: 1; stroke-width: 0px; fill: rgb(69, 183, 209); fill-opacity: 1;"/><path class="point" transform="translate(716.57,21)" d="M4,0A4,4 0 1,1 0,-4A4,4 0 0,1 4,0Z" style="opacity: 1; stroke-width: 0px; fill: rgb(69, 183, 209); fill-opacity: 1;"/><path class="point" transform="translate(764.5,21)" d="M4,0A4,4 0 1,1 0,-4A4,4 0 0,1 4,0Z" style="opacity: 1; stroke-width: 0px; fill: rgb(69, 183, 209); fill-opacity: 1;"/></g><g class="text"/></g><g class="trace scatter tracea4ca66" style="stroke-miterlimit: 2; opacity: 1;"><g class="fills"/><g class="errorbars"/><g class="lines"><path class="js-line" d="M45.5,299L237.23,299L285.17,282.65L333.1,274.47L381.03,258.12L428.97,225.41L476.9,151.82L524.83,110.94L572.77,37.35L620.7,21L668.63,21L764.5,21" style="vector-effect: none; fill: none; stroke: rgb(150, 206, 180); stroke-opacity: 1; stroke-width: 3px; opacity: 1;"/></g><g class="points"><path class="point" transform="translate(45.5,299)" d="M4,0A4,4 0 1,1 0,-4A4,4 0 0,1 4,0Z" style="opacity: 1; stroke-width: 0px; fill: rgb(150, 206, 180); fill-opacity: 1;"/><path class="point" transform="translate(93.43,299)" d="M4,0A4,4 0 1,1 0,-4A4,4 0 0,1 4,0Z" style="opacity: 1; stroke-width: 0px; fill: rgb(150, 206, 180); fill-opacity: 1;"/><path class="point" transform="translate(141.37,299)" d="M4,0A4,4 0 1,1 0,-4A4,4 0 0,1 4,0Z" style="opacity: 1; stroke-width: 0px; fill: rgb(150, 206, 180); fill-opacity: 1;"/><path class="point" transform="translate(189.3,299)" d="M4,0A4,4 0 1,1 0,-4A4,4 0 0,1 4,0Z" style="opacity: 1; stroke-width: 0px; fill: rgb(150, 206, 180); fill-opacity: 1;"/><path class="point" transform="translate(237.23,299)" d="M4,0A4,4 0 1,1 0,-4A4,4 0 0,1 4,0Z" style="opacity: 1; stroke-width: 0px; fill: rgb(150, 206, 180); fill-opacity: 1;"/><path class="point" transform="translate(285.17,282.65)" d="M4,0A4,4 0 1,1 0,-4A4,4 0 0,1 4,0Z" style="opacity: 1; stroke-width: 0px; fill: rgb(150, 206, 180); fill-opacity: 1;"/><path class="point" transform="translate(333.1,274.47)" d="M4,0A4,4 0 1,1 0,-4A4,4 0 0,1 4,0Z" style="opacity: 1; stroke-width: 0px; fill: rgb(150, 206, 180); fill-opacity: 1;"/><path class="point" transform="translate(381.03,258.12)" d="M4,0A4,4 0 1,1 0,-4A4,4 0 0,1 4,0Z" style="opacity: 1; stroke-width: 0px; fill: rgb(150, 206, 180); fill-opacity: 1;"/><path class="point" transform="translate(428.97,225.41)" d="M4,0A4,4 0 1,1 0,-4A4,4 0 0,1 4,0Z" style="opacity: 1; stroke-width: 0px; fill: rgb(150, 206, 180); fill-opacity: 1;"/><path class="point" transform="translate(476.9,151.82)" d="M4,0A4,4 0 1,1 0,-4A4,4 0 0,1 4,0Z" style="opacity: 1; stroke-width: 0px; fill: rgb(150, 206, 180); fill-opacity: 1;"/><path class="point" transform="translate(524.83,110.94)" d="M4,0A4,4 0 1,1 0,-4A4,4 0 0,1 4,0Z" style="opacity: 1; stroke-width: 0px; fill: rgb(150, 206, 180); fill-opacity: 1;"/><path class="point" transform="translate(572.77,37.35)" d="M4,0A4,4 0 1,1 0,-4A4,4 0 0,1 4,0Z" style="opacity: 1; stroke-width: 0px; fill: rgb(150, 206, 180); fill-opacity: 1;"/><path class="point" transform="translate(620.7,21)" d="M4,0A4,4 0 1,1 0,-4A4,4 0 0,1 4,0Z" style="opacity: 1; stroke-width: 0px; fill: rgb(150, 206, 180); fill-opacity: 1;"/><path class="point" transform="translate(668.63,21)" d="M4,0A4,4 0 1,1 0,-4A4,4 0 0,1 4,0Z" style="opacity: 1; stroke-width: 0px; fill: rgb(150, 206, 180); fill-opacity: 1;"/><path class="point" transform="translate(716.57,21)" d="M4,0A4,4 0 1,1 0,-4A4,4 0 0,1 4,0Z" style="opacity: 1; stroke-width: 0px; fill: rgb(150, 206, 180); fill-opacity: 1;"/><path class="point" transform="translate(764.5,21)" d="M4,0A4,4 0 1,1 0,-4A4,4 0 0,1 4,0Z" style="opacity: 1; stroke-width: 0px; fill: rgb(150, 206, 180); fill-opacity: 1;"/></g><g class="text"/></g><g class="trace scatter tracee4558b" style="stroke-miterlimit: 2; opacity: 1;"><g class="fills"/><g class="errorbars"/><g class="lines"><path class="js-line" d="M45.5,299L333.1,299L381.03,281.63L476.9,177.38L524.83,142.63L572.77,73.12L620.7,73.12L668.63,38.38L716.57,38.38L764.5,38.38" style="vector-effect: none; fill: none; stroke: rgb(255, 234, 167); stroke-opacity: 1; stroke-width: 3px; opacity: 1;"/></g><g class="points"><path class="point" transform="translate(45.5,299)" d="M4,0A4,4 0 1,1 0,-4A4,4 0 0,1 4,0Z" style="opacity: 1; stroke-width: 0px; fill: rgb(255, 234, 167); fill-opacity: 1;"/><path class="point" transform="translate(93.43,299)" d="M4,0A4,4 0 1,1 0,-4A4,4 0 0,1 4,0Z" style="opacity: 1; stroke-width: 0px; fill: rgb(255, 234, 167); fill-opacity: 1;"/><path class="point" transform="translate(141.37,299)" d="M4,0A4,4 0 1,1 0,-4A4,4 0 0,1 4,0Z" style="opacity: 1; stroke-width: 0px; fill: rgb(255, 234, 167); fill-opacity: 1;"/><path class="point" transform="translate(189.3,299)" d="M4,0A4,4 0 1,1 0,-4A4,4 0 0,1 4,0Z" style="opacity: 1; stroke-width: 0px; fill: rgb(255, 234, 167); fill-opacity: 1;"/><path class="point" transform="translate(237.23,299)" d="M4,0A4,4 0 1,1 0,-4A4,4 0 0,1 4,0Z" style="opacity: 1; stroke-width: 0px; fill: rgb(255, 234, 167); fill-opacity: 1;"/><path class="point" transform="translate(285.17,299)" d="M4,0A4,4 0 1,1 0,-4A4,4 0 0,1 4,0Z" style="opacity: 1; stroke-width: 0px; fill: rgb(255, 234, 167); fill-opacity: 1;"/><path class="point" transform="translate(333.1,299)" d="M4,0A4,4 0 1,1 0,-4A4,4 0 0,1 4,0Z" style="opacity: 1; stroke-width: 0px; fill: rgb(255, 234, 167); fill-opacity: 1;"/><path class="point" transform="translate(381.03,281.63)" d="M4,0A4,4 0 1,1 0,-4A4,4 0 0,1 4,0Z" style="opacity: 1; stroke-width: 0px; fill: rgb(255, 234, 167); fill-opacity: 1;"/><path class="point" transform="translate(428.97,229.5)" d="M4,0A4,4 0 1,1 0,-4A4,4 0 0,1 4,0Z" style="opacity: 1; stroke-width: 0px; fill: rgb(255, 234, 167); fill-opacity: 1;"/><path class="point" transform="translate(476.9,177.38)" d="M4,0A4,4 0 1,1 0,-4A4,4 0 0,1 4,0Z" style="opacity: 1; stroke-width: 0px; fill: rgb(255, 234, 167); fill-opacity: 1;"/><path class="point" transform="translate(524.83,142.63)" d="M4,0A4,4 0 1,1 0,-4A4,4 0 0,1 4,0Z" style="opacity: 1; stroke-width: 0px; fill: rgb(255, 234, 167); fill-opacity: 1;"/><path class="point" transform="translate(572.77,73.12)" d="M4,0A4,4 0 1,1 0,-4A4,4 0 0,1 4,0Z" style="opacity: 1; stroke-width: 0px; fill: rgb(255, 234, 167); fill-opacity: 1;"/><path class="point" transform="translate(620.7,73.12)" d="M4,0A4,4 0 1,1 0,-4A4,4 0 0,1 4,0Z" style="opacity: 1; stroke-width: 0px; fill: rgb(255, 234, 167); fill-opacity: 1;"/><path class="point" transform="translate(668.63,38.38)" d="M4,0A4,4 0 1,1 0,-4A4,4 0 0,1 4,0Z" style="opacity: 1; stroke-width: 0px; fill: rgb(255, 234, 167); fill-opacity: 1;"/><path class="point" transform="translate(716.57,38.38)" d="M4,0A4,4 0 1,1 0,-4A4,4 0 0,1 4,0Z" style="opacity: 1; stroke-width: 0px; fill: rgb(255, 234, 167); fill-opacity: 1;"/><path class="point" transform="translate(764.5,38.38)" d="M4,0A4,4 0 1,1 0,-4A4,4 0 0,1 4,0Z" style="opacity: 1; stroke-width: 0px; fill: rgb(255, 234, 167); fill-opacity: 1;"/></g><g class="text"/></g></g></g></g><path class="xlines-above crisp" d="M0,0" style="fill: none;"/><path class="ylines-above crisp" d="M0,0" style="fill: none;"/><g class="overlines-above"/><g class="xaxislayer-above"><g class="xtick"><text text-anchor="middle" x="0" y="441" transform="translate(154.43,0)" style="font-family: 'Source Sans', sans-serif; font-size: 12px; fill: rgb(128, 132, 149); fill-opacity: 1; white-space: pre; opacity: 1;">2</text></g><g class="xtick"><text text-anchor="middle" x="0" y="441" style="font-family: 'Source Sans', sans-serif; font-size: 12px; fill: rgb(128, 132, 149); fill-opacity: 1; white-space: pre; opacity: 1;" transform="translate(250.3,0)">4</text></g><g class="xtick"><text text-anchor="middle" x="0" y="441" style="font-family: 'Source Sans', sans-serif; font-size: 12px; fill: rgb(128, 132, 149); fill-opacity: 1; white-space: pre; opacity: 1;" transform="translate(346.17,0)">6</text></g><g class="xtick"><text text-anchor="middle" x="0" y="441" style="font-family: 'Source Sans', sans-serif; font-size: 12px; fill: rgb(128, 132, 149); fill-opacity: 1; white-space: pre; opacity: 1;" transform="translate(442.03,0)">8</text></g><g class="xtick"><text text-anchor="middle" x="0" y="441" style="font-family: 'Source Sans', sans-serif; font-size: 12px; fill: rgb(128, 132, 149); fill-opacity: 1; white-space: pre; opacity: 1;" transform="translate(537.9,0)">10</text></g><g class="xtick"><text text-anchor="middle" x="0" y="441" style="font-family: 'Source Sans', sans-serif; font-size: 12px; fill: rgb(128, 132, 149); fill-opacity: 1; white-space: pre; opacity: 1;" transform="translate(633.77,0)">12</text></g><g class="xtick"><text text-anchor="middle" x="0" y="441" style="font-family: 'Source Sans', sans-serif; font-size: 12px; fill: rgb(128, 132, 149); fill-opacity: 1; white-space: pre; opacity: 1;" transform="translate(729.63,0)">14</text></g><g class="xtick"><text text-anchor="middle" x="0" y="441" style="font-family: 'Source Sans', sans-serif; font-size: 12px; fill: rgb(128, 132, 149); fill-opacity: 1; white-space: pre; opacity: 1;" transform="translate(825.5,0)">16</text></g></g><g class="yaxislayer-above"><g class="ytick"><text text-anchor="end" x="52" y="4.199999999999999" transform="translate(0,399)" style="font-family: 'Source Sans', sans-serif; font-size: 12px; fill: rgb(128, 132, 149); fill-opacity: 1; white-space: pre; opacity: 1;">0</text></g><g class="ytick"><text text-anchor="end" x="52" y="4.199999999999999" style="font-family: 'Source Sans', sans-serif; font-size: 12px; fill: rgb(128, 132, 149); fill-opacity: 1; white-space: pre; opacity: 1;" transform="translate(0,343.4)">20</text></g><g class="ytick"><text text-anchor="end" x="52" y="4.199999999999999" style="font-family: 'Source Sans', sans-serif; font-size: 12px; fill: rgb(128, 132, 149); fill-opacity: 1; white-space: pre; opacity: 1;" transform="translate(0,287.8)">40</text></g><g class="ytick"><text text-anchor="end" x="52" y="4.199999999999999" style="font-family: 'Source Sans', sans-serif; font-size: 12px; fill: rgb(128, 132, 149); fill-opacity: 1; white-space: pre; opacity: 1;" transform="translate(0,232.2)">60</text></g><g class="ytick"><text text-anchor="end" x="52" y="4.199999999999999" style="font-family: 'Source Sans', sans-serif; font-size: 12px; fill: rgb(128, 132, 149); fill-opacity: 1; white-space: pre; opacity: 1;" transform="translate(0,176.6)">80</text></g><g class="ytick"><text text-anchor="end" x="52" y="4.199999999999999" style="font-family: 'Source Sans', sans-serif; font-size: 12px; fill: rgb(128, 132, 149); fill-opacity: 1; white-space: pre; opacity: 1;" transform="translate(0,121)">100</text></g></g><g class="overaxes-above"/></g></g><g class="polarlayer"/><g class="smithlayer"/><g class="ternarylayer"/><g class="geolayer"/><g class="funnelarealayer"/><g class="pielayer"/><g class="iciclelayer"/><g class="treemaplayer"/><g class="sunburstlayer"/><g class="glimages"/><defs id="topdefs-c05412"><g class="clips"/><clipPath id="legendc05412"><rect width="113" height="105" x="0" y="0"/></clipPath></defs><g class="layer-above"><g class="imagelayer"/><g class="shapelayer"/></g><g class="infolayer"><g class="legend" pointer-events="all" transform="translate(887,100)"><rect class="bg" shape-rendering="crispEdges" width="113" height="105" x="0" y="0" style="stroke: rgb(0, 0, 0); stroke-opacity: 0; fill: rgb(255, 255, 255); fill-opacity: 1; stroke-width: 0px;"/><g class="scrollbox" transform="" clip-path="url(#legendc05412)"><g class="groups"><g class="traces" transform="translate(0,14.5)" style="opacity: 1;"><text class="legendtext" text-anchor="start" x="40" y="4.680000000000001" style="font-family: 'Source Sans', sans-serif; font-size: 12px; fill: rgb(38, 39, 48); fill-opacity: 1; white-space: pre;">Innovator</text><g class="layers" transform="translate(0,-0.1999999999999993)" style="opacity: 1;"><g class="legendfill"/><g class="legendlines"><path class="js-line" d="M5,0h30" style="fill: none; stroke: rgb(255, 107, 107); stroke-opacity: 1; stroke-width: 3px;"/></g><g class="legendsymbols"><g class="legendpoints"><path class="scatterpts" transform="translate(20,0)" d="M4,0A4,4 0 1,1 0,-4A4,4 0 0,1 4,0Z" style="opacity: 1; stroke-width: 0px; fill: rgb(255, 107, 107); fill-opacity: 1;"/></g></g></g><rect class="legendtoggle" x="0" y="-9.5" width="107.02422332763672" height="19" style="fill: rgb(0, 0, 0); fill-opacity: 0;"/></g><g class="traces" transform="translate(0,33.5)" style="opacity: 1;"><text class="legendtext" text-anchor="start" x="40" y="4.680000000000001" style="font-family: 'Source Sans', sans-serif; font-size: 12px; fill: rgb(38, 39, 48); fill-opacity: 1; white-space: pre;">EarlyAdopter</text><g class="layers" transform="translate(0,-0.1999999999999993)" style="opacity: 1;"><g class="legendfill"/><g class="legendlines"><path class="js-line" d="M5,0h30" style="fill: none; stroke: rgb(78, 205, 196); stroke-opacity: 1; stroke-width: 3px;"/></g><g class="legendsymbols"><g class="legendpoints"><path class="scatterpts" transform="translate(20,0)" d="M4,0A4,4 0 1,1 0,-4A4,4 0 0,1 4,0Z" style="opacity: 1; stroke-width: 0px; fill: rgb(78, 205, 196); fill-opacity: 1;"/></g></g></g><rect class="legendtoggle" x="0" y="-9.5" width="107.02422332763672" height="19" style="fill: rgb(0, 0, 0); fill-opacity: 0;"/></g><g class="traces" transform="translate(0,52.5)" style="opacity: 1;"><text class="legendtext" text-anchor="start" x="40" y="4.680000000000001" style="font-family: 'Source Sans', sans-serif; font-size: 12px; fill: rgb(38, 39, 48); fill-opacity: 1; white-space: pre;">EarlyMajority</text><g class="layers" transform="translate(0,-0.1999999999999993)" style="opacity: 1;"><g class="legendfill"/><g class="legendlines"><path class="js-line" d="M5,0h30" style="fill: none; stroke: rgb(69, 183, 209); stroke-opacity: 1; stroke-width: 3px;"/></g><g class="legendsymbols"><g class="legendpoints"><path class="scatterpts" transform="translate(20,0)" d="M4,0A4,4 0 1,1 0,-4A4,4 0 0,1 4,0Z" style="opacity: 1; stroke-width: 0px; fill: rgb(69, 183, 209); fill-opacity: 1;"/></g></g></g><rect class="legendtoggle" x="0" y="-9.5" width="107.02422332763672" height="19" style="fill: rgb(0, 0, 0); fill-opacity: 0;"/></g><g class="traces" transform="translate(0,71.5)" style="opacity: 1;"><text class="legendtext" text-anchor="start" x="40" y="4.680000000000001" style="font-family: 'Source Sans', sans-serif; font-size: 12px; fill: rgb(38, 39, 48); fill-opacity: 1; white-space: pre;">LateMajority</text><g class="layers" transform="translate(0,-0.1999999999999993)" style="opacity: 1;"><g class="legendfill"/><g class="legendlines"><path class="js-line" d="M5,0h30" style="fill: none; stroke: rgb(150, 206, 180); stroke-opacity: 1; stroke-width: 3px;"/></g><g class="legendsymbols"><g class="legendpoints"><path class="scatterpts" transform="translate(20,0)" d="M4,0A4,4 0 1,1 0,-4A4,4 0 0,1 4,0Z" style="opacity: 1; stroke-width: 0px; fill: rgb(150, 206, 180); fill-opacity: 1;"/></g></g></g><rect class="legendtoggle" x="0" y="-9.5" width="107.02422332763672" height="19" style="fill: rgb(0, 0, 0); fill-opacity: 0;"/></g><g class="traces" transform="translate(0,90.5)" style="opacity: 1;"><text class="legendtext" text-anchor="start" x="40" y="4.680000000000001" style="font-family: 'Source Sans', sans-serif; font-size: 12px; fill: rgb(38, 39, 48); fill-opacity: 1; white-space: pre;">Laggard</text><g class="layers" transform="translate(0,-0.1999999999999993)" style="opacity: 1;"><g class="legendfill"/><g class="legendlines"><path class="js-line" d="M5,0h30" style="fill: none; stroke: rgb(255, 234, 167); stroke-opacity: 1; stroke-width: 3px;"/></g><g class="legendsymbols"><g class="legendpoints"><path class="scatterpts" transform="translate(20,0)" d="M4,0A4,4 0 1,1 0,-4A4,4 0 0,1 4,0Z" style="opacity: 1; stroke-width: 0px; fill: rgb(255, 234, 167); fill-opacity: 1;"/></g></g></g><rect class="legendtoggle" x="0" y="-9.5" width="107.02422332763672" height="19" style="fill: rgb(0, 0, 0); fill-opacity: 0;"/></g></g></g><rect class="scrollbar" rx="20" ry="3" width="0" height="0" x="0" y="0" style="fill: rgb(128, 139, 164); fill-opacity: 1;"/></g><g class="g-gtitle"><text class="gtitle" x="4" y="50" text-anchor="start" dy="0em" style="opacity: 1; font-family: 'Source Sans', sans-serif; font-size: 16px; fill: rgb(38, 39, 48); fill-opacity: 1; white-space: pre;"><tspan style="font-weight:bold"><tspan style="font-weight:bold">Adoption Rate Over Steps by Category</tspan></tspan></text></g><g class="g-xtitle"><text class="xtitle" x="466" y="466.3" text-anchor="middle" style="opacity: 1; font-family: 'Source Sans', sans-serif; font-size: 14px; fill: rgb(128, 132, 149); fill-opacity: 1; white-space: pre;">Simulation Step</text></g><g class="g-ytitle" transform="translate(0.7001953125,0)"><text class="ytitle" transform="rotate(-90,13.699609375000001,260)" x="13.699609375000001" y="260" text-anchor="middle" style="opacity: 1; font-family: 'Source Sans', sans-serif; font-size: 14px; fill: rgb(128, 132, 149); fill-opacity: 1; white-space: pre;">Cumulative Adoption Rate (%)</text></g></g></svg>